<svg width="101" height="95" viewBox="0 0 101 95" fill="none" xmlns="http://www.w3.org/2000/svg">
<path d="M24.0078 69.1685C18.2853 71.1211 6.86609 58.8236 2.34762 45.5692C-2.28737 31.9657 1.16945 19.707 2.34762 15.6854C3.89448 10.4607 6.23958 5.50578 9.3001 0.995697C21.8284 4.59417 33.4689 10.7596 43.4799 19.0992C49.2284 24.0907 56.2197 29.9226 61.023 40.0735C67.4317 53.5994 66.5125 67.0478 65.4508 67.2288C64.6093 67.3969 64.441 59.0952 57.9675 53.5089C57.1907 52.8365 51.2092 47.8192 43.7259 49.0477C37.2525 50.121 33.2519 55.2934 30.5071 58.8753C25.8074 65.0952 26.649 68.2763 24.0078 69.1685Z" fill="#BA4D59" fill-opacity="0.8"/>
<path d="M28.5521 61.6684C23.3733 59.2762 24.3055 41.8968 30.779 28.5648C34.633 20.9708 40.1036 14.3108 46.8072 9.05177C51.1983 5.45072 56.0215 2.41005 61.1653 0C66.0463 6.07762 74.5913 18.6725 75.6659 35.858C75.9507 40.5778 76.6757 55.1253 67.8071 65.5995C67.1597 66.3495 62.7319 71.4573 60.2073 70.384C57.6826 69.3107 60.2073 62.7159 56.5821 59.0434C52.6981 55.1641 44.2696 57.0908 40.1396 58.0736C32.3585 59.8452 30.8566 62.7417 28.5521 61.6684Z" fill="#602467" fill-opacity="0.8"/>
<path d="M32.76 58.94C30.7791 57.0132 39.9326 37.5649 58.7185 29.0562C71.8338 23.1079 84.5088 24.8406 90.6068 26.1467C92.0149 33.3845 91.5062 40.8641 89.1308 47.8451C87.8361 51.3494 83.9521 62.8452 72.9213 68.1469C64.4022 72.272 55.1323 70.9788 54.9122 69.8021C54.6921 68.6254 63.2241 68.0564 64.3375 63.6857C65.3732 59.5865 59.832 53.3408 53.5916 51.6339C43.6742 48.9442 34.456 60.5822 32.76 58.94Z" fill="#035D6F" fill-opacity="0.75"/>
<path d="M52.7111 53.677C52.0249 50.8968 60.4015 45.0132 69.2702 42.9701C82.6314 39.8795 94.7238 46.0477 100.576 49.6942C99.6436 52.7977 96.0314 63.3495 85.5962 69.1943C81.5572 71.4753 77.0162 72.7235 72.3774 72.828C64.0784 72.828 56.7246 68.7288 57.0094 67.2159C57.1907 66.2331 60.4015 66.8409 61.4761 64.9012C62.5507 62.9616 60.8029 60.065 59.4823 58.4357C56.5304 54.8667 53.1254 55.3322 52.7111 53.677Z" fill="#4D7C39" fill-opacity="0.8"/>
<path d="M37.356 76.216C37.3714 77.8554 37.7162 79.475 38.3701 80.9788C39.0239 82.4826 39.9734 83.8399 41.1623 84.9703C43.463 86.8012 46.3257 87.7831 49.2671 87.7505C52.523 88.1921 55.8336 87.5417 58.6795 85.9014C61.1135 84.3108 62.1363 83.0048 63.3016 83.3151C64.8163 83.7936 65.1918 86.8712 65.2954 89.3152C63.6395 90.7983 61.7719 92.0273 59.7541 92.9618C56.0626 94.5608 52.0361 95.2355 48.0242 94.9273C43.5834 94.8238 37.2524 94.6816 31.9571 90.3109C24.6033 84.2462 24.6292 74.4703 24.6292 72.647C24.6292 60.6081 33.6143 52.6814 36.7992 50.9486C39.9308 49.2501 43.4379 48.3611 47.0014 48.3624C50.6094 48.3104 54.156 49.2981 57.2165 51.2072C61.1164 53.6808 63.9017 57.5708 64.9846 62.0564C65.6703 65.2342 65.4505 68.5402 64.3503 71.5996C61.1135 72.4272 57.6955 73.216 54.0704 73.9013C48.5431 74.9632 42.964 75.7358 37.356 76.216ZM52.3485 65.8711C52.2716 64.6032 51.9383 63.3639 51.3687 62.2282C50.799 61.0925 50.0048 60.0839 49.0341 59.2633C48.4056 58.7705 47.669 58.4337 46.8849 58.2805C44.0884 57.7891 41.7967 60.2073 41.3307 60.6986C39.757 62.4466 38.9259 64.7375 39.0132 67.0866L52.3485 65.8711Z" fill="#BA4D59"/>
</svg>
