<svg width="244" height="119" viewBox="0 0 244 119" fill="none" xmlns="http://www.w3.org/2000/svg">
<path d="M41.25 66.1875C41.25 65.1458 41.3125 64.1042 41.4375 63.0625C41.6042 62.0208 41.7708 61 41.9375 60C42.1458 58.9583 42.3125 57.9167 42.4375 56.875C42.6042 55.7917 42.6875 54.7083 42.6875 53.625C41.3125 53.625 40.125 53.6875 39.125 53.8125C38.125 53.9375 37.1458 54.0625 36.1875 54.1875C35.2292 54.3125 34.2083 54.4167 33.125 54.5C32.0417 54.5417 30.7292 54.5208 29.1875 54.4375C28.0625 55.6875 26.7708 57.0208 25.3125 58.4375C23.8958 59.8542 22.375 61.1667 20.75 62.375C19.125 63.5833 17.4167 64.6042 15.625 65.4375C13.8333 66.2292 12.0208 66.625 10.1875 66.625C8.9375 66.625 7.72917 66.4167 6.5625 66C5.4375 65.5833 4.4375 65 3.5625 64.25C2.6875 63.5 2 62.6042 1.5 61.5625C1 60.4792 0.75 59.2917 0.75 58C0.75 57.3333 0.854167 56.8333 1.0625 56.5C1.3125 56.125 1.8125 55.9375 2.5625 55.9375C2.9375 55.9375 3.27083 56.2917 3.5625 57C3.85417 57.6667 4.22917 58.4375 4.6875 59.3125C5.1875 60.1458 5.8125 60.9167 6.5625 61.625C7.3125 62.2917 8.33333 62.625 9.625 62.625C11.2083 62.625 12.75 62.3333 14.25 61.75C15.7917 61.125 17.25 60.3542 18.625 59.4375C20.0417 58.4792 21.3542 57.4167 22.5625 56.25C23.8125 55.0833 24.9375 53.9375 25.9375 52.8125C25.8125 51.7708 25.4375 51 24.8125 50.5C24.1875 50 23.5208 49.5 22.8125 49C22.1458 48.5 21.5417 47.8333 21 47C20.4583 46.1667 20.1875 44.8542 20.1875 43.0625C20.1875 40.5208 20.9583 38.5417 22.5 37.125C24.0417 35.6667 26.1458 34.9375 28.8125 34.9375C29.6042 34.9375 30.375 35.0208 31.125 35.1875C31.9167 35.3542 32.7083 35.5625 33.5 35.8125C34.2917 36.0208 35.0625 36.2083 35.8125 36.375C36.6042 36.5417 37.3958 36.625 38.1875 36.625C38.6875 36.625 39.0833 36.5625 39.375 36.4375C39.7083 36.3125 40 36.125 40.25 35.875C40.5 35.625 40.7708 35.2917 41.0625 34.875C41.3542 34.4583 41.7292 33.9583 42.1875 33.375C42.4375 33.0417 42.8125 32.5208 43.3125 31.8125C43.8542 31.0625 44.4375 30.25 45.0625 29.375C45.6875 28.4583 46.3542 27.5 47.0625 26.5C47.7708 25.5 48.4375 24.5417 49.0625 23.625C49.6875 22.7083 50.25 21.8958 50.75 21.1875C51.25 20.4792 51.6042 19.9375 51.8125 19.5625C52.2708 19.1875 52.6875 18.9583 53.0625 18.875C53.4375 18.75 53.875 18.6875 54.375 18.6875C54.875 18.6875 55.25 18.875 55.5 19.25C55.75 19.5833 55.8958 20 55.9375 20.5C56.0208 21 56.0417 21.5208 56 22.0625C56 22.5625 56 22.9583 56 23.25C56 23.375 56 23.5833 56 23.875C56 24.125 55.9792 24.3958 55.9375 24.6875C55.9375 24.9792 55.9375 25.2708 55.9375 25.5625C55.9375 25.8125 55.9375 25.9792 55.9375 26.0625C55.8125 26.4792 55.6042 27.1042 55.3125 27.9375C55.0625 28.7708 54.7708 29.7292 54.4375 30.8125C54.1042 31.8542 53.75 32.9583 53.375 34.125C53.0417 35.2917 52.7083 36.4167 52.375 37.5C52.0833 38.5833 51.8125 39.5417 51.5625 40.375C51.3125 41.2083 51.1458 41.8333 51.0625 42.25C51.0208 42.4583 50.9583 42.7917 50.875 43.25C50.7917 43.7083 50.7083 44.2083 50.625 44.75C50.5417 45.25 50.4583 45.7292 50.375 46.1875C50.2917 46.6458 50.25 46.9583 50.25 47.125C50.625 47.2083 51 47.3333 51.375 47.5C51.75 47.6667 51.9375 47.9375 51.9375 48.3125C51.9375 48.7292 51.7708 49.0625 51.4375 49.3125C51.1458 49.5625 50.7917 49.7917 50.375 50C49.9583 50.2083 49.5625 50.4583 49.1875 50.75C48.8542 51.0417 48.6667 51.4583 48.625 52C48.5417 52.5 48.3958 53.4167 48.1875 54.75C47.9792 56.0417 47.7292 57.4375 47.4375 58.9375C47.1875 60.3958 46.9375 61.7708 46.6875 63.0625C46.4792 64.3542 46.3125 65.25 46.1875 65.75C46.1458 65.875 46.0625 66.1042 45.9375 66.4375C45.8125 66.7708 45.6667 67.1042 45.5 67.4375C45.3333 67.7708 45.1667 68.0833 45 68.375C44.8333 68.6667 44.7083 68.875 44.625 69C43.625 68.7917 42.8125 68.5417 42.1875 68.25C41.5625 67.9167 41.25 67.2292 41.25 66.1875ZM40.1875 42.1875C39.6875 42.1875 38.9792 42.5417 38.0625 43.25C37.1875 43.9583 36.3125 44.7917 35.4375 45.75C34.5625 46.6667 33.7917 47.6042 33.125 48.5625C32.4583 49.4792 32.125 50.1667 32.125 50.625C32.375 50.625 32.8542 50.625 33.5625 50.625C34.3125 50.5833 35.0833 50.5625 35.875 50.5625C36.7083 50.5208 37.4792 50.4792 38.1875 50.4375C38.9375 50.3958 39.4583 50.375 39.75 50.375C39.9167 50.375 40.1667 50.3333 40.5 50.25C40.875 50.1667 41.2292 50.0833 41.5625 50C41.8958 49.9167 42.1875 49.8333 42.4375 49.75C42.7292 49.6667 42.8958 49.6042 42.9375 49.5625C42.9792 49.5625 43 49.4375 43 49.1875C43 48.8958 43 48.6667 43 48.5C43 48.1667 42.9375 47.6458 42.8125 46.9375C42.7292 46.2292 42.5625 45.5208 42.3125 44.8125C42.1042 44.1042 41.8125 43.5 41.4375 43C41.1042 42.4583 40.6875 42.1875 40.1875 42.1875ZM22.625 42.25C22.625 42.8333 22.8333 43.5 23.25 44.25C23.6667 45 24.1875 45.7083 24.8125 46.375C25.4375 47.0417 26.1042 47.6042 26.8125 48.0625C27.5208 48.5208 28.1875 48.75 28.8125 48.75C29.3958 48.75 30.0833 48.3958 30.875 47.6875C31.6667 46.9792 32.4167 46.1667 33.125 45.25C33.875 44.2917 34.5 43.375 35 42.5C35.5 41.625 35.75 41.0208 35.75 40.6875C35.75 39.9792 35.5 39.4583 35 39.125C34.5417 38.75 33.9792 38.5 33.3125 38.375C32.6875 38.2083 32.0208 38.125 31.3125 38.125C30.6042 38.125 30.0208 38.125 29.5625 38.125C28.9792 38.125 28.2708 38.1875 27.4375 38.3125C26.6458 38.3958 25.8958 38.5833 25.1875 38.875C24.4792 39.1667 23.875 39.5833 23.375 40.125C22.875 40.6667 22.625 41.375 22.625 42.25ZM41.375 39.0625C42.2917 40.1458 43.1458 41.3125 43.9375 42.5625C44.7292 43.8125 45.4792 45.0833 46.1875 46.375L51.75 26.375L41.375 39.0625ZM55.1875 63.3125C55.1875 62.7708 55.3125 62.1667 55.5625 61.5C55.8542 60.7917 56.2917 60.3333 56.875 60.125C56.9583 60.0833 57.0625 60.0625 57.1875 60.0625C57.3542 60.0208 57.5 59.9792 57.625 59.9375C57.7917 59.8958 57.9375 59.875 58.0625 59.875V63.3125C58.3125 63.0625 58.6875 62.6042 59.1875 61.9375C59.7292 61.2708 60.2708 60.5625 60.8125 59.8125C61.3958 59.0208 61.9167 58.2708 62.375 57.5625C62.875 56.8542 63.2083 56.3333 63.375 56L77.9375 27.625C77.9375 27.625 78.0417 27.5 78.25 27.25C78.5 27 78.7708 26.8333 79.0625 26.75C79.3958 26.625 79.75 26.6667 80.125 26.875C80.5 27.0833 80.8542 27.625 81.1875 28.5L72.3125 46.375V47.125C73.4792 47.2917 74.5625 47.5417 75.5625 47.875C76.5625 48.1667 77.4167 48.6042 78.125 49.1875C78.875 49.7708 79.4583 50.5 79.875 51.375C80.2917 52.2083 80.5 53.2292 80.5 54.4375C80.5 56.4792 79.9583 58.3958 78.875 60.1875C77.8333 61.9375 76.4792 63.4792 74.8125 64.8125C73.1458 66.1042 71.2917 67.1458 69.25 67.9375C67.25 68.6875 65.3125 69.0625 63.4375 69.0625C62.6042 69.0625 61.7083 68.9583 60.75 68.75C59.7917 68.5 58.8958 68.1458 58.0625 67.6875C57.2708 67.1875 56.5833 66.5833 56 65.875C55.4583 65.125 55.1875 64.2708 55.1875 63.3125ZM73 51.0625C72.4167 51.0625 71.7708 51.3333 71.0625 51.875C70.3958 52.4167 69.7292 53.125 69.0625 54C68.3958 54.8333 67.75 55.7917 67.125 56.875C66.5 57.9167 65.9375 58.9583 65.4375 60C64.9792 61.0417 64.6042 62.0208 64.3125 62.9375C64.0208 63.8542 63.875 64.5833 63.875 65.125C65.0417 65.125 66.3542 64.8542 67.8125 64.3125C69.2708 63.7708 70.625 63.0625 71.875 62.1875C73.1667 61.2708 74.2292 60.2292 75.0625 59.0625C75.9375 57.8542 76.375 56.6042 76.375 55.3125C76.375 54.1875 76.1458 53.2083 75.6875 52.375C75.2292 51.5 74.3333 51.0625 73 51.0625ZM83.9375 63.75C83.9375 63.5833 83.9375 63.25 83.9375 62.75C83.9792 62.2083 84 61.8542 84 61.6875C85.3333 58.6458 87.0417 55.8333 89.125 53.25C91.2083 50.6667 93.5625 48.375 96.1875 46.375C96.2708 46.375 96.3958 46.3542 96.5625 46.3125C96.7708 46.2292 96.9167 46.1875 97 46.1875C98.125 46.1875 99.0417 46.4375 99.75 46.9375C100.5 47.3958 101.083 48.0208 101.5 48.8125C101.958 49.5625 102.271 50.4167 102.438 51.375C102.604 52.2917 102.688 53.1875 102.688 54.0625C102.688 55.6875 102.312 57.3958 101.562 59.1875C100.812 60.9375 99.7917 62.5625 98.5 64.0625C97.25 65.5208 95.8125 66.7292 94.1875 67.6875C92.5625 68.6042 90.875 69.0625 89.125 69.0625C87.375 69.0625 86.0625 68.6042 85.1875 67.6875C84.3542 66.7292 83.9375 65.4167 83.9375 63.75ZM88.8125 63C88.8125 63.4583 89 63.7708 89.375 63.9375C89.75 64.1042 90.125 64.1875 90.5 64.1875C91.5417 64.1875 92.5417 63.9167 93.5 63.375C94.5 62.7917 95.375 62.0833 96.125 61.25C96.9167 60.375 97.5417 59.4167 98 58.375C98.4583 57.3333 98.6875 56.3333 98.6875 55.375C98.6875 54.9167 98.6458 54.4167 98.5625 53.875C98.5208 53.2917 98.3958 52.7917 98.1875 52.375C97.9792 51.9167 97.6458 51.5625 97.1875 51.3125C96.7708 51.0625 96.1667 51.0208 95.375 51.1875C94.7917 51.3125 94.125 51.8542 93.375 52.8125C92.625 53.7708 91.8958 54.8958 91.1875 56.1875C90.5208 57.4375 89.9583 58.7083 89.5 60C89.0417 61.25 88.8125 62.25 88.8125 63ZM105.375 65.875C105.375 65.25 105.562 64.375 105.938 63.25C106.312 62.0833 106.792 60.8333 107.375 59.5C108 58.1667 108.688 56.8125 109.438 55.4375C110.229 54.0625 111.021 52.8125 111.812 51.6875C112.604 50.5625 113.354 49.6458 114.062 48.9375C114.771 48.2292 115.396 47.875 115.938 47.875C117.104 47.875 117.688 48.4375 117.688 49.5625C117.688 50.0625 117.583 50.4792 117.375 50.8125C117.208 51.1458 117 51.4583 116.75 51.75C116.5 52.0417 116.229 52.3333 115.938 52.625C115.646 52.875 115.396 53.1875 115.188 53.5625C114.812 54.1875 114.354 55.0417 113.812 56.125C113.271 57.2083 112.729 58.2708 112.188 59.3125C111.688 60.3125 111.25 61.2083 110.875 62C110.5 62.7917 110.312 63.2292 110.312 63.3125V64.125C111.938 63.8333 113.5 63.1458 115 62.0625C116.5 60.9375 117.917 59.625 119.25 58.125C120.625 56.625 121.917 55.0625 123.125 53.4375C124.375 51.7708 125.542 50.25 126.625 48.875C127.708 47.4583 128.729 46.2917 129.688 45.375C130.646 44.4583 131.542 44 132.375 44C132.375 45.5417 132.062 46.9375 131.438 48.1875C130.812 49.4375 130.125 50.6667 129.375 51.875C128.667 53.0833 128 54.3333 127.375 55.625C126.75 56.875 126.438 58.2917 126.438 59.875C126.438 60.5417 126.833 61.1458 127.625 61.6875C128.458 62.1875 129.396 62.625 130.438 63C131.521 63.3333 132.562 63.6042 133.562 63.8125C134.562 64.0208 135.25 64.1458 135.625 64.1875V65.8125C134.667 65.8542 133.479 65.875 132.062 65.875C130.646 65.8333 129.229 65.6667 127.812 65.375C126.396 65.0833 125.104 64.6042 123.938 63.9375C122.812 63.2292 122.062 62.2083 121.688 60.875C120.604 61.5833 119.562 62.4167 118.562 63.375C117.562 64.3333 116.521 65.2292 115.438 66.0625C114.396 66.8958 113.292 67.6042 112.125 68.1875C110.958 68.7708 109.688 69.0625 108.312 69.0625C107.479 69.0625 106.771 68.7083 106.188 68C105.646 67.2917 105.375 66.5833 105.375 65.875ZM135 62.9375C135 61.7292 135.229 60.5208 135.688 59.3125C136.146 58.1042 136.688 56.9167 137.312 55.75C137.938 54.5417 138.562 53.3542 139.188 52.1875C139.854 51.0208 140.354 49.875 140.688 48.75C139.896 49.2083 139.208 49.4792 138.625 49.5625C138.083 49.6042 137.417 49.625 136.625 49.625C136.542 49.625 136.271 49.625 135.812 49.625C135.396 49.5833 135.125 49.5625 135 49.5625C135.25 48.6458 135.708 47.8333 136.375 47.125C137.042 46.375 137.792 45.75 138.625 45.25C139.5 44.7083 140.396 44.2708 141.312 43.9375C142.271 43.5625 143.125 43.2708 143.875 43.0625C145.125 41.1042 146.146 39.1458 146.938 37.1875C147.729 35.1875 148.521 33.25 149.312 31.375C150.146 29.4583 151.104 27.6458 152.188 25.9375C153.312 24.1875 154.812 22.5833 156.688 21.125L157 23.5L149.188 41.8125C149.646 41.6875 150.208 41.5625 150.875 41.4375C151.542 41.3125 152.208 41.1875 152.875 41.0625C153.583 40.9375 154.25 40.8333 154.875 40.75C155.542 40.625 156.104 40.5 156.562 40.375C156.604 40.375 156.729 40.375 156.938 40.375C157.146 40.3333 157.312 40.3125 157.438 40.3125C158.021 40.3125 158.5 40.4167 158.875 40.625C159.25 40.8333 159.562 41.2917 159.812 42C156.979 42.8333 154.417 43.7083 152.125 44.625C149.833 45.5417 147.833 46.75 146.125 48.25C144.458 49.7083 143.083 51.5833 142 53.875C140.958 56.125 140.229 59.0208 139.812 62.5625C139.812 63.3125 139.854 64 139.938 64.625C140.021 65.25 140.542 65.625 141.5 65.75C142.458 65.75 143.354 65.5625 144.188 65.1875C145.021 64.8125 145.833 64.4167 146.625 64C147.417 63.5417 148.208 63.125 149 62.75C149.833 62.375 150.729 62.1875 151.688 62.1875C151.688 63.1875 151.25 64.1042 150.375 64.9375C149.5 65.7708 148.438 66.5 147.188 67.125C145.979 67.75 144.729 68.2292 143.438 68.5625C142.146 68.8958 141.083 69.0625 140.25 69.0625C139.417 69.0625 138.667 68.8958 138 68.5625C137.333 68.2292 136.771 67.7917 136.312 67.25C135.896 66.6667 135.562 66 135.312 65.25C135.104 64.5 135 63.7292 135 62.9375ZM184.25 65.875C184.25 65.25 184.438 64.375 184.812 63.25C185.188 62.0833 185.667 60.8333 186.25 59.5C186.875 58.1667 187.562 56.8125 188.312 55.4375C189.104 54.0625 189.896 52.8125 190.688 51.6875C191.479 50.5625 192.229 49.6458 192.938 48.9375C193.646 48.2292 194.271 47.875 194.812 47.875C195.979 47.875 196.562 48.4375 196.562 49.5625C196.562 50.0625 196.458 50.4792 196.25 50.8125C196.083 51.1458 195.875 51.4583 195.625 51.75C195.375 52.0417 195.104 52.3333 194.812 52.625C194.521 52.875 194.271 53.1875 194.062 53.5625C193.688 54.1875 193.229 55.0417 192.688 56.125C192.146 57.2083 191.604 58.2708 191.062 59.3125C190.562 60.3125 190.125 61.2083 189.75 62C189.375 62.7917 189.188 63.2292 189.188 63.3125V64.125C190.812 63.8333 192.375 63.1458 193.875 62.0625C195.375 60.9375 196.792 59.625 198.125 58.125C199.5 56.625 200.792 55.0625 202 53.4375C203.25 51.7708 204.417 50.25 205.5 48.875C206.583 47.4583 207.604 46.2917 208.562 45.375C209.521 44.4583 210.417 44 211.25 44C211.25 45.5417 210.938 46.9375 210.312 48.1875C209.688 49.4375 209 50.6667 208.25 51.875C207.542 53.0833 206.875 54.3333 206.25 55.625C205.625 56.875 205.312 58.2917 205.312 59.875C205.312 60.5417 205.708 61.1458 206.5 61.6875C207.333 62.1875 208.271 62.625 209.312 63C210.396 63.3333 211.438 63.6042 212.438 63.8125C213.438 64.0208 214.125 64.1458 214.5 64.1875V65.8125C213.542 65.8542 212.354 65.875 210.938 65.875C209.521 65.8333 208.104 65.6667 206.688 65.375C205.271 65.0833 203.979 64.6042 202.812 63.9375C201.688 63.2292 200.938 62.2083 200.562 60.875C199.479 61.5833 198.438 62.4167 197.438 63.375C196.438 64.3333 195.396 65.2292 194.312 66.0625C193.271 66.8958 192.167 67.6042 191 68.1875C189.833 68.7708 188.562 69.0625 187.188 69.0625C186.354 69.0625 185.646 68.7083 185.062 68C184.521 67.2917 184.25 66.5833 184.25 65.875ZM214.25 62.0625C214.25 61.2708 214.354 60.5833 214.562 60C214.812 59.4167 215.417 59.125 216.375 59.125C216.458 59.125 216.646 59.1458 216.938 59.1875C217.271 59.1875 217.5 59.2083 217.625 59.25C217.583 61.2083 217.896 62.6875 218.562 63.6875C219.229 64.6458 220.479 65.125 222.312 65.125C223.812 65.125 225.292 64.8958 226.75 64.4375C228.208 63.9792 229.521 63.3125 230.688 62.4375C231.896 61.5208 232.854 60.4167 233.562 59.125C234.312 57.8333 234.688 56.375 234.688 54.75C234.688 53.75 234.333 53.0417 233.625 52.625C232.958 52.2083 232.208 51.875 231.375 51.625C230.542 51.375 229.771 51.1042 229.062 50.8125C228.396 50.4792 228.062 49.9167 228.062 49.125C228.062 48.1667 228.646 47.25 229.812 46.375C230.979 45.5 232.354 44.7292 233.938 44.0625C235.521 43.3542 237.083 42.8125 238.625 42.4375C240.208 42.0208 241.417 41.8125 242.25 41.8125C242.25 43.0208 241.979 43.875 241.438 44.375C240.938 44.875 240.312 45.2708 239.562 45.5625C238.812 45.8542 238.042 46.1458 237.25 46.4375C236.5 46.6875 235.875 47.1875 235.375 47.9375C236.042 48.4792 236.583 48.9792 237 49.4375C237.458 49.8542 237.812 50.3125 238.062 50.8125C238.312 51.3125 238.479 51.875 238.562 52.5C238.646 53.0833 238.688 53.7917 238.688 54.625C238.688 56.7917 238.208 58.7708 237.25 60.5625C236.333 62.3125 235.125 63.8333 233.625 65.125C232.125 66.375 230.417 67.3542 228.5 68.0625C226.583 68.7292 224.625 69.0625 222.625 69.0625C221.542 69.0625 220.479 68.9375 219.438 68.6875C218.438 68.3958 217.542 67.9583 216.75 67.375C216 66.7917 215.396 66.0625 214.938 65.1875C214.479 64.3125 214.25 63.2708 214.25 62.0625Z" fill="#172B30"/>
</svg>
