<svg width="228" height="80" viewBox="0 0 228 80" fill="none" xmlns="http://www.w3.org/2000/svg">
<path d="M29.952 16.328H44.288C43.2213 17.3947 41.3653 18.2053 38.72 18.76C36.0747 19.3147 33.088 19.7627 29.76 20.104C26.432 20.4027 24.256 20.6587 23.232 20.872C18.6667 21.9387 16.384 24.6693 16.384 29.064C15.0613 27.6987 14.4 26.2267 14.4 24.648C14.4 19.1013 19.584 16.328 29.952 16.328ZM47.552 16.328H52.16C50.1973 18.2053 48.192 23.3467 46.144 31.752C44.1387 40.1147 43.136 46.5787 43.136 51.144C43.136 54.3867 43.7333 56.6267 44.928 57.864C45.44 58.4187 46.08 58.696 46.848 58.696C47.616 58.696 48.4267 58.4187 49.28 57.864L49.664 58.44C49.0667 59.2933 48 60.04 46.464 60.68C44.928 61.2773 43.4133 61.576 41.92 61.576C39.7013 61.576 38.1867 60.7867 37.376 59.208C36.5653 57.6293 36.096 55.5173 35.968 52.872C35.968 50.696 36.2453 47.88 36.8 44.424H22.144C15.7867 51.1653 10.7947 56.6907 7.168 61H0.768C4.77867 57.3307 11.008 51.3147 19.456 42.952C30.336 32.1147 37.4827 24.6053 40.896 20.424C41.7493 19.4 42.3893 18.696 42.816 18.312C43.2427 17.8853 43.8827 17.4587 44.736 17.032C45.632 16.5627 46.5707 16.328 47.552 16.328ZM40.96 25.352C36.096 29.9173 30.7627 35.208 24.96 41.224H37.248C38.016 37 39.2533 31.7093 40.96 25.352ZM81.28 44.616C81.536 44.616 81.664 45.0213 81.664 45.832C81.664 46.6 81.536 47.1973 81.28 47.624L79.872 49.992C77.7813 53.448 76.0747 55.752 74.752 56.904C73.3013 58.2267 71.8933 58.888 70.528 58.888C68.736 58.888 67.5413 58.056 66.944 56.392C65.1947 58.1413 63.424 59.464 61.632 60.36C59.84 61.2133 57.8347 61.64 55.616 61.64C53.3973 61.64 51.8187 61.2987 50.88 60.616C49.984 59.8907 49.536 58.7173 49.536 57.096C49.536 55.432 49.792 53.5547 50.304 51.464C51.6267 45.832 53.8453 39.2187 56.96 31.624C60.0747 23.9867 62.528 19.9333 64.32 19.464C64.8747 19.336 65.8773 19.272 67.328 19.272C68.8213 19.2293 69.7173 19.1867 70.016 19.144C68.352 20.3813 66.0907 24.008 63.232 30.024C60.416 36.04 58.2827 41.8213 56.832 47.368C61.44 39.2187 65.792 35.144 69.888 35.144C72.7893 35.144 74.24 37.2347 74.24 41.416C74.24 45.5547 72.4907 49.7787 68.992 54.088C69.0347 54.8133 69.248 55.3893 69.632 55.816C70.016 56.2427 70.5067 56.456 71.104 56.456C71.7013 56.456 72.3413 56.2 73.024 55.688C73.7493 55.1333 74.2827 54.664 74.624 54.28C75.008 53.8533 75.4987 53.256 76.096 52.488C76.6933 51.72 77.3973 50.696 78.208 49.416C79.0187 48.0933 79.7013 46.9627 80.256 46.024C80.8533 45.0853 81.1947 44.616 81.28 44.616ZM67.072 40.584C66.944 40.5413 66.6027 40.52 66.048 40.52C65.536 40.52 64.5333 41.0747 63.04 42.184C61.5893 43.2933 59.8827 45.4267 57.92 48.584C55.9573 51.6987 54.976 54.28 54.976 56.328C54.976 58.3333 55.5947 59.336 56.832 59.336C59.0933 59.336 61.5253 57.16 64.128 52.808C66.7307 48.4133 68.032 44.9573 68.032 42.44C68.032 41.3733 67.712 40.7547 67.072 40.584ZM109.463 45.256C109.591 45 109.719 44.872 109.847 44.872C110.103 44.872 110.231 45.192 110.231 45.832C110.231 47.88 109.399 49.5867 107.735 50.952C106.114 52.2747 104.578 52.936 103.127 52.936C101.719 52.936 100.503 52.5307 99.479 51.72C97.943 54.7493 96.1083 57.1387 93.975 58.888C91.8843 60.6373 89.175 61.512 85.847 61.512C83.7137 61.512 81.9643 60.872 80.599 59.592C79.2763 58.2693 78.615 56.2853 78.615 53.64C78.615 50.952 79.2123 48.2 80.407 45.384C81.6443 42.5253 83.479 40.072 85.911 38.024C88.3857 35.976 91.1377 34.952 94.167 34.952C99.2443 34.952 101.783 37.64 101.783 43.016C101.783 45.064 101.335 47.2187 100.439 49.48C101.079 50.376 101.996 50.824 103.191 50.824C105.41 50.824 107.5 48.968 109.463 45.256ZM98.775 41.288C98.6043 39.0267 97.5803 37.896 95.703 37.896C92.759 37.896 89.879 40.7547 87.063 46.472C85.527 49.6293 84.759 52.488 84.759 55.048C84.759 57.608 85.8683 58.952 88.087 59.08C89.9217 59.08 91.607 58.12 93.143 56.2C94.7217 54.2373 96.0443 52.0827 97.111 49.736C95.6603 48.4987 94.935 46.9413 94.935 45.064C94.935 43.912 95.2337 42.9947 95.831 42.312C96.471 41.6293 97.3243 41.288 98.391 41.288H98.775ZM131.749 35.208L134.821 35.272C135.461 35.272 135.866 35.2507 136.037 35.208C134.842 36.0187 133.114 38.856 130.853 43.72C128.634 48.5413 127.525 52.0187 127.525 54.152C127.525 55.432 127.952 56.072 128.805 56.072C129.36 56.072 130.106 55.7093 131.045 54.984C132.026 54.2587 132.858 53.4693 133.541 52.616C134.224 51.72 134.949 50.632 135.717 49.352C136.528 48.072 137.21 46.9627 137.765 46.024C138.362 45.0853 138.704 44.616 138.789 44.616C139.045 44.616 139.173 45.0213 139.173 45.832C139.173 46.6427 138.938 47.4107 138.469 48.136C133.178 56.968 128.762 61.384 125.221 61.384C122.832 61.384 121.637 59.6133 121.637 56.072C121.637 54.9627 121.722 53.896 121.893 52.872C117.882 58.5467 114.064 61.384 110.437 61.384C109.37 61.384 108.496 60.936 107.813 60.04C107.173 59.144 106.853 57.8213 106.853 56.072C106.853 54.3227 107.472 51.4427 108.709 47.432C109.946 43.3787 111.461 40.0507 113.253 37.448C113.68 36.808 114.128 36.424 114.597 36.296C115.109 36.1253 116.048 36.04 117.413 36.04H120.485C119.418 37.4907 118.266 39.4533 117.029 41.928C114.213 47.7733 112.805 52.0613 112.805 54.792C112.805 56.4133 113.381 57.224 114.533 57.224C115.728 57.224 117.136 56.0933 118.757 53.832C120.378 51.5707 122.106 48.648 123.941 45.064C125.818 41.4373 126.906 39.3893 127.205 38.92C128.784 36.4453 130.298 35.208 131.749 35.208ZM156.019 24.328C153.928 25.7787 151.582 29.4907 148.979 35.464H155.443L155.507 35.528C155.507 35.7413 155.272 36.1253 154.803 36.68C154.334 37.192 153.928 37.448 153.587 37.448H148.083C144.712 45.8107 143.027 51.1867 143.027 53.576C143.027 55.1973 143.539 56.008 144.563 56.008C146.056 56.008 147.806 54.728 149.811 52.168C150.28 51.6133 150.899 50.6747 151.667 49.352C153.63 46.1947 154.654 44.616 154.739 44.616C154.995 44.616 155.123 44.9573 155.123 45.64C155.08 47.2613 153.31 50.4187 149.811 55.112C148.659 56.648 147.272 58.0773 145.651 59.4C144.03 60.7227 142.558 61.384 141.235 61.384C138.803 61.384 137.587 59.6773 137.587 56.264C137.587 53.4053 138.27 50.12 139.635 46.408V46.344C138.824 47.8373 138.12 48.9467 137.523 49.672C136.968 50.3973 136.648 50.76 136.563 50.76C136.392 50.76 136.307 50.504 136.307 49.992C136.307 49.4373 136.584 48.5627 137.139 47.368C137.736 46.1733 138.526 44.616 139.507 42.696C140.531 40.776 141.363 39.0267 142.003 37.448H137.715C137.587 37.448 137.523 37.3627 137.523 37.192C137.523 36.9787 137.672 36.6373 137.971 36.168C138.312 35.6987 138.568 35.464 138.739 35.464H143.603C146.675 28.0827 149.79 24.392 152.947 24.392C154.782 24.392 155.806 24.3707 156.019 24.328ZM195.624 35.208L198.696 35.272C199.336 35.272 199.741 35.2507 199.912 35.208C198.717 36.0187 196.989 38.856 194.728 43.72C192.509 48.5413 191.4 52.0187 191.4 54.152C191.4 55.432 191.827 56.072 192.68 56.072C193.235 56.072 193.981 55.7093 194.92 54.984C195.901 54.2587 196.733 53.4693 197.416 52.616C198.099 51.72 198.824 50.632 199.592 49.352C200.403 48.072 201.085 46.9627 201.64 46.024C202.237 45.0853 202.579 44.616 202.664 44.616C202.92 44.616 203.048 45.0213 203.048 45.832C203.048 46.6427 202.813 47.4107 202.344 48.136C197.053 56.968 192.637 61.384 189.096 61.384C186.707 61.384 185.512 59.6133 185.512 56.072C185.512 54.9627 185.597 53.896 185.768 52.872C181.757 58.5467 177.939 61.384 174.312 61.384C173.245 61.384 172.371 60.936 171.688 60.04C171.048 59.144 170.728 57.8213 170.728 56.072C170.728 54.3227 171.347 51.4427 172.584 47.432C173.821 43.3787 175.336 40.0507 177.128 37.448C177.555 36.808 178.003 36.424 178.472 36.296C178.984 36.1253 179.923 36.04 181.288 36.04H184.36C183.293 37.4907 182.141 39.4533 180.904 41.928C178.088 47.7733 176.68 52.0613 176.68 54.792C176.68 56.4133 177.256 57.224 178.408 57.224C179.603 57.224 181.011 56.0933 182.632 53.832C184.253 51.5707 185.981 48.648 187.816 45.064C189.693 41.4373 190.781 39.3893 191.08 38.92C192.659 36.4453 194.173 35.208 195.624 35.208ZM226.614 48.008C223.414 53.3413 220.513 57.0533 217.91 59.144C215.307 61.2347 211.937 62.28 207.798 62.28C205.409 62.28 203.403 61.832 201.782 60.936C200.161 59.9973 199.35 58.632 199.35 56.84C199.35 55.816 199.649 54.8773 200.246 54.024C200.843 53.1707 201.654 52.744 202.678 52.744C203.745 52.744 204.427 53.128 204.726 53.896C203.915 54.7067 203.51 55.6453 203.51 56.712C203.51 58.8453 204.705 59.912 207.094 59.912C208.502 59.912 209.718 59.4213 210.742 58.44C211.809 57.4587 212.342 56.392 212.342 55.24C212.342 54.0453 212.086 53 211.574 52.104C211.062 51.208 210.443 50.4187 209.718 49.736C208.993 49.0533 208.267 48.3707 207.542 47.688C205.793 46.024 204.918 44.1253 204.918 41.992C204.918 39.816 205.729 38.0027 207.35 36.552C209.014 35.0587 211.275 34.312 214.134 34.312C215.926 34.312 217.441 34.632 218.678 35.272C219.915 35.912 220.534 36.9147 220.534 38.28C220.534 39.6027 220.129 40.7547 219.318 41.736C218.507 42.7173 217.398 43.208 215.99 43.208C214.625 43.208 213.942 42.568 213.942 41.288C213.942 40.9893 214.433 40.5413 215.414 39.944C216.395 39.3467 216.886 38.728 216.886 38.088C216.886 37.448 216.609 36.9787 216.054 36.68C215.542 36.3387 214.795 36.168 213.814 36.168C212.833 36.168 211.873 36.5093 210.934 37.192C210.038 37.8747 209.59 38.7707 209.59 39.88C209.59 40.9893 210.059 42.0347 210.998 43.016C211.937 43.9973 212.961 44.8293 214.07 45.512C215.179 46.1947 216.203 47.1547 217.142 48.392C218.081 49.5867 218.55 50.8667 218.55 52.232C218.55 53.5547 218.23 54.7493 217.59 55.816C216.993 56.8827 216.267 57.736 215.414 58.376C217.803 57.352 220.342 54.792 223.03 50.696C223.286 50.3547 223.734 49.6507 224.374 48.584C225.867 45.896 226.699 44.552 226.87 44.552C227.126 44.552 227.254 44.9573 227.254 45.768C227.254 46.536 227.041 47.2827 226.614 48.008Z" fill="#172B30"/>
</svg>
