<svg width="519" height="60" viewBox="0 0 519 60" fill="none" xmlns="http://www.w3.org/2000/svg">
<path d="M3.456 23.152C2.752 22.768 2.4 22.096 2.4 21.136C2.4 20.144 2.64 19.184 3.12 18.256C3.632 17.328 4.128 16.512 4.608 15.808C5.088 15.072 5.744 14.32 6.576 13.552C7.408 12.752 8.16 12.352 8.832 12.352C8.928 12.352 9.104 12.384 9.36 12.448C8.912 12.96 8.208 13.92 7.248 15.328C6.32 16.736 5.84 17.632 5.808 18.016H6.096C7.184 18.016 7.728 18.56 7.728 19.648C7.728 20.736 7.392 21.648 6.72 22.384C6.08 23.088 5.344 23.44 4.512 23.44C4.128 23.44 3.776 23.344 3.456 23.152ZM10.992 23.152C10.288 22.768 9.936 22.096 9.936 21.136C9.936 20.144 10.176 19.184 10.656 18.256C11.168 17.328 11.664 16.512 12.144 15.808C12.624 15.072 13.28 14.32 14.112 13.552C14.944 12.752 15.696 12.352 16.368 12.352C16.464 12.352 16.64 12.384 16.896 12.448C16.448 12.96 15.744 13.92 14.784 15.328C13.856 16.736 13.376 17.632 13.344 18.016H13.632C14.72 18.016 15.264 18.56 15.264 19.648C15.264 20.736 14.928 21.648 14.256 22.384C13.616 23.088 12.88 23.44 12.048 23.44C11.696 23.44 11.344 23.344 10.992 23.152ZM54.1943 12.496C51.1863 14.576 48.2103 17.28 45.2663 20.608C41.6183 24.736 38.7063 29.184 36.5303 33.952C35.3143 36.672 34.4183 39.408 33.8423 42.16C33.5863 43.344 33.4583 44.224 33.4583 44.8C33.4583 45.376 33.5223 45.776 33.6503 46H27.4583C27.5863 45.456 28.2103 43.472 29.3303 40.048C30.4823 36.624 31.0583 34.16 31.0583 32.656C31.0583 31.12 30.6903 29.072 29.9543 26.512C29.2183 23.952 28.2263 21.616 26.9783 19.504C25.7623 17.36 24.5783 16.288 23.4263 16.288C21.9863 16.288 20.3223 17.536 18.4343 20.032C18.4023 20.064 18.3703 20.08 18.3383 20.08C18.1783 20.08 18.0983 19.952 18.0983 19.696C18.0983 19.44 18.1143 19.296 18.1463 19.264C19.2663 16.992 20.4503 15.328 21.6983 14.272C22.9463 13.184 24.5303 12.64 26.4503 12.64C28.3703 12.64 29.7623 13.136 30.6263 14.128C31.4903 15.12 32.3543 17.12 33.2183 20.128C34.1143 23.104 34.9943 26.336 35.8583 29.824C36.5303 28.896 38.3223 26.352 41.2343 22.192C44.1463 18.032 46.2423 15.12 47.5223 13.456C48.0343 12.784 49.3463 12.448 51.4583 12.448C51.8103 12.448 52.2903 12.464 52.8983 12.496C53.5383 12.496 53.9703 12.496 54.1943 12.496ZM65.9254 34.192C66.0214 34 66.1174 33.904 66.2134 33.904C66.4054 33.904 66.5014 34.144 66.5014 34.624C66.5014 36.16 65.8774 37.44 64.6294 38.464C63.4134 39.456 62.2614 39.952 61.1734 39.952C60.1174 39.952 59.2054 39.648 58.4374 39.04C57.2854 41.312 55.9094 43.104 54.3094 44.416C52.7414 45.728 50.7094 46.384 48.2134 46.384C46.6134 46.384 45.3014 45.904 44.2774 44.944C43.2854 43.952 42.7894 42.464 42.7894 40.48C42.7894 38.464 43.2374 36.4 44.1334 34.288C45.0614 32.144 46.4374 30.304 48.2614 28.768C50.1174 27.232 52.1814 26.464 54.4534 26.464C58.2614 26.464 60.1654 28.48 60.1654 32.512C60.1654 34.048 59.8294 35.664 59.1574 37.36C59.6374 38.032 60.3254 38.368 61.2214 38.368C62.8854 38.368 64.4534 36.976 65.9254 34.192ZM57.9094 31.216C57.7814 29.52 57.0134 28.672 55.6054 28.672C53.3974 28.672 51.2374 30.816 49.1254 35.104C47.9734 37.472 47.3974 39.616 47.3974 41.536C47.3974 43.456 48.2294 44.464 49.8934 44.56C51.2694 44.56 52.5334 43.84 53.6854 42.4C54.8694 40.928 55.8614 39.312 56.6614 37.552C55.5734 36.624 55.0294 35.456 55.0294 34.048C55.0294 33.184 55.2534 32.496 55.7014 31.984C56.1814 31.472 56.8214 31.216 57.6214 31.216H57.9094ZM82.6399 26.656L84.9439 26.704C85.4239 26.704 85.7279 26.688 85.8559 26.656C84.9599 27.264 83.6639 29.392 81.9679 33.04C80.3039 36.656 79.4719 39.264 79.4719 40.864C79.4719 41.824 79.7919 42.304 80.4319 42.304C80.8479 42.304 81.4079 42.032 82.1119 41.488C82.8479 40.944 83.4719 40.352 83.9839 39.712C84.4959 39.04 85.0399 38.224 85.6159 37.264C86.2239 36.304 86.7359 35.472 87.1519 34.768C87.5999 34.064 87.8559 33.712 87.9199 33.712C88.1119 33.712 88.2079 34.016 88.2079 34.624C88.2079 35.232 88.0319 35.808 87.6799 36.352C83.7119 42.976 80.3999 46.288 77.7439 46.288C75.9519 46.288 75.0559 44.96 75.0559 42.304C75.0559 41.472 75.1199 40.672 75.2479 39.904C72.2399 44.16 69.3759 46.288 66.6559 46.288C65.8559 46.288 65.1999 45.952 64.6879 45.28C64.2079 44.608 63.9679 43.616 63.9679 42.304C63.9679 40.992 64.4319 38.832 65.3599 35.824C66.2879 32.784 67.4239 30.288 68.7679 28.336C69.0879 27.856 69.4239 27.568 69.7759 27.472C70.1599 27.344 70.8639 27.28 71.8879 27.28H74.1919C73.3919 28.368 72.5279 29.84 71.5999 31.696C69.4879 36.08 68.4319 39.296 68.4319 41.344C68.4319 42.56 68.8639 43.168 69.7279 43.168C70.6239 43.168 71.6799 42.32 72.8959 40.624C74.1119 38.928 75.4079 36.736 76.7839 34.048C78.1919 31.328 79.0079 29.792 79.2319 29.44C80.4159 27.584 81.5519 26.656 82.6399 26.656ZM98.8264 26.704L101.274 26.752H101.754C101.274 27.104 100.586 28.144 99.6904 29.872C98.8264 31.6 98.1704 32.912 97.7224 33.808C97.3064 34.672 96.8264 35.856 96.2824 37.36C95.7704 38.832 95.5144 40.032 95.5144 40.96C95.5144 41.888 95.8344 42.352 96.4744 42.352C96.8904 42.32 97.4664 42.032 98.2024 41.488C98.9704 40.912 99.5944 40.32 100.074 39.712C100.586 39.072 101.13 38.272 101.706 37.312C102.314 36.32 102.826 35.472 103.242 34.768C103.69 34.032 103.946 33.664 104.01 33.664C104.234 33.664 104.346 33.968 104.346 34.576C104.346 35.152 104.186 35.712 103.866 36.256C102.49 38.528 101.354 40.272 100.458 41.488C99.5624 42.704 98.4744 43.824 97.1944 44.848C95.9464 45.84 94.8104 46.336 93.7864 46.336C91.9624 46.336 91.0504 44.992 91.0504 42.304C91.0504 40.48 91.4024 38.416 92.1064 36.112C92.8104 33.808 93.8504 31.584 95.2264 29.44C94.1064 30.336 92.9864 30.784 91.8664 30.784C91.5144 30.784 91.1464 30.704 90.7624 30.544C88.4904 35.024 87.2584 37.264 87.0664 37.264C86.9064 37.264 86.8264 37.008 86.8264 36.496C86.8264 35.952 87.0184 35.216 87.4024 34.288C87.8184 33.328 88.2504 32.416 88.6984 31.552C89.1784 30.688 89.4344 30.208 89.4664 30.112C88.3144 29.536 87.7384 28.608 87.7384 27.328C87.7384 26.688 87.9304 26.112 88.3144 25.6C88.7304 25.088 89.2904 24.832 89.9944 24.832C90.6984 24.832 91.2744 25.056 91.7224 25.504C91.6584 25.696 91.6264 25.984 91.6264 26.368C91.6264 27.232 91.9304 27.92 92.5384 28.432C93.1784 28.912 93.9464 29.152 94.8424 29.152C95.0984 29.152 95.2904 29.136 95.4184 29.104C96.5384 27.504 97.6744 26.704 98.8264 26.704ZM150.126 36.352C148.942 38.336 147.854 40 146.862 41.344C145.902 42.656 144.798 43.808 143.55 44.8C142.302 45.792 141.166 46.288 140.142 46.288C138.254 46.288 137.31 45.2 137.31 43.024C137.31 40.496 138.318 36.896 140.334 32.224C140.782 31.04 141.006 30.224 141.006 29.776C141.006 29.136 140.718 28.816 140.142 28.816C139.79 28.816 139.182 29.024 138.318 29.44C137.454 29.856 136.622 30.48 135.822 31.312C135.054 32.144 134.43 32.912 133.95 33.616C133.47 34.32 132.942 35.376 132.366 36.784C131.79 38.192 131.406 39.184 131.214 39.76C130.286 42.64 129.662 44.72 129.342 46H124.638C126.302 41.392 127.438 38.288 128.046 36.688C128.686 35.088 129.07 34.096 129.198 33.712L129.63 32.368C129.982 31.344 130.158 30.496 130.158 29.824C130.158 29.152 129.854 28.816 129.246 28.816C128.734 28.816 128.03 29.04 127.134 29.488C126.27 29.936 125.422 30.592 124.59 31.456C123.758 32.32 123.054 33.328 122.478 34.48C121.934 35.6 121.486 36.576 121.134 37.408C120.814 38.24 120.478 39.264 120.126 40.48C119.774 41.664 119.454 42.64 119.166 43.408C118.91 44.144 118.638 45.008 118.35 46H113.694C114.046 44.656 114.43 43.456 114.846 42.4L117.966 34.432C119.246 31.232 119.886 28.896 119.886 27.424C119.886 27.104 119.854 26.896 119.79 26.8H121.806C122.894 26.8 123.598 26.912 123.918 27.136C124.238 27.328 124.398 27.6 124.398 27.952C124.398 28.304 124.206 29.12 123.822 30.4C126.638 27.84 129.454 26.56 132.27 26.56C133.966 26.56 134.814 27.264 134.814 28.672C134.814 29.28 134.638 30.032 134.286 30.928C137.198 28.016 140.19 26.56 143.262 26.56C144.926 26.56 145.758 27.264 145.758 28.672C145.758 29.312 145.646 29.92 145.422 30.496C145.198 31.072 144.91 31.824 144.558 32.752C144.206 33.648 143.918 34.4 143.694 35.008C143.47 35.584 143.214 36.304 142.926 37.168C142.318 38.928 142.014 40.24 142.014 41.104C142.014 41.936 142.27 42.352 142.782 42.352C143.326 42.352 143.998 42 144.798 41.296C145.598 40.592 146.19 39.984 146.574 39.472C146.99 38.96 147.486 38.24 148.062 37.312C148.67 36.352 149.182 35.52 149.598 34.816C150.014 34.112 150.254 33.76 150.318 33.76C150.51 33.76 150.606 34.064 150.606 34.672C150.606 35.248 150.446 35.808 150.126 36.352ZM171.488 34.192C171.584 34 171.68 33.904 171.776 33.904C171.968 33.904 172.064 34.144 172.064 34.624C172.064 36.16 171.44 37.44 170.192 38.464C168.976 39.456 167.824 39.952 166.736 39.952C165.68 39.952 164.768 39.648 164 39.04C162.848 41.312 161.472 43.104 159.872 44.416C158.304 45.728 156.272 46.384 153.776 46.384C152.176 46.384 150.864 45.904 149.84 44.944C148.848 43.952 148.352 42.464 148.352 40.48C148.352 38.464 148.8 36.4 149.696 34.288C150.624 32.144 152 30.304 153.824 28.768C155.68 27.232 157.744 26.464 160.016 26.464C163.824 26.464 165.728 28.48 165.728 32.512C165.728 34.048 165.392 35.664 164.72 37.36C165.2 38.032 165.888 38.368 166.784 38.368C168.448 38.368 170.016 36.976 171.488 34.192ZM163.472 31.216C163.344 29.52 162.576 28.672 161.168 28.672C158.96 28.672 156.8 30.816 154.688 35.104C153.536 37.472 152.96 39.616 152.96 41.536C152.96 43.456 153.792 44.464 155.456 44.56C156.832 44.56 158.096 43.84 159.248 42.4C160.432 40.928 161.424 39.312 162.224 37.552C161.136 36.624 160.592 35.456 160.592 34.048C160.592 33.184 160.816 32.496 161.264 31.984C161.744 31.472 162.384 31.216 163.184 31.216H163.472ZM203.61 36.352C202.426 38.336 201.338 40 200.346 41.344C199.386 42.656 198.282 43.808 197.034 44.8C195.786 45.792 194.65 46.288 193.626 46.288C191.738 46.288 190.794 45.2 190.794 43.024C190.794 40.496 191.802 36.896 193.818 32.224C194.266 31.04 194.49 30.224 194.49 29.776C194.49 29.136 194.202 28.816 193.626 28.816C193.274 28.816 192.666 29.024 191.802 29.44C190.938 29.856 190.106 30.48 189.306 31.312C188.538 32.144 187.914 32.912 187.434 33.616C186.954 34.32 186.426 35.376 185.85 36.784C185.274 38.192 184.89 39.184 184.698 39.76C183.77 42.64 183.146 44.72 182.826 46H178.122C179.786 41.392 180.922 38.288 181.53 36.688C182.17 35.088 182.554 34.096 182.682 33.712L183.114 32.368C183.466 31.344 183.642 30.496 183.642 29.824C183.642 29.152 183.338 28.816 182.73 28.816C182.218 28.816 181.514 29.04 180.618 29.488C179.754 29.936 178.906 30.592 178.074 31.456C177.242 32.32 176.538 33.328 175.962 34.48C175.418 35.6 174.97 36.576 174.618 37.408C174.298 38.24 173.962 39.264 173.61 40.48C173.258 41.664 172.938 42.64 172.65 43.408C172.394 44.144 172.122 45.008 171.834 46H167.178C167.53 44.656 167.914 43.456 168.33 42.4L171.45 34.432C172.73 31.232 173.37 28.896 173.37 27.424C173.37 27.104 173.338 26.896 173.274 26.8H175.29C176.378 26.8 177.082 26.912 177.402 27.136C177.722 27.328 177.882 27.6 177.882 27.952C177.882 28.304 177.69 29.12 177.306 30.4C180.122 27.84 182.938 26.56 185.754 26.56C187.45 26.56 188.298 27.264 188.298 28.672C188.298 29.28 188.122 30.032 187.77 30.928C190.682 28.016 193.674 26.56 196.746 26.56C198.41 26.56 199.242 27.264 199.242 28.672C199.242 29.312 199.13 29.92 198.906 30.496C198.682 31.072 198.394 31.824 198.042 32.752C197.69 33.648 197.402 34.4 197.178 35.008C196.954 35.584 196.698 36.304 196.41 37.168C195.802 38.928 195.498 40.24 195.498 41.104C195.498 41.936 195.754 42.352 196.266 42.352C196.81 42.352 197.482 42 198.282 41.296C199.082 40.592 199.674 39.984 200.058 39.472C200.474 38.96 200.97 38.24 201.546 37.312C202.154 36.352 202.666 35.52 203.082 34.816C203.498 34.112 203.738 33.76 203.802 33.76C203.994 33.76 204.09 34.064 204.09 34.672C204.09 35.248 203.93 35.808 203.61 36.352ZM221.084 33.52C221.276 33.52 221.372 33.84 221.372 34.48C221.372 35.088 221.116 35.824 220.604 36.688C220.092 37.552 219.58 38.368 219.068 39.136C218.588 39.904 217.932 40.8 217.1 41.824C216.268 42.848 215.452 43.664 214.652 44.272C212.636 45.744 210.604 46.48 208.556 46.48C206.54 46.48 204.908 45.968 203.66 44.944C202.412 43.888 201.788 42.288 201.788 40.144C201.788 36.88 202.988 33.856 205.388 31.072C207.788 28.288 210.588 26.896 213.788 26.896C215.228 26.896 216.38 27.28 217.244 28.048C218.108 28.784 218.54 29.68 218.54 30.736C218.54 32.528 217.692 33.968 215.996 35.056C214.3 36.144 212.3 36.688 209.996 36.688C208.652 36.688 207.66 36.512 207.02 36.16C206.412 37.792 206.108 39.232 206.108 40.48C206.108 43.168 207.244 44.512 209.516 44.512C210.86 44.512 212.236 44 213.644 42.976C215.084 41.92 216.3 40.752 217.292 39.472C218.316 38.16 219.468 36.288 220.748 33.856C220.876 33.632 220.988 33.52 221.084 33.52ZM215.996 29.728C215.996 28.8 215.548 28.336 214.652 28.336C213.404 28.336 212.012 29.104 210.476 30.64C208.94 32.176 208.172 33.424 208.172 34.384C208.172 35.024 208.78 35.344 209.996 35.344C211.212 35.344 212.476 34.752 213.788 33.568C215.132 32.384 215.868 31.104 215.996 29.728ZM241.743 36.352C240.559 38.336 239.471 40 238.479 41.344C237.519 42.656 236.415 43.808 235.167 44.8C233.919 45.792 232.783 46.288 231.759 46.288C229.871 46.288 228.927 45.248 228.927 43.168C228.927 41.088 230.127 36.912 232.527 30.64C232.655 30.352 232.719 30.048 232.719 29.728C232.719 29.056 232.287 28.72 231.423 28.72C230.591 28.72 229.759 28.992 228.927 29.536C228.127 30.048 227.391 30.8 226.719 31.792C226.047 32.752 225.439 33.744 224.895 34.768C224.351 35.76 223.839 36.912 223.359 38.224C222.911 39.536 222.543 40.64 222.255 41.536C221.999 42.4 221.727 43.344 221.439 44.368C221.183 45.36 221.039 45.904 221.007 46H216.351C216.351 45.328 217.759 41.472 220.575 34.432C221.727 31.136 222.303 28.832 222.303 27.52C222.303 27.2 222.255 26.96 222.159 26.8H224.175C225.295 26.8 226.015 26.912 226.335 27.136C226.655 27.36 226.815 27.664 226.815 28.048C226.815 28.432 226.639 29.216 226.287 30.4C228.975 27.84 231.679 26.56 234.399 26.56C236.223 26.56 237.135 27.392 237.135 29.056C237.135 29.6 237.055 30.144 236.895 30.688C236.735 31.232 236.335 32.32 235.695 33.952C234.287 37.536 233.583 39.936 233.583 41.152C233.583 41.92 233.871 42.304 234.447 42.304C234.863 42.304 235.439 42.016 236.175 41.44C236.943 40.864 237.567 40.272 238.047 39.664C238.559 39.024 239.103 38.24 239.679 37.312C240.287 36.352 240.799 35.52 241.215 34.816C241.631 34.112 241.871 33.76 241.935 33.76C242.127 33.76 242.223 34.064 242.223 34.672C242.223 35.248 242.063 35.808 241.743 36.352ZM254.874 18.496C253.306 19.584 251.546 22.368 249.594 26.848H254.442L254.49 26.896C254.49 27.056 254.314 27.344 253.962 27.76C253.61 28.144 253.306 28.336 253.05 28.336H248.922C246.394 34.608 245.13 38.64 245.13 40.432C245.13 41.648 245.514 42.256 246.282 42.256C247.402 42.256 248.714 41.296 250.218 39.376C250.57 38.96 251.034 38.256 251.61 37.264C253.082 34.896 253.85 33.712 253.914 33.712C254.106 33.712 254.202 33.968 254.202 34.48C254.17 35.696 252.842 38.064 250.218 41.584C249.354 42.736 248.314 43.808 247.098 44.8C245.882 45.792 244.778 46.288 243.786 46.288C241.962 46.288 241.05 45.008 241.05 42.448C241.05 40.304 241.562 37.84 242.586 35.056V35.008C241.978 36.128 241.45 36.96 241.002 37.504C240.586 38.048 240.346 38.32 240.282 38.32C240.154 38.32 240.09 38.128 240.09 37.744C240.09 37.328 240.298 36.672 240.714 35.776C241.162 34.88 241.754 33.712 242.49 32.272C243.258 30.832 243.882 29.52 244.362 28.336H241.146C241.05 28.336 241.002 28.272 241.002 28.144C241.002 27.984 241.114 27.728 241.338 27.376C241.594 27.024 241.786 26.848 241.914 26.848H245.562C247.866 21.312 250.202 18.544 252.57 18.544C253.946 18.544 254.714 18.528 254.874 18.496ZM271.867 36.256C269.467 40.256 267.291 43.04 265.339 44.608C263.387 46.176 260.859 46.96 257.755 46.96C255.963 46.96 254.459 46.624 253.243 45.952C252.027 45.248 251.419 44.224 251.419 42.88C251.419 42.112 251.643 41.408 252.091 40.768C252.539 40.128 253.147 39.808 253.915 39.808C254.715 39.808 255.227 40.096 255.451 40.672C254.843 41.28 254.539 41.984 254.539 42.784C254.539 44.384 255.435 45.184 257.227 45.184C258.283 45.184 259.195 44.816 259.963 44.08C260.763 43.344 261.163 42.544 261.163 41.68C261.163 40.784 260.971 40 260.587 39.328C260.203 38.656 259.739 38.064 259.195 37.552C258.651 37.04 258.107 36.528 257.563 36.016C256.251 34.768 255.595 33.344 255.595 31.744C255.595 30.112 256.203 28.752 257.419 27.664C258.667 26.544 260.363 25.984 262.507 25.984C263.851 25.984 264.987 26.224 265.915 26.704C266.843 27.184 267.307 27.936 267.307 28.96C267.307 29.952 267.003 30.816 266.395 31.552C265.787 32.288 264.955 32.656 263.899 32.656C262.875 32.656 262.363 32.176 262.363 31.216C262.363 30.992 262.731 30.656 263.467 30.208C264.203 29.76 264.571 29.296 264.571 28.816C264.571 28.336 264.363 27.984 263.947 27.76C263.563 27.504 263.003 27.376 262.267 27.376C261.531 27.376 260.811 27.632 260.107 28.144C259.435 28.656 259.099 29.328 259.099 30.16C259.099 30.992 259.451 31.776 260.155 32.512C260.859 33.248 261.627 33.872 262.459 34.384C263.291 34.896 264.059 35.616 264.763 36.544C265.467 37.44 265.819 38.4 265.819 39.424C265.819 40.416 265.579 41.312 265.099 42.112C264.651 42.912 264.107 43.552 263.467 44.032C265.259 43.264 267.163 41.344 269.179 38.272C269.371 38.016 269.707 37.488 270.187 36.688C271.307 34.672 271.931 33.664 272.059 33.664C272.251 33.664 272.347 33.968 272.347 34.576C272.347 35.152 272.187 35.712 271.867 36.256ZM280.167 42.928C279.271 45.008 278.055 47.104 276.519 49.216C275.015 51.36 273.863 52.432 273.063 52.432C272.839 52.432 272.615 52.368 272.391 52.24C274.343 49.328 275.575 46.192 276.087 42.832C276.119 42.416 276.807 42.208 278.151 42.208C279.495 42.208 280.167 42.416 280.167 42.832V42.928ZM320.597 34.192C320.693 34 320.789 33.904 320.885 33.904C321.077 33.904 321.173 34.144 321.173 34.624C321.173 36.16 320.549 37.44 319.301 38.464C318.085 39.456 316.933 39.952 315.845 39.952C314.789 39.952 313.877 39.648 313.109 39.04C311.957 41.312 310.581 43.104 308.981 44.416C307.413 45.728 305.381 46.384 302.885 46.384C301.285 46.384 299.973 45.904 298.949 44.944C297.957 43.952 297.461 42.464 297.461 40.48C297.461 38.464 297.909 36.4 298.805 34.288C299.733 32.144 301.109 30.304 302.933 28.768C304.789 27.232 306.853 26.464 309.125 26.464C312.933 26.464 314.837 28.48 314.837 32.512C314.837 34.048 314.501 35.664 313.829 37.36C314.309 38.032 314.997 38.368 315.893 38.368C317.557 38.368 319.125 36.976 320.597 34.192ZM312.581 31.216C312.453 29.52 311.685 28.672 310.277 28.672C308.069 28.672 305.909 30.816 303.797 35.104C302.645 37.472 302.069 39.616 302.069 41.536C302.069 43.456 302.901 44.464 304.565 44.56C305.941 44.56 307.205 43.84 308.357 42.4C309.541 40.928 310.533 39.312 311.333 37.552C310.245 36.624 309.701 35.456 309.701 34.048C309.701 33.184 309.925 32.496 310.373 31.984C310.853 31.472 311.493 31.216 312.293 31.216H312.581ZM337.312 26.656L339.616 26.704C340.096 26.704 340.4 26.688 340.528 26.656C339.632 27.264 338.336 29.392 336.64 33.04C334.976 36.656 334.144 39.264 334.144 40.864C334.144 41.824 334.464 42.304 335.104 42.304C335.52 42.304 336.08 42.032 336.784 41.488C337.52 40.944 338.144 40.352 338.656 39.712C339.168 39.04 339.712 38.224 340.288 37.264C340.896 36.304 341.408 35.472 341.824 34.768C342.272 34.064 342.528 33.712 342.592 33.712C342.784 33.712 342.88 34.016 342.88 34.624C342.88 35.232 342.704 35.808 342.352 36.352C338.384 42.976 335.072 46.288 332.416 46.288C330.624 46.288 329.728 44.96 329.728 42.304C329.728 41.472 329.792 40.672 329.92 39.904C326.912 44.16 324.048 46.288 321.328 46.288C320.528 46.288 319.872 45.952 319.36 45.28C318.88 44.608 318.64 43.616 318.64 42.304C318.64 40.992 319.104 38.832 320.032 35.824C320.96 32.784 322.096 30.288 323.44 28.336C323.76 27.856 324.096 27.568 324.448 27.472C324.832 27.344 325.536 27.28 326.56 27.28H328.864C328.064 28.368 327.2 29.84 326.272 31.696C324.16 36.08 323.104 39.296 323.104 41.344C323.104 42.56 323.536 43.168 324.4 43.168C325.296 43.168 326.352 42.32 327.568 40.624C328.784 38.928 330.08 36.736 331.456 34.048C332.864 31.328 333.68 29.792 333.904 29.44C335.088 27.584 336.224 26.656 337.312 26.656ZM353.498 26.704L355.946 26.752H356.426C355.946 27.104 355.258 28.144 354.362 29.872C353.498 31.6 352.842 32.912 352.394 33.808C351.978 34.672 351.498 35.856 350.954 37.36C350.442 38.832 350.186 40.032 350.186 40.96C350.186 41.888 350.506 42.352 351.146 42.352C351.562 42.32 352.138 42.032 352.874 41.488C353.642 40.912 354.266 40.32 354.746 39.712C355.258 39.072 355.802 38.272 356.378 37.312C356.986 36.32 357.498 35.472 357.914 34.768C358.362 34.032 358.618 33.664 358.682 33.664C358.906 33.664 359.018 33.968 359.018 34.576C359.018 35.152 358.858 35.712 358.538 36.256C357.162 38.528 356.026 40.272 355.13 41.488C354.234 42.704 353.146 43.824 351.866 44.848C350.618 45.84 349.482 46.336 348.458 46.336C346.634 46.336 345.722 44.992 345.722 42.304C345.722 40.48 346.074 38.416 346.778 36.112C347.482 33.808 348.522 31.584 349.898 29.44C348.778 30.336 347.658 30.784 346.538 30.784C346.186 30.784 345.818 30.704 345.434 30.544C343.162 35.024 341.93 37.264 341.738 37.264C341.578 37.264 341.498 37.008 341.498 36.496C341.498 35.952 341.69 35.216 342.074 34.288C342.49 33.328 342.922 32.416 343.37 31.552C343.85 30.688 344.106 30.208 344.138 30.112C342.986 29.536 342.41 28.608 342.41 27.328C342.41 26.688 342.602 26.112 342.986 25.6C343.402 25.088 343.962 24.832 344.666 24.832C345.37 24.832 345.946 25.056 346.394 25.504C346.33 25.696 346.298 25.984 346.298 26.368C346.298 27.232 346.602 27.92 347.21 28.432C347.85 28.912 348.618 29.152 349.514 29.152C349.77 29.152 349.962 29.136 350.09 29.104C351.21 27.504 352.346 26.704 353.498 26.704ZM392.126 35.728C390.206 39.248 388.126 41.984 385.886 43.936C383.646 45.888 380.99 46.864 377.918 46.864C374.846 46.864 373.118 46.08 372.734 44.512L370.046 52.912C369.406 54.8 368.926 56.016 368.606 56.56C368.254 57.136 367.87 57.504 367.454 57.664C367.038 57.824 366.51 57.904 365.87 57.904H363.566C364.398 56.688 366.078 52.496 368.606 45.328C371.134 38.128 372.798 33.536 373.598 31.552C374.43 29.568 375.038 28.368 375.422 27.952C376.19 27.184 377.518 26.8 379.406 26.8H380.846C379.918 27.44 378.654 29.36 377.054 32.56C380.03 28.592 382.654 26.608 384.926 26.608C387.07 26.608 388.142 28.08 388.142 31.024C388.142 33.456 387.374 35.952 385.838 38.512C384.302 41.072 382.494 43.056 380.414 44.464H380.798C382.11 44.464 383.438 43.936 384.782 42.88C386.158 41.824 387.342 40.656 388.334 39.376C388.878 38.672 389.646 37.488 390.638 35.824C391.63 34.128 392.158 33.28 392.222 33.28C392.478 33.28 392.606 33.552 392.606 34.096C392.606 34.64 392.446 35.184 392.126 35.728ZM382.766 30.688C382.67 30.656 382.526 30.64 382.334 30.64C381.662 30.64 380.926 30.96 380.126 31.6C378.814 32.624 377.422 34.32 375.95 36.688C374.478 39.056 373.742 40.992 373.742 42.496C373.742 44 374.206 44.752 375.134 44.752C376.798 44.752 378.606 43.104 380.558 39.808C382.51 36.512 383.486 33.936 383.486 32.08C383.486 31.28 383.246 30.816 382.766 30.688ZM409.673 26.8L412.073 26.848H412.552C411.497 27.712 410.201 29.904 408.665 33.424C407.129 36.912 406.361 39.456 406.361 41.056C406.361 41.888 406.649 42.304 407.225 42.304C409.081 42.304 411.449 39.568 414.329 34.096C414.457 33.872 414.569 33.76 414.665 33.76C414.857 33.76 414.953 34.064 414.953 34.672C414.953 35.248 414.793 35.808 414.473 36.352C410.537 42.976 407.241 46.288 404.585 46.288C402.857 46.288 401.993 44.96 401.993 42.304C401.993 40.32 402.329 38.368 403.001 36.448C399.353 42.912 395.977 46.144 392.873 46.144C390.729 46.144 389.657 44.672 389.657 41.728C389.657 39.488 390.137 37.216 391.097 34.912C392.089 32.608 393.497 30.656 395.321 29.056C397.145 27.424 399.145 26.608 401.321 26.608C402.345 26.608 403.305 26.848 404.201 27.328C405.097 27.776 405.689 28.512 405.977 29.536C406.329 28.8 406.873 28.16 407.609 27.616C408.345 27.072 409.033 26.8 409.673 26.8ZM405.689 29.968C405.369 28.944 404.617 28.432 403.433 28.432C401.321 28.432 399.273 29.904 397.289 32.848C395.305 35.76 394.312 38.368 394.312 40.672C394.312 41.664 394.697 42.16 395.465 42.16C396.297 42.16 397.273 41.648 398.393 40.624C399.513 39.568 400.521 38.336 401.417 36.928C403.401 33.792 404.825 31.472 405.689 29.968ZM432.648 36.256C430.248 40.256 428.072 43.04 426.12 44.608C424.168 46.176 421.64 46.96 418.536 46.96C416.744 46.96 415.24 46.624 414.024 45.952C412.808 45.248 412.2 44.224 412.2 42.88C412.2 42.112 412.424 41.408 412.872 40.768C413.32 40.128 413.928 39.808 414.696 39.808C415.496 39.808 416.008 40.096 416.232 40.672C415.624 41.28 415.32 41.984 415.32 42.784C415.32 44.384 416.216 45.184 418.008 45.184C419.064 45.184 419.976 44.816 420.744 44.08C421.544 43.344 421.944 42.544 421.944 41.68C421.944 40.784 421.752 40 421.368 39.328C420.984 38.656 420.52 38.064 419.976 37.552C419.432 37.04 418.888 36.528 418.344 36.016C417.032 34.768 416.376 33.344 416.376 31.744C416.376 30.112 416.984 28.752 418.2 27.664C419.448 26.544 421.144 25.984 423.288 25.984C424.632 25.984 425.768 26.224 426.696 26.704C427.624 27.184 428.088 27.936 428.088 28.96C428.088 29.952 427.784 30.816 427.176 31.552C426.568 32.288 425.736 32.656 424.68 32.656C423.656 32.656 423.144 32.176 423.144 31.216C423.144 30.992 423.512 30.656 424.248 30.208C424.984 29.76 425.352 29.296 425.352 28.816C425.352 28.336 425.144 27.984 424.728 27.76C424.344 27.504 423.784 27.376 423.048 27.376C422.312 27.376 421.592 27.632 420.888 28.144C420.216 28.656 419.88 29.328 419.88 30.16C419.88 30.992 420.232 31.776 420.936 32.512C421.64 33.248 422.408 33.872 423.24 34.384C424.072 34.896 424.84 35.616 425.544 36.544C426.248 37.44 426.6 38.4 426.6 39.424C426.6 40.416 426.36 41.312 425.88 42.112C425.432 42.912 424.888 43.552 424.248 44.032C426.04 43.264 427.944 41.344 429.96 38.272C430.152 38.016 430.488 37.488 430.968 36.688C432.088 34.672 432.712 33.664 432.84 33.664C433.032 33.664 433.128 33.968 433.128 34.576C433.128 35.152 432.968 35.712 432.648 36.256ZM450.789 36.256C448.389 40.256 446.213 43.04 444.261 44.608C442.309 46.176 439.781 46.96 436.677 46.96C434.885 46.96 433.381 46.624 432.165 45.952C430.949 45.248 430.341 44.224 430.341 42.88C430.341 42.112 430.565 41.408 431.013 40.768C431.461 40.128 432.069 39.808 432.837 39.808C433.637 39.808 434.149 40.096 434.373 40.672C433.765 41.28 433.461 41.984 433.461 42.784C433.461 44.384 434.357 45.184 436.149 45.184C437.205 45.184 438.117 44.816 438.885 44.08C439.685 43.344 440.085 42.544 440.085 41.68C440.085 40.784 439.893 40 439.509 39.328C439.125 38.656 438.661 38.064 438.117 37.552C437.573 37.04 437.029 36.528 436.485 36.016C435.173 34.768 434.517 33.344 434.517 31.744C434.517 30.112 435.125 28.752 436.341 27.664C437.589 26.544 439.285 25.984 441.429 25.984C442.773 25.984 443.909 26.224 444.837 26.704C445.765 27.184 446.229 27.936 446.229 28.96C446.229 29.952 445.925 30.816 445.317 31.552C444.709 32.288 443.877 32.656 442.821 32.656C441.797 32.656 441.285 32.176 441.285 31.216C441.285 30.992 441.653 30.656 442.389 30.208C443.125 29.76 443.493 29.296 443.493 28.816C443.493 28.336 443.285 27.984 442.869 27.76C442.485 27.504 441.925 27.376 441.189 27.376C440.453 27.376 439.733 27.632 439.029 28.144C438.357 28.656 438.021 29.328 438.021 30.16C438.021 30.992 438.373 31.776 439.077 32.512C439.781 33.248 440.549 33.872 441.381 34.384C442.213 34.896 442.981 35.616 443.685 36.544C444.389 37.44 444.741 38.4 444.741 39.424C444.741 40.416 444.501 41.312 444.021 42.112C443.573 42.912 443.029 43.552 442.389 44.032C444.181 43.264 446.085 41.344 448.101 38.272C448.293 38.016 448.629 37.488 449.109 36.688C450.229 34.672 450.853 33.664 450.981 33.664C451.173 33.664 451.269 33.968 451.269 34.576C451.269 35.152 451.109 35.712 450.789 36.256ZM462.737 20.464H462.545C461.905 20.464 461.281 20.736 460.673 21.28C460.097 21.824 459.681 22.384 459.425 22.96C458.593 22.64 458.177 22.064 458.177 21.232C458.177 20.4 458.561 19.568 459.329 18.736C460.097 17.872 460.833 17.44 461.537 17.44C462.241 17.44 462.769 17.6 463.121 17.92C463.473 18.24 463.649 18.656 463.649 19.168C463.649 19.648 463.345 20.08 462.737 20.464ZM456.209 26.8L458.609 26.848H459.089C458.577 27.232 457.889 28.272 457.025 29.968C456.193 31.664 455.569 32.944 455.153 33.808C454.737 34.672 454.257 35.84 453.713 37.312C453.201 38.784 452.945 39.984 452.945 40.912C452.945 41.84 453.249 42.304 453.857 42.304C454.273 42.304 454.849 42.032 455.585 41.488C456.353 40.912 456.977 40.32 457.457 39.712C457.937 39.072 458.465 38.272 459.041 37.312C459.649 36.352 460.161 35.52 460.577 34.816C461.025 34.112 461.281 33.76 461.345 33.76C461.537 33.76 461.633 34.064 461.633 34.672C461.633 35.248 461.473 35.808 461.153 36.352C459.969 38.336 458.881 40 457.889 41.344C456.929 42.656 455.825 43.808 454.577 44.8C453.329 45.792 452.193 46.288 451.169 46.288C449.377 46.288 448.481 45.04 448.481 42.544C448.481 38.672 449.809 34.384 452.465 29.68C453.585 27.76 454.833 26.8 456.209 26.8ZM482.504 34.192C482.6 34 482.696 33.904 482.792 33.904C482.984 33.904 483.08 34.144 483.08 34.624C483.08 36.16 482.456 37.44 481.208 38.464C479.992 39.456 478.84 39.952 477.752 39.952C476.696 39.952 475.784 39.648 475.016 39.04C473.864 41.312 472.488 43.104 470.888 44.416C469.32 45.728 467.288 46.384 464.792 46.384C463.192 46.384 461.88 45.904 460.855 44.944C459.863 43.952 459.368 42.464 459.368 40.48C459.368 38.464 459.816 36.4 460.712 34.288C461.64 32.144 463.016 30.304 464.84 28.768C466.696 27.232 468.76 26.464 471.032 26.464C474.84 26.464 476.744 28.48 476.744 32.512C476.744 34.048 476.408 35.664 475.736 37.36C476.216 38.032 476.904 38.368 477.8 38.368C479.464 38.368 481.032 36.976 482.504 34.192ZM474.488 31.216C474.36 29.52 473.592 28.672 472.184 28.672C469.976 28.672 467.816 30.816 465.704 35.104C464.552 37.472 463.976 39.616 463.976 41.536C463.976 43.456 464.808 44.464 466.472 44.56C467.848 44.56 469.112 43.84 470.264 42.4C471.448 40.928 472.44 39.312 473.24 37.552C472.152 36.624 471.608 35.456 471.608 34.048C471.608 33.184 471.832 32.496 472.28 31.984C472.76 31.472 473.4 31.216 474.2 31.216H474.488ZM503.634 36.352C502.45 38.336 501.362 40 500.37 41.344C499.41 42.656 498.306 43.808 497.058 44.8C495.81 45.792 494.674 46.288 493.65 46.288C491.762 46.288 490.818 45.248 490.818 43.168C490.818 41.088 492.018 36.912 494.418 30.64C494.546 30.352 494.61 30.048 494.61 29.728C494.61 29.056 494.178 28.72 493.314 28.72C492.482 28.72 491.65 28.992 490.818 29.536C490.018 30.048 489.282 30.8 488.61 31.792C487.938 32.752 487.33 33.744 486.786 34.768C486.242 35.76 485.73 36.912 485.25 38.224C484.802 39.536 484.434 40.64 484.146 41.536C483.89 42.4 483.618 43.344 483.33 44.368C483.074 45.36 482.93 45.904 482.898 46H478.242C478.242 45.328 479.65 41.472 482.466 34.432C483.618 31.136 484.194 28.832 484.194 27.52C484.194 27.2 484.146 26.96 484.05 26.8H486.066C487.186 26.8 487.906 26.912 488.226 27.136C488.546 27.36 488.706 27.664 488.706 28.048C488.706 28.432 488.53 29.216 488.178 30.4C490.866 27.84 493.57 26.56 496.29 26.56C498.114 26.56 499.026 27.392 499.026 29.056C499.026 29.6 498.946 30.144 498.786 30.688C498.626 31.232 498.226 32.32 497.586 33.952C496.178 37.536 495.474 39.936 495.474 41.152C495.474 41.92 495.762 42.304 496.338 42.304C496.754 42.304 497.33 42.016 498.066 41.44C498.834 40.864 499.458 40.272 499.938 39.664C500.45 39.024 500.994 38.24 501.57 37.312C502.178 36.352 502.69 35.52 503.106 34.816C503.522 34.112 503.762 33.76 503.826 33.76C504.018 33.76 504.114 34.064 504.114 34.672C504.114 35.248 503.954 35.808 503.634 36.352ZM508.988 12.352C509.692 12.768 510.044 13.456 510.044 14.416C510.044 15.376 509.788 16.32 509.276 17.248C508.796 18.176 508.316 19.008 507.836 19.744C507.356 20.448 506.7 21.2 505.868 22C505.036 22.768 504.284 23.152 503.612 23.152C503.452 23.152 503.276 23.12 503.084 23.056C503.532 22.544 504.22 21.584 505.148 20.176C506.108 18.768 506.604 17.872 506.636 17.488H506.348C505.26 17.488 504.716 16.88 504.716 15.664C504.716 14.736 505.036 13.904 505.676 13.168C506.348 12.432 507.1 12.064 507.932 12.064C508.316 12.064 508.668 12.16 508.988 12.352ZM516.38 12.352C517.084 12.768 517.436 13.456 517.436 14.416C517.436 15.376 517.18 16.32 516.668 17.248C516.188 18.176 515.708 19.008 515.228 19.744C514.748 20.448 514.092 21.2 513.26 22C512.428 22.768 511.676 23.152 511.004 23.152C510.844 23.152 510.668 23.12 510.476 23.056C510.924 22.544 511.612 21.584 512.54 20.176C513.5 18.768 513.996 17.872 514.028 17.488H513.74C512.652 17.488 512.108 16.88 512.108 15.664C512.108 14.736 512.428 13.904 513.068 13.168C513.74 12.432 514.492 12.064 515.324 12.064C515.708 12.064 516.06 12.16 516.38 12.352Z" fill="#172B30"/>
</svg>
