<svg width="557" height="90" viewBox="0 0 557 90" fill="none" xmlns="http://www.w3.org/2000/svg">
<path d="M0.84375 18.2969C0.84375 17.4219 0.953125 16.4688 1.17188 15.4375C1.42188 14.375 1.79688 13.4062 2.29688 12.5312C2.82812 11.625 3.48438 10.875 4.26562 10.2812C5.04688 9.6875 5.98438 9.39062 7.07812 9.39062C7.07812 10.2344 6.90625 11.0312 6.5625 11.7812C6.25 12.5312 5.89062 13.2812 5.48438 14.0312C5.10938 14.75 4.75 15.4844 4.40625 16.2344C4.09375 16.9531 3.9375 17.7188 3.9375 18.5312C3.9375 18.875 4 19.1562 4.125 19.375C4.28125 19.5625 4.4375 19.75 4.59375 19.9375C4.75 20.125 4.89062 20.3281 5.01562 20.5469C5.17188 20.7656 5.25 21.0469 5.25 21.3906C5.25 21.5469 5.23438 21.7188 5.20312 21.9062C5.20312 22.0938 5.15625 22.2656 5.0625 22.4219C5 22.5781 4.875 22.7031 4.6875 22.7969C4.53125 22.8594 4.28125 22.8594 3.9375 22.7969C3.21875 22.6719 2.64062 22.4844 2.20312 22.2344C1.79688 21.9531 1.48438 21.625 1.26562 21.25C1.07812 20.875 0.953125 20.4375 0.890625 19.9375C0.859375 19.4375 0.84375 18.8906 0.84375 18.2969ZM9.98438 15.5312C9.98438 14.625 10.0938 13.7656 10.3125 12.9531C10.5625 12.1406 10.9219 11.4375 11.3906 10.8438C11.8594 10.2187 12.4688 9.73438 13.2188 9.39062C13.9688 9.01562 14.8594 8.82812 15.8906 8.82812C15.8906 9.70312 15.6562 10.4062 15.1875 10.9375C14.7188 11.4688 14.2344 12.0469 13.7344 12.6719C13.2344 13.2969 12.8281 14.0938 12.5156 15.0625C12.2031 16.0312 12.1875 17.4062 12.4688 19.1875C12.4688 19.2812 12.3906 19.4062 12.2344 19.5625C12.0781 19.7188 11.9531 19.7969 11.8594 19.7969C11.3281 19.7969 10.9219 19.625 10.6406 19.2812C10.3906 18.9375 10.2188 18.5469 10.125 18.1094C10.0312 17.6406 9.98438 17.1719 9.98438 16.7031V15.5312ZM5.48438 87.0625C7.98438 86.3438 10.3438 85.0312 12.5625 83.125C14.75 81.25 16.7969 79 18.7031 76.375C20.6406 73.7812 22.4219 70.9531 24.0469 67.8906C25.7031 64.8281 27.2031 61.75 28.5469 58.6562C29.9219 55.5625 31.1562 52.5781 32.25 49.7031C33.3438 46.8281 34.2969 44.3125 35.1094 42.1562C35.9531 39.9688 36.5312 38.5156 36.8438 37.7969C37.1875 37.0781 37.75 36.2188 38.5312 35.2188C37.75 36.0625 36.75 37.0625 35.5312 38.2188C34.3438 39.375 33.0469 40.4688 31.6406 41.5C30.2344 42.5312 28.7812 43.4062 27.2812 44.125C25.7812 44.8438 24.3594 45.2031 23.0156 45.2031C22.1406 45.2031 21.4219 45.0156 20.8594 44.6406C20.3281 44.2344 19.9062 43.7344 19.5938 43.1406C19.2812 42.5156 19.0625 41.8281 18.9375 41.0781C18.8438 40.2969 18.7969 39.5156 18.7969 38.7344C18.7969 38.0781 18.9688 37.1406 19.3125 35.9219C19.6562 34.6719 20.1094 33.3125 20.6719 31.8438C21.2344 30.375 21.8594 28.875 22.5469 27.3438C23.2344 25.8125 23.9375 24.4219 24.6562 23.1719C25.375 21.9219 26.0469 20.9062 26.6719 20.125C27.3281 19.3125 27.875 18.9062 28.3125 18.9062C28.7188 18.9062 29.0781 19 29.3906 19.1875C29.7031 19.375 29.8594 19.6875 29.8594 20.125C29.8594 20.7188 29.7031 21.2656 29.3906 21.7656C29.0781 22.2344 28.5938 22.5156 27.9375 22.6094C27.5 23.1094 27 23.8438 26.4375 24.8125C25.9062 25.75 25.375 26.8125 24.8438 28C24.3125 29.1562 23.8125 30.375 23.3438 31.6562C22.875 32.9375 22.5156 34.1562 22.2656 35.3125C22.0469 36.4688 21.9531 37.5156 21.9844 38.4531C22.0156 39.3906 22.2656 40.0938 22.7344 40.5625C23.2031 41.0312 23.9062 41.2188 24.8438 41.125C25.7812 41.0312 27.0312 40.5312 28.5938 39.625C30.1875 38.4688 31.6875 37.2031 33.0938 35.8281C34.5 34.4531 35.7969 33.0625 36.9844 31.6562C38.1719 30.25 39.2344 28.8906 40.1719 27.5781C41.1094 26.2344 41.9219 25.0312 42.6094 23.9688C43.2969 22.875 43.8438 21.9688 44.25 21.25C44.6562 20.5312 44.9219 20.0781 45.0469 19.8906C45.3906 19.3906 45.6875 18.9844 45.9375 18.6719C46.1875 18.3281 46.4531 18.0625 46.7344 17.875C47.0469 17.6875 47.4062 17.5625 47.8125 17.5C48.2188 17.4375 48.7656 17.4062 49.4531 17.4062C49.2031 18.25 48.8594 19.1875 48.4219 20.2188C47.9844 21.2188 47.375 22.5312 46.5938 24.1562C45.8438 25.75 44.8906 27.7969 43.7344 30.2969C42.5781 32.7656 41.1719 35.9062 39.5156 39.7188C37.8906 43.5 35.9688 48.0625 33.75 53.4062C31.5625 58.75 29.0312 65.0938 26.1562 72.4375C25.5 73.75 24.5625 75.2031 23.3438 76.7969C22.1562 78.3906 20.8438 79.9375 19.4062 81.4375C18 82.9688 16.5469 84.3594 15.0469 85.6094C13.5156 86.8594 12.1094 87.8125 10.8281 88.4688C9.51562 89.125 8.375 89.375 7.40625 89.2188C6.4375 89.0625 5.79688 88.3438 5.48438 87.0625ZM46.0312 48.0625C46.0312 47.9375 46.0312 47.6875 46.0312 47.3125C46.0625 46.9062 46.0781 46.6406 46.0781 46.5156C47.0781 44.2344 48.3594 42.125 49.9219 40.1875C51.4844 38.25 53.25 36.5312 55.2188 35.0312C55.2812 35.0312 55.375 35.0156 55.5 34.9844C55.6562 34.9219 55.7656 34.8906 55.8281 34.8906C56.6719 34.8906 57.3594 35.0781 57.8906 35.4531C58.4531 35.7969 58.8906 36.2656 59.2031 36.8594C59.5469 37.4219 59.7812 38.0625 59.9062 38.7812C60.0312 39.4688 60.0938 40.1406 60.0938 40.7969C60.0938 42.0156 59.8125 43.2969 59.25 44.6406C58.6875 45.9531 57.9219 47.1719 56.9531 48.2969C56.0156 49.3906 54.9375 50.2969 53.7188 51.0156C52.5 51.7031 51.2344 52.0469 49.9219 52.0469C48.6094 52.0469 47.625 51.7031 46.9688 51.0156C46.3438 50.2969 46.0312 49.3125 46.0312 48.0625ZM49.6875 47.5C49.6875 47.8438 49.8281 48.0781 50.1094 48.2031C50.3906 48.3281 50.6719 48.3906 50.9531 48.3906C51.7344 48.3906 52.4844 48.1875 53.2031 47.7812C53.9531 47.3438 54.6094 46.8125 55.1719 46.1875C55.7656 45.5312 56.2344 44.8125 56.5781 44.0312C56.9219 43.25 57.0938 42.5 57.0938 41.7812C57.0938 41.4375 57.0625 41.0625 57 40.6562C56.9688 40.2188 56.875 39.8438 56.7188 39.5312C56.5625 39.1875 56.3125 38.9219 55.9688 38.7344C55.6562 38.5469 55.2031 38.5156 54.6094 38.6406C54.1719 38.7344 53.6719 39.1406 53.1094 39.8594C52.5469 40.5781 52 41.4219 51.4688 42.3906C50.9688 43.3281 50.5469 44.2812 50.2031 45.25C49.8594 46.1875 49.6875 46.9375 49.6875 47.5ZM62.1094 49.6562C62.1094 49.1875 62.25 48.5312 62.5312 47.6875C62.8125 46.8125 63.1719 45.875 63.6094 44.875C64.0781 43.875 64.5938 42.8594 65.1562 41.8281C65.75 40.7969 66.3438 39.8594 66.9375 39.0156C67.5312 38.1719 68.0938 37.4844 68.625 36.9531C69.1562 36.4219 69.625 36.1562 70.0312 36.1562C70.9062 36.1562 71.3438 36.5781 71.3438 37.4219C71.3438 37.7969 71.2656 38.1094 71.1094 38.3594C70.9844 38.6094 70.8281 38.8438 70.6406 39.0625C70.4531 39.2812 70.25 39.5 70.0312 39.7188C69.8125 39.9062 69.625 40.1406 69.4688 40.4219C69.1875 40.8906 68.8438 41.5312 68.4375 42.3438C68.0312 43.1562 67.625 43.9531 67.2188 44.7344C66.8438 45.4844 66.5156 46.1562 66.2344 46.75C65.9531 47.3438 65.8125 47.6719 65.8125 47.7344V48.3438C67.0312 48.125 68.2031 47.6094 69.3281 46.7969C70.4531 45.9531 71.5156 44.9688 72.5156 43.8438C73.5469 42.7188 74.5156 41.5469 75.4219 40.3281C76.3594 39.0781 77.2344 37.9375 78.0469 36.9062C78.8594 35.8438 79.625 34.9688 80.3438 34.2812C81.0625 33.5938 81.7344 33.25 82.3594 33.25C82.3594 34.4062 82.125 35.4531 81.6562 36.3906C81.1875 37.3281 80.6719 38.25 80.1094 39.1562C79.5781 40.0625 79.0781 41 78.6094 41.9688C78.1406 42.9062 77.9062 43.9688 77.9062 45.1562C77.9062 45.6562 78.2031 46.1094 78.7969 46.5156C79.4219 46.8906 80.125 47.2188 80.9062 47.5C81.7188 47.75 82.5 47.9531 83.25 48.1094C84 48.2656 84.5156 48.3594 84.7969 48.3906V49.6094C84.0781 49.6406 83.1875 49.6562 82.125 49.6562C81.0625 49.625 80 49.5 78.9375 49.2812C77.875 49.0625 76.9062 48.7031 76.0312 48.2031C75.1875 47.6719 74.625 46.9062 74.3438 45.9062C73.5312 46.4375 72.75 47.0625 72 47.7812C71.25 48.5 70.4688 49.1719 69.6562 49.7969C68.875 50.4219 68.0469 50.9531 67.1719 51.3906C66.2969 51.8281 65.3438 52.0469 64.3125 52.0469C63.6875 52.0469 63.1562 51.7812 62.7188 51.25C62.3125 50.7188 62.1094 50.1875 62.1094 49.6562ZM94.9219 48.3906C94.9219 47.4531 95.1094 46.5938 95.4844 45.8125C95.8906 45 96.3281 44.2344 96.7969 43.5156C97.2656 42.7969 97.6875 42.0781 98.0625 41.3594C98.4688 40.6406 98.6719 39.875 98.6719 39.0625C98.6719 38.875 98.6562 38.6562 98.625 38.4062C98.625 38.125 98.5938 37.8594 98.5312 37.6094C98.5 37.3594 98.4062 37.1562 98.25 37C98.125 36.8125 97.9531 36.7188 97.7344 36.7188C97.7031 36.7188 97.6406 36.7344 97.5469 36.7656C97.4844 36.7656 97.4531 36.7812 97.4531 36.8125C97.0156 37.4062 96.4844 38.0781 95.8594 38.8281C95.2656 39.5469 94.625 40.2656 93.9375 40.9844C93.25 41.7031 92.5781 42.3906 91.9219 43.0469C91.2656 43.7031 90.6719 44.25 90.1406 44.6875C89.7656 45.0312 89.25 45.5 88.5938 46.0938C87.9688 46.6875 87.3281 47.2812 86.6719 47.875C86.0469 48.4375 85.4844 48.9375 84.9844 49.375C84.5156 49.8125 84.25 50.0312 84.1875 50.0312L82.0312 48.2031C82.3125 48.2031 82.5938 48.1406 82.875 48.0156C83.125 47.8906 83.375 47.75 83.625 47.5938C85.5 46.3438 87.1875 44.9062 88.6875 43.2812C90.2188 41.6562 91.7188 39.9062 93.1875 38.0312C93.25 37.9375 93.4062 37.6719 93.6562 37.2344C93.9375 36.7656 94.2344 36.25 94.5469 35.6875C94.8594 35.0938 95.1719 34.5156 95.4844 33.9531C95.7969 33.3594 96.0312 32.8906 96.1875 32.5469C96.375 32.1406 96.4844 31.8125 96.5156 31.5625C96.5781 31.3125 96.625 31.125 96.6562 31C96.7188 30.8438 96.8125 30.7344 96.9375 30.6719C97.0625 30.6094 97.3281 30.5781 97.7344 30.5781C97.7969 30.5781 97.9375 30.5938 98.1562 30.625C98.4062 30.6562 98.5625 30.6875 98.625 30.7188C99.0312 31.5625 99.3906 32.3125 99.7031 32.9688C100.016 33.625 100.281 34.25 100.5 34.8438C100.719 35.4062 100.875 35.9844 100.969 36.5781C101.094 37.1719 101.156 37.8281 101.156 38.5469C100.75 39.5781 100.297 40.6406 99.7969 41.7344C99.2969 42.7969 98.875 43.8125 98.5312 44.7812C98.1875 45.75 97.9688 46.625 97.875 47.4062C97.8125 48.1875 97.9844 48.8125 98.3906 49.2812C98.8281 49.7188 99.5469 49.9531 100.547 49.9844C101.578 50.0156 103.031 49.75 104.906 49.1875C105.406 49.4375 105.453 49.75 105.047 50.125C104.641 50.4688 104.016 50.7969 103.172 51.1094C102.359 51.4219 101.453 51.6875 100.453 51.9062C99.4844 52.0938 98.6719 52.1406 98.0156 52.0469C97.4219 52.0469 96.9219 51.9531 96.5156 51.7656C96.1406 51.5469 95.8281 51.2656 95.5781 50.9219C95.3594 50.5781 95.1875 50.1875 95.0625 49.75C94.9688 49.3125 94.9219 48.8594 94.9219 48.3906ZM149.391 52.0469C148.797 52.0469 148.25 51.9375 147.75 51.7188C147.281 51.5 146.891 51.1875 146.578 50.7812C146.266 50.375 146.047 49.9219 145.922 49.4219C145.797 48.8906 145.812 48.3281 145.969 47.7344C145.969 46.7344 146.141 45.8125 146.484 44.9688C146.859 44.0938 147.266 43.2656 147.703 42.4844C148.172 41.6719 148.578 40.875 148.922 40.0938C149.297 39.2812 149.484 38.4219 149.484 37.5156C148.797 37.5156 148.062 37.7344 147.281 38.1719C146.5 38.6094 145.703 39.1875 144.891 39.9062C144.109 40.625 143.328 41.4375 142.547 42.3438C141.797 43.2188 141.078 44.1094 140.391 45.0156C139.734 45.8906 139.156 46.7344 138.656 47.5469C138.188 48.3594 137.828 49.0312 137.578 49.5625C137.516 49.5938 137.359 49.625 137.109 49.6562C136.859 49.6562 136.703 49.6562 136.641 49.6562C136.141 49.9062 135.828 49.9062 135.703 49.6562C135.609 49.375 135.609 48.9531 135.703 48.3906C135.828 47.8281 136.016 47.2031 136.266 46.5156C136.516 45.7969 136.75 45.125 136.969 44.5C137.219 43.8438 137.406 43.3125 137.531 42.9062C137.656 42.4688 137.672 42.25 137.578 42.25C137.672 42.125 137.781 41.9219 137.906 41.6406C138.031 41.3594 138.156 41.0625 138.281 40.75C138.406 40.4375 138.516 40.1562 138.609 39.9062C138.703 39.625 138.75 39.4062 138.75 39.25C138.75 38.9688 138.641 38.7969 138.422 38.7344C138.234 38.6406 138.047 38.5938 137.859 38.5938C137.297 38.2812 136.688 38.4688 136.031 39.1562C135.406 39.8125 134.719 40.7656 133.969 42.0156C133.25 43.2344 132.453 44.6406 131.578 46.2344C130.734 47.7969 129.797 49.3125 128.766 50.7812C128.047 50.7812 127.5 50.6875 127.125 50.5C126.75 50.3125 126.562 49.8438 126.562 49.0938C126.812 48.75 127.188 48.1094 127.688 47.1719C128.188 46.2031 128.75 45.1406 129.375 43.9844C130 42.8281 130.656 41.6562 131.344 40.4688C132.062 39.2812 132.734 38.2812 133.359 37.4688C134.016 36.625 134.594 36.0625 135.094 35.7812C135.625 35.4688 136.047 35.6094 136.359 36.2031C136.891 35.8594 137.469 35.5625 138.094 35.3125C138.75 35.0625 139.406 34.9375 140.062 34.9375C140.5 34.9375 140.859 35.0781 141.141 35.3594C141.453 35.6094 141.688 35.9375 141.844 36.3438C142.031 36.7188 142.172 37.125 142.266 37.5625C142.359 37.9688 142.406 38.3281 142.406 38.6406C142.75 38.4219 143.312 38.0469 144.094 37.5156C144.906 36.9531 145.766 36.3906 146.672 35.8281C147.609 35.2656 148.516 34.7812 149.391 34.375C150.297 33.9375 151.031 33.7188 151.594 33.7188C152.094 33.7188 152.516 33.9062 152.859 34.2812C153.234 34.625 153.422 35.0625 153.422 35.5938C152.297 38.3438 151.406 40.5469 150.75 42.2031C150.125 43.8594 149.703 45.1562 149.484 46.0938C149.297 47 149.297 47.6562 149.484 48.0625C149.703 48.4375 150.078 48.7344 150.609 48.9531C151.453 48.9531 152.266 48.8125 153.047 48.5312C153.828 48.25 154.594 47.9375 155.344 47.5938C156.125 47.25 156.906 46.9375 157.688 46.6562C158.469 46.375 159.297 46.2344 160.172 46.2344C160.172 46.5781 160.078 46.9062 159.891 47.2188C159.734 47.5 159.484 47.7188 159.141 47.875C158.891 48.0312 158.438 48.2812 157.781 48.625C157.156 48.9375 156.469 49.2812 155.719 49.6562C154.969 50 154.25 50.3438 153.562 50.6875C152.906 51.0312 152.438 51.2656 152.156 51.3906C151.531 51.6719 151.047 51.8594 150.703 51.9531C150.391 52.0156 149.953 52.0469 149.391 52.0469ZM159.141 48.0625C159.141 47.9375 159.141 47.6875 159.141 47.3125C159.172 46.9062 159.188 46.6406 159.188 46.5156C160.188 44.2344 161.469 42.125 163.031 40.1875C164.594 38.25 166.359 36.5312 168.328 35.0312C168.391 35.0312 168.484 35.0156 168.609 34.9844C168.766 34.9219 168.875 34.8906 168.938 34.8906C169.781 34.8906 170.469 35.0781 171 35.4531C171.562 35.7969 172 36.2656 172.312 36.8594C172.656 37.4219 172.891 38.0625 173.016 38.7812C173.141 39.4688 173.203 40.1406 173.203 40.7969C173.203 42.0156 172.922 43.2969 172.359 44.6406C171.797 45.9531 171.031 47.1719 170.062 48.2969C169.125 49.3906 168.047 50.2969 166.828 51.0156C165.609 51.7031 164.344 52.0469 163.031 52.0469C161.719 52.0469 160.734 51.7031 160.078 51.0156C159.453 50.2969 159.141 49.3125 159.141 48.0625ZM162.797 47.5C162.797 47.8438 162.938 48.0781 163.219 48.2031C163.5 48.3281 163.781 48.3906 164.062 48.3906C164.844 48.3906 165.594 48.1875 166.312 47.7812C167.062 47.3438 167.719 46.8125 168.281 46.1875C168.875 45.5312 169.344 44.8125 169.688 44.0312C170.031 43.25 170.203 42.5 170.203 41.7812C170.203 41.4375 170.172 41.0625 170.109 40.6562C170.078 40.2188 169.984 39.8438 169.828 39.5312C169.672 39.1875 169.422 38.9219 169.078 38.7344C168.766 38.5469 168.312 38.5156 167.719 38.6406C167.281 38.7344 166.781 39.1406 166.219 39.8594C165.656 40.5781 165.109 41.4219 164.578 42.3906C164.078 43.3281 163.656 44.2812 163.312 45.25C162.969 46.1875 162.797 46.9375 162.797 47.5ZM197.484 52.0469C196.891 52.0469 196.344 51.9375 195.844 51.7188C195.375 51.5 194.984 51.1875 194.672 50.7812C194.359 50.375 194.141 49.9219 194.016 49.4219C193.891 48.8906 193.906 48.3281 194.062 47.7344C194.062 46.7344 194.234 45.8125 194.578 44.9688C194.953 44.0938 195.359 43.2656 195.797 42.4844C196.266 41.6719 196.672 40.875 197.016 40.0938C197.391 39.2812 197.578 38.4219 197.578 37.5156C196.891 37.5156 196.156 37.7344 195.375 38.1719C194.594 38.6094 193.797 39.1875 192.984 39.9062C192.203 40.625 191.422 41.4375 190.641 42.3438C189.891 43.2188 189.172 44.1094 188.484 45.0156C187.828 45.8906 187.25 46.7344 186.75 47.5469C186.281 48.3594 185.922 49.0312 185.672 49.5625C185.609 49.5938 185.453 49.625 185.203 49.6562C184.953 49.6562 184.797 49.6562 184.734 49.6562C184.234 49.9062 183.922 49.9062 183.797 49.6562C183.703 49.375 183.703 48.9531 183.797 48.3906C183.922 47.8281 184.109 47.2031 184.359 46.5156C184.609 45.7969 184.844 45.125 185.062 44.5C185.312 43.8438 185.5 43.3125 185.625 42.9062C185.75 42.4688 185.766 42.25 185.672 42.25C185.766 42.125 185.875 41.9219 186 41.6406C186.125 41.3594 186.25 41.0625 186.375 40.75C186.5 40.4375 186.609 40.1562 186.703 39.9062C186.797 39.625 186.844 39.4062 186.844 39.25C186.844 38.9688 186.734 38.7969 186.516 38.7344C186.328 38.6406 186.141 38.5938 185.953 38.5938C185.391 38.2812 184.781 38.4688 184.125 39.1562C183.5 39.8125 182.812 40.7656 182.062 42.0156C181.344 43.2344 180.547 44.6406 179.672 46.2344C178.828 47.7969 177.891 49.3125 176.859 50.7812C176.141 50.7812 175.594 50.6875 175.219 50.5C174.844 50.3125 174.656 49.8438 174.656 49.0938C174.906 48.75 175.281 48.1094 175.781 47.1719C176.281 46.2031 176.844 45.1406 177.469 43.9844C178.094 42.8281 178.75 41.6562 179.438 40.4688C180.156 39.2812 180.828 38.2812 181.453 37.4688C182.109 36.625 182.688 36.0625 183.188 35.7812C183.719 35.4688 184.141 35.6094 184.453 36.2031C184.984 35.8594 185.562 35.5625 186.188 35.3125C186.844 35.0625 187.5 34.9375 188.156 34.9375C188.594 34.9375 188.953 35.0781 189.234 35.3594C189.547 35.6094 189.781 35.9375 189.938 36.3438C190.125 36.7188 190.266 37.125 190.359 37.5625C190.453 37.9688 190.5 38.3281 190.5 38.6406C190.844 38.4219 191.406 38.0469 192.188 37.5156C193 36.9531 193.859 36.3906 194.766 35.8281C195.703 35.2656 196.609 34.7812 197.484 34.375C198.391 33.9375 199.125 33.7188 199.688 33.7188C200.188 33.7188 200.609 33.9062 200.953 34.2812C201.328 34.625 201.516 35.0625 201.516 35.5938C200.391 38.3438 199.5 40.5469 198.844 42.2031C198.219 43.8594 197.797 45.1562 197.578 46.0938C197.391 47 197.391 47.6562 197.578 48.0625C197.797 48.4375 198.172 48.7344 198.703 48.9531C199.547 48.9531 200.359 48.8125 201.141 48.5312C201.922 48.25 202.688 47.9375 203.438 47.5938C204.219 47.25 205 46.9375 205.781 46.6562C206.562 46.375 207.391 46.2344 208.266 46.2344C208.266 46.5781 208.172 46.9062 207.984 47.2188C207.828 47.5 207.578 47.7188 207.234 47.875C206.984 48.0312 206.531 48.2812 205.875 48.625C205.25 48.9375 204.562 49.2812 203.812 49.6562C203.062 50 202.344 50.3438 201.656 50.6875C201 51.0312 200.531 51.2656 200.25 51.3906C199.625 51.6719 199.141 51.8594 198.797 51.9531C198.484 52.0156 198.047 52.0469 197.484 52.0469ZM207.141 49.5625C206.609 48.375 206.375 47.2188 206.438 46.0938C206.5 44.9375 206.75 43.8594 207.188 42.8594C207.656 41.8281 208.25 40.9062 208.969 40.0938C209.719 39.25 210.516 38.5312 211.359 37.9375C212.203 37.3125 213.047 36.8438 213.891 36.5312C214.766 36.2188 215.531 36.0938 216.188 36.1562C216.844 36.1875 217.359 36.4219 217.734 36.8594C218.109 37.2969 218.234 37.9688 218.109 38.875C218.109 40.0938 217.719 41.1562 216.938 42.0625C216.188 42.9688 215.344 43.7812 214.406 44.5C213.5 45.2188 212.656 45.875 211.875 46.4688C211.125 47.0312 210.75 47.5625 210.75 48.0625C210.75 48.3438 210.906 48.5625 211.219 48.7188C211.562 48.875 211.953 49 212.391 49.0938C212.828 49.1562 213.266 49.2031 213.703 49.2344C214.141 49.2656 214.453 49.2969 214.641 49.3281C217.578 48.7031 219.781 48.3281 221.25 48.2031C222.719 48.0469 223.641 48.0625 224.016 48.25C224.391 48.4062 224.312 48.6719 223.781 49.0469C223.281 49.3906 222.5 49.7656 221.438 50.1719C220.375 50.5469 219.141 50.8906 217.734 51.2031C216.328 51.5156 214.938 51.7031 213.562 51.7656C212.188 51.7969 210.906 51.6562 209.719 51.3438C208.562 51.0312 207.703 50.4375 207.141 49.5625ZM215.344 38.875C214.719 38.875 214.125 39.0469 213.562 39.3906C213 39.7344 212.484 40.1719 212.016 40.7031C211.578 41.2031 211.203 41.7656 210.891 42.3906C210.578 42.9844 210.344 43.5469 210.188 44.0781C210.25 44.1094 210.297 44.125 210.328 44.125H210.469C210.906 44.125 211.406 43.9375 211.969 43.5625C212.531 43.1875 213.062 42.7344 213.562 42.2031C214.062 41.6406 214.484 41.0625 214.828 40.4688C215.172 39.875 215.344 39.3438 215.344 38.875ZM223.641 49.8906C223.641 49.6094 223.641 49.3906 223.641 49.2344C223.641 49.0781 223.656 48.9375 223.688 48.8125C223.75 48.6562 223.828 48.5 223.922 48.3438C224.016 48.1875 224.141 47.9844 224.297 47.7344C224.547 47.2969 225.016 46.5312 225.703 45.4375C226.391 44.3438 227.125 43.1875 227.906 41.9688C228.688 40.75 229.422 39.5938 230.109 38.5C230.828 37.4062 231.328 36.6406 231.609 36.2031C231.641 36.1719 231.719 36.1562 231.844 36.1562C232 36.1562 232.109 36.1562 232.172 36.1562C232.234 36.1562 232.344 36.1562 232.5 36.1562C232.656 36.1562 232.75 36.1719 232.781 36.2031C232.812 36.2344 232.875 36.3125 232.969 36.4375C233.094 36.5625 233.219 36.7031 233.344 36.8594C233.5 36.9844 233.625 37.1094 233.719 37.2344C233.844 37.3594 233.938 37.4219 234 37.4219C234.281 37.4219 234.578 37.3281 234.891 37.1406C235.203 36.9531 235.516 36.75 235.828 36.5312C236.172 36.2812 236.516 36.0625 236.859 35.875C237.203 35.6875 237.562 35.5938 237.938 35.5938C238.344 35.5938 238.719 35.6875 239.062 35.875C239.406 36.0625 239.703 36.2969 239.953 36.5781C240.203 36.8594 240.391 37.1719 240.516 37.5156C240.672 37.8594 240.75 38.2031 240.75 38.5469C240.75 39.2656 240.641 39.9531 240.422 40.6094C240.234 41.2656 240.016 41.9219 239.766 42.5781C239.516 43.2031 239.281 43.8438 239.062 44.5C238.875 45.125 238.781 45.7812 238.781 46.4688C238.781 47.1562 238.859 47.6562 239.016 47.9688C239.172 48.25 239.609 48.3906 240.328 48.3906C241.172 48.3906 241.969 48.2656 242.719 48.0156C243.5 47.7656 244.297 47.6406 245.109 47.6406C245.109 48.3906 244.875 49.0156 244.406 49.5156C243.969 50.0156 243.406 50.4219 242.719 50.7344C242.062 51.0156 241.344 51.2188 240.562 51.3438C239.812 51.4375 239.125 51.4844 238.5 51.4844C237.312 51.4844 236.438 51.1562 235.875 50.5C235.344 49.8125 235.078 48.9062 235.078 47.7812C235.078 47.0312 235.203 46.3281 235.453 45.6719C235.734 45.0156 236.031 44.375 236.344 43.75C236.688 43.125 237 42.5 237.281 41.875C237.562 41.25 237.703 40.5781 237.703 39.8594C237.703 39.6719 237.672 39.4219 237.609 39.1094C237.547 38.7969 237.344 38.6406 237 38.6406C235.969 38.6406 235.031 38.9688 234.188 39.625C233.375 40.2812 232.625 41.1094 231.938 42.1094C231.281 43.1094 230.672 44.1875 230.109 45.3438C229.578 46.5 229.062 47.5781 228.562 48.5781C228.094 49.5781 227.641 50.4062 227.203 51.0625C226.766 51.7188 226.312 52.0469 225.844 52.0469C225.188 52.0469 224.656 51.8438 224.25 51.4375C223.844 51.0312 223.641 50.5156 223.641 49.8906ZM243.609 47.4531C243.609 46.5469 243.781 45.6406 244.125 44.7344C244.469 43.8281 244.875 42.9375 245.344 42.0625C245.812 41.1562 246.281 40.2656 246.75 39.3906C247.25 38.5156 247.625 37.6562 247.875 36.8125C247.281 37.1562 246.766 37.3594 246.328 37.4219C245.922 37.4531 245.422 37.4688 244.828 37.4688C244.766 37.4688 244.562 37.4688 244.219 37.4688C243.906 37.4375 243.703 37.4219 243.609 37.4219C243.797 36.7344 244.141 36.125 244.641 35.5938C245.141 35.0312 245.703 34.5625 246.328 34.1875C246.984 33.7812 247.656 33.4531 248.344 33.2031C249.062 32.9219 249.703 32.7031 250.266 32.5469C251.203 31.0781 251.969 29.6094 252.562 28.1406C253.156 26.6406 253.75 25.1875 254.344 23.7812C254.969 22.3438 255.688 20.9844 256.5 19.7031C257.344 18.3906 258.469 17.1875 259.875 16.0938L260.109 17.875L254.25 31.6094C254.594 31.5156 255.016 31.4219 255.516 31.3281C256.016 31.2344 256.516 31.1406 257.016 31.0469C257.547 30.9531 258.047 30.875 258.516 30.8125C259.016 30.7188 259.438 30.625 259.781 30.5312C259.812 30.5312 259.906 30.5312 260.062 30.5312C260.219 30.5 260.344 30.4844 260.438 30.4844C260.875 30.4844 261.234 30.5625 261.516 30.7188C261.797 30.875 262.031 31.2188 262.219 31.75C260.094 32.375 258.172 33.0312 256.453 33.7188C254.734 34.4062 253.234 35.3125 251.953 36.4375C250.703 37.5312 249.672 38.9375 248.859 40.6562C248.078 42.3438 247.531 44.5156 247.219 47.1719C247.219 47.7344 247.25 48.25 247.312 48.7188C247.375 49.1875 247.766 49.4688 248.484 49.5625C249.203 49.5625 249.875 49.4219 250.5 49.1406C251.125 48.8594 251.734 48.5625 252.328 48.25C252.922 47.9062 253.516 47.5938 254.109 47.3125C254.734 47.0312 255.406 46.8906 256.125 46.8906C256.125 47.6406 255.797 48.3281 255.141 48.9531C254.484 49.5781 253.688 50.125 252.75 50.5938C251.844 51.0625 250.906 51.4219 249.938 51.6719C248.969 51.9219 248.172 52.0469 247.547 52.0469C246.922 52.0469 246.359 51.9219 245.859 51.6719C245.359 51.4219 244.938 51.0938 244.594 50.6875C244.281 50.25 244.031 49.75 243.844 49.1875C243.688 48.625 243.609 48.0469 243.609 47.4531ZM256.266 46.7969C256.266 46.2031 256.344 45.6875 256.5 45.25C256.688 44.8125 257.141 44.5938 257.859 44.5938C257.922 44.5938 258.062 44.6094 258.281 44.6406C258.531 44.6406 258.703 44.6562 258.797 44.6875C258.766 46.1562 259 47.2656 259.5 48.0156C260 48.7344 260.938 49.0938 262.312 49.0938C263.438 49.0938 264.547 48.9219 265.641 48.5781C266.734 48.2344 267.719 47.7344 268.594 47.0781C269.5 46.3906 270.219 45.5625 270.75 44.5938C271.312 43.625 271.594 42.5312 271.594 41.3125C271.594 40.5625 271.328 40.0312 270.797 39.7188C270.297 39.4062 269.734 39.1562 269.109 38.9688C268.484 38.7812 267.906 38.5781 267.375 38.3594C266.875 38.1094 266.625 37.6875 266.625 37.0938C266.625 36.375 267.062 35.6875 267.938 35.0312C268.812 34.375 269.844 33.7969 271.031 33.2969C272.219 32.7656 273.391 32.3594 274.547 32.0781C275.734 31.7656 276.641 31.6094 277.266 31.6094C277.266 32.5156 277.062 33.1562 276.656 33.5312C276.281 33.9062 275.812 34.2031 275.25 34.4219C274.688 34.6406 274.109 34.8594 273.516 35.0781C272.953 35.2656 272.484 35.6406 272.109 36.2031C272.609 36.6094 273.016 36.9844 273.328 37.3281C273.672 37.6406 273.938 37.9844 274.125 38.3594C274.312 38.7344 274.438 39.1562 274.5 39.625C274.562 40.0625 274.594 40.5938 274.594 41.2188C274.594 42.8438 274.234 44.3281 273.516 45.6719C272.828 46.9844 271.922 48.125 270.797 49.0938C269.672 50.0312 268.391 50.7656 266.953 51.2969C265.516 51.7969 264.047 52.0469 262.547 52.0469C261.734 52.0469 260.938 51.9531 260.156 51.7656C259.406 51.5469 258.734 51.2188 258.141 50.7812C257.578 50.3438 257.125 49.7969 256.781 49.1406C256.438 48.4844 256.266 47.7031 256.266 46.7969ZM288.141 47.5469C288.141 47.0781 288.094 46.7188 288 46.4688C287.906 46.1875 287.812 45.9375 287.719 45.7188C287.625 45.5 287.531 45.2656 287.438 45.0156C287.344 44.7656 287.297 44.4219 287.297 43.9844C287.859 43.9844 288.453 44.0781 289.078 44.2656C289.703 44.4531 290.188 44.8125 290.531 45.3438C290.531 45.4375 290.531 45.6094 290.531 45.8594C290.562 46.0781 290.578 46.3125 290.578 46.5625C290.609 46.8125 290.625 47.0625 290.625 47.3125C290.656 47.5312 290.672 47.6875 290.672 47.7812C290.672 48.9375 290.375 50.125 289.781 51.3438C289.219 52.5625 288.453 53.6719 287.484 54.6719C286.547 55.7031 285.469 56.5312 284.25 57.1562C283.062 57.8125 281.844 58.1406 280.594 58.1406C280.594 57.7031 280.781 57.2656 281.156 56.8281C281.531 56.3906 282 55.9375 282.562 55.4688C283.125 55 283.719 54.5 284.344 53.9688C285 53.4688 285.609 52.9062 286.172 52.2812C286.734 51.6562 287.203 50.9531 287.578 50.1719C287.953 49.3906 288.141 48.5156 288.141 47.5469ZM317.203 48.0625C317.203 47.9375 317.203 47.6875 317.203 47.3125C317.234 46.9062 317.25 46.6406 317.25 46.5156C318.25 44.2344 319.531 42.125 321.094 40.1875C322.656 38.25 324.422 36.5312 326.391 35.0312C326.453 35.0312 326.547 35.0156 326.672 34.9844C326.828 34.9219 326.938 34.8906 327 34.8906C327.844 34.8906 328.531 35.0781 329.062 35.4531C329.625 35.7969 330.062 36.2656 330.375 36.8594C330.719 37.4219 330.953 38.0625 331.078 38.7812C331.203 39.4688 331.266 40.1406 331.266 40.7969C331.266 42.0156 330.984 43.2969 330.422 44.6406C329.859 45.9531 329.094 47.1719 328.125 48.2969C327.188 49.3906 326.109 50.2969 324.891 51.0156C323.672 51.7031 322.406 52.0469 321.094 52.0469C319.781 52.0469 318.797 51.7031 318.141 51.0156C317.516 50.2969 317.203 49.3125 317.203 48.0625ZM320.859 47.5C320.859 47.8438 321 48.0781 321.281 48.2031C321.562 48.3281 321.844 48.3906 322.125 48.3906C322.906 48.3906 323.656 48.1875 324.375 47.7812C325.125 47.3438 325.781 46.8125 326.344 46.1875C326.938 45.5312 327.406 44.8125 327.75 44.0312C328.094 43.25 328.266 42.5 328.266 41.7812C328.266 41.4375 328.234 41.0625 328.172 40.6562C328.141 40.2188 328.047 39.8438 327.891 39.5312C327.734 39.1875 327.484 38.9219 327.141 38.7344C326.828 38.5469 326.375 38.5156 325.781 38.6406C325.344 38.7344 324.844 39.1406 324.281 39.8594C323.719 40.5781 323.172 41.4219 322.641 42.3906C322.141 43.3281 321.719 44.2812 321.375 45.25C321.031 46.1875 320.859 46.9375 320.859 47.5ZM333.281 49.6562C333.281 49.1875 333.422 48.5312 333.703 47.6875C333.984 46.8125 334.344 45.875 334.781 44.875C335.25 43.875 335.766 42.8594 336.328 41.8281C336.922 40.7969 337.516 39.8594 338.109 39.0156C338.703 38.1719 339.266 37.4844 339.797 36.9531C340.328 36.4219 340.797 36.1562 341.203 36.1562C342.078 36.1562 342.516 36.5781 342.516 37.4219C342.516 37.7969 342.438 38.1094 342.281 38.3594C342.156 38.6094 342 38.8438 341.812 39.0625C341.625 39.2812 341.422 39.5 341.203 39.7188C340.984 39.9062 340.797 40.1406 340.641 40.4219C340.359 40.8906 340.016 41.5312 339.609 42.3438C339.203 43.1562 338.797 43.9531 338.391 44.7344C338.016 45.4844 337.688 46.1562 337.406 46.75C337.125 47.3438 336.984 47.6719 336.984 47.7344V48.3438C338.203 48.125 339.375 47.6094 340.5 46.7969C341.625 45.9531 342.688 44.9688 343.688 43.8438C344.719 42.7188 345.688 41.5469 346.594 40.3281C347.531 39.0781 348.406 37.9375 349.219 36.9062C350.031 35.8438 350.797 34.9688 351.516 34.2812C352.234 33.5938 352.906 33.25 353.531 33.25C353.531 34.4062 353.297 35.4531 352.828 36.3906C352.359 37.3281 351.844 38.25 351.281 39.1562C350.75 40.0625 350.25 41 349.781 41.9688C349.312 42.9062 349.078 43.9688 349.078 45.1562C349.078 45.6562 349.375 46.1094 349.969 46.5156C350.594 46.8906 351.297 47.2188 352.078 47.5C352.891 47.75 353.672 47.9531 354.422 48.1094C355.172 48.2656 355.688 48.3594 355.969 48.3906V49.6094C355.25 49.6406 354.359 49.6562 353.297 49.6562C352.234 49.625 351.172 49.5 350.109 49.2812C349.047 49.0625 348.078 48.7031 347.203 48.2031C346.359 47.6719 345.797 46.9062 345.516 45.9062C344.703 46.4375 343.922 47.0625 343.172 47.7812C342.422 48.5 341.641 49.1719 340.828 49.7969C340.047 50.4219 339.219 50.9531 338.344 51.3906C337.469 51.8281 336.516 52.0469 335.484 52.0469C334.859 52.0469 334.328 51.7812 333.891 51.25C333.484 50.7188 333.281 50.1875 333.281 49.6562ZM366.094 48.3906C366.094 47.4531 366.281 46.5938 366.656 45.8125C367.062 45 367.5 44.2344 367.969 43.5156C368.438 42.7969 368.859 42.0781 369.234 41.3594C369.641 40.6406 369.844 39.875 369.844 39.0625C369.844 38.875 369.828 38.6562 369.797 38.4062C369.797 38.125 369.766 37.8594 369.703 37.6094C369.672 37.3594 369.578 37.1562 369.422 37C369.297 36.8125 369.125 36.7188 368.906 36.7188C368.875 36.7188 368.812 36.7344 368.719 36.7656C368.656 36.7656 368.625 36.7812 368.625 36.8125C368.188 37.4062 367.656 38.0781 367.031 38.8281C366.438 39.5469 365.797 40.2656 365.109 40.9844C364.422 41.7031 363.75 42.3906 363.094 43.0469C362.438 43.7031 361.844 44.25 361.312 44.6875C360.938 45.0312 360.422 45.5 359.766 46.0938C359.141 46.6875 358.5 47.2812 357.844 47.875C357.219 48.4375 356.656 48.9375 356.156 49.375C355.688 49.8125 355.422 50.0312 355.359 50.0312L353.203 48.2031C353.484 48.2031 353.766 48.1406 354.047 48.0156C354.297 47.8906 354.547 47.75 354.797 47.5938C356.672 46.3438 358.359 44.9062 359.859 43.2812C361.391 41.6562 362.891 39.9062 364.359 38.0312C364.422 37.9375 364.578 37.6719 364.828 37.2344C365.109 36.7656 365.406 36.25 365.719 35.6875C366.031 35.0938 366.344 34.5156 366.656 33.9531C366.969 33.3594 367.203 32.8906 367.359 32.5469C367.547 32.1406 367.656 31.8125 367.688 31.5625C367.75 31.3125 367.797 31.125 367.828 31C367.891 30.8438 367.984 30.7344 368.109 30.6719C368.234 30.6094 368.5 30.5781 368.906 30.5781C368.969 30.5781 369.109 30.5938 369.328 30.625C369.578 30.6562 369.734 30.6875 369.797 30.7188C370.203 31.5625 370.562 32.3125 370.875 32.9688C371.188 33.625 371.453 34.25 371.672 34.8438C371.891 35.4062 372.047 35.9844 372.141 36.5781C372.266 37.1719 372.328 37.8281 372.328 38.5469C371.922 39.5781 371.469 40.6406 370.969 41.7344C370.469 42.7969 370.047 43.8125 369.703 44.7812C369.359 45.75 369.141 46.625 369.047 47.4062C368.984 48.1875 369.156 48.8125 369.562 49.2812C370 49.7188 370.719 49.9531 371.719 49.9844C372.75 50.0156 374.203 49.75 376.078 49.1875C376.578 49.4375 376.625 49.75 376.219 50.125C375.812 50.4688 375.188 50.7969 374.344 51.1094C373.531 51.4219 372.625 51.6875 371.625 51.9062C370.656 52.0938 369.844 52.1406 369.188 52.0469C368.594 52.0469 368.094 51.9531 367.688 51.7656C367.312 51.5469 367 51.2656 366.75 50.9219C366.531 50.5781 366.359 50.1875 366.234 49.75C366.141 49.3125 366.094 48.8594 366.094 48.3906ZM392.203 65.125C392.203 65.0938 392.219 65.0312 392.25 64.9375C392.25 64.8438 392.25 64.7812 392.25 64.75C392.281 64.6562 392.328 64.5156 392.391 64.3281C392.453 64.1719 392.516 64 392.578 63.8125C392.641 63.625 392.703 63.4375 392.766 63.25C392.828 63.0938 392.875 62.9844 392.906 62.9219C393.094 62.4844 393.406 61.7812 393.844 60.8125C394.281 59.875 394.781 58.7969 395.344 57.5781C395.906 56.3906 396.5 55.1406 397.125 53.8281C397.719 52.5156 398.297 51.2656 398.859 50.0781C399.422 48.8594 399.922 47.7812 400.359 46.8438C400.828 45.875 401.172 45.1562 401.391 44.6875C401.797 44.0312 402.359 43.2656 403.078 42.3906C403.828 41.5156 404.656 40.625 405.562 39.7188C406.469 38.8125 407.438 37.9375 408.469 37.0938C409.531 36.2188 410.562 35.4531 411.562 34.7969C412.594 34.1094 413.594 33.5625 414.562 33.1562C415.531 32.7188 416.391 32.5 417.141 32.5C418.266 32.5 419.062 32.7031 419.531 33.1094C420 33.5156 420.234 34.3438 420.234 35.5938C420.234 36.9375 419.969 38.2812 419.438 39.625C418.938 40.9375 418.25 42.1875 417.375 43.375C416.5 44.5625 415.469 45.6406 414.281 46.6094C413.125 47.5781 411.891 48.375 410.578 49C409.297 49.625 407.969 50.0625 406.594 50.3125C405.219 50.5312 403.891 50.4844 402.609 50.1719L402 50.7812L395.906 65.9688C395.812 66.25 395.547 66.4219 395.109 66.4844C394.672 66.5781 394.312 66.625 394.031 66.625C393.625 66.625 393.219 66.4844 392.812 66.2031C392.406 65.9531 392.203 65.5938 392.203 65.125ZM414.141 42.2969C415.609 40.7344 416.562 39.5 417 38.5938C417.438 37.6562 417.531 37 417.281 36.625C417.031 36.25 416.531 36.1094 415.781 36.2031C415.031 36.2969 414.188 36.5625 413.25 37C412.312 37.4375 411.359 38.0156 410.391 38.7344C409.453 39.4531 408.672 40.2344 408.047 41.0781C407.766 41.3906 407.422 41.8125 407.016 42.3438C406.609 42.8438 406.203 43.3594 405.797 43.8906C405.422 44.3906 405.094 44.8438 404.812 45.25C404.531 45.6562 404.391 45.8906 404.391 45.9531V46.9375C406.547 46.9375 408.391 46.625 409.922 46C411.453 45.3438 412.859 44.1094 414.141 42.2969ZM422.297 48.9531C422.578 47.1719 423.109 45.5312 423.891 44.0312C424.672 42.5312 425.562 41.2344 426.562 40.1406C427.594 39.0156 428.703 38.0938 429.891 37.375C431.078 36.6562 432.234 36.2031 433.359 36.0156C434.484 35.7969 435.516 35.8438 436.453 36.1562C437.422 36.4688 438.203 37.0938 438.797 38.0312C438.797 38.75 438.625 39.4375 438.281 40.0938C437.969 40.75 437.609 41.4062 437.203 42.0625C436.828 42.7188 436.469 43.3906 436.125 44.0781C435.812 44.7656 435.656 45.5 435.656 46.2812C435.656 47.0938 435.828 47.75 436.172 48.25C436.547 48.7188 437.188 48.9531 438.094 48.9531C438.844 48.9531 439.562 48.8438 440.25 48.625C440.969 48.4062 441.688 48.2969 442.406 48.2969C442.531 48.2969 442.734 48.3125 443.016 48.3438C443.328 48.3438 443.531 48.3438 443.625 48.3438C443.25 48.875 442.766 49.3281 442.172 49.7031C441.578 50.0781 440.953 50.4062 440.297 50.6875C439.641 50.9375 438.953 51.125 438.234 51.25C437.547 51.375 436.906 51.4375 436.312 51.4375C435.75 51.4375 435.25 51.3125 434.812 51.0625C434.375 50.8125 434 50.4844 433.688 50.0781C433.375 49.6719 433.125 49.2188 432.938 48.7188C432.781 48.1875 432.703 47.6719 432.703 47.1719C432.234 47.7031 431.719 48.2656 431.156 48.8594C430.625 49.4219 430.047 49.9375 429.422 50.4062C428.828 50.875 428.172 51.2656 427.453 51.5781C426.766 51.8906 426.047 52.0469 425.297 52.0469C424.484 52.0469 423.781 51.75 423.188 51.1562C422.594 50.5312 422.297 49.7969 422.297 48.9531ZM425.391 47.5C425.391 47.75 425.391 48.0312 425.391 48.3438C425.422 48.6562 425.625 48.8594 426 48.9531C426.781 48.7656 427.672 48.3594 428.672 47.7344C429.672 47.0781 430.609 46.3281 431.484 45.4844C432.359 44.6094 433.094 43.6875 433.688 42.7188C434.281 41.7188 434.578 40.7656 434.578 39.8594C434.578 39.7969 434.562 39.7031 434.531 39.5781C434.531 39.4219 434.531 39.3125 434.531 39.25C433.469 39.25 432.391 39.4688 431.297 39.9062C430.203 40.3438 429.219 40.9531 428.344 41.7344C427.469 42.4844 426.75 43.3594 426.188 44.3594C425.656 45.3594 425.391 46.4062 425.391 47.5ZM442.266 46.7969C442.266 46.2031 442.344 45.6875 442.5 45.25C442.688 44.8125 443.141 44.5938 443.859 44.5938C443.922 44.5938 444.062 44.6094 444.281 44.6406C444.531 44.6406 444.703 44.6562 444.797 44.6875C444.766 46.1562 445 47.2656 445.5 48.0156C446 48.7344 446.938 49.0938 448.312 49.0938C449.438 49.0938 450.547 48.9219 451.641 48.5781C452.734 48.2344 453.719 47.7344 454.594 47.0781C455.5 46.3906 456.219 45.5625 456.75 44.5938C457.312 43.625 457.594 42.5312 457.594 41.3125C457.594 40.5625 457.328 40.0312 456.797 39.7188C456.297 39.4062 455.734 39.1562 455.109 38.9688C454.484 38.7812 453.906 38.5781 453.375 38.3594C452.875 38.1094 452.625 37.6875 452.625 37.0938C452.625 36.375 453.062 35.6875 453.938 35.0312C454.812 34.375 455.844 33.7969 457.031 33.2969C458.219 32.7656 459.391 32.3594 460.547 32.0781C461.734 31.7656 462.641 31.6094 463.266 31.6094C463.266 32.5156 463.062 33.1562 462.656 33.5312C462.281 33.9062 461.812 34.2031 461.25 34.4219C460.688 34.6406 460.109 34.8594 459.516 35.0781C458.953 35.2656 458.484 35.6406 458.109 36.2031C458.609 36.6094 459.016 36.9844 459.328 37.3281C459.672 37.6406 459.938 37.9844 460.125 38.3594C460.312 38.7344 460.438 39.1562 460.5 39.625C460.562 40.0625 460.594 40.5938 460.594 41.2188C460.594 42.8438 460.234 44.3281 459.516 45.6719C458.828 46.9844 457.922 48.125 456.797 49.0938C455.672 50.0312 454.391 50.7656 452.953 51.2969C451.516 51.7969 450.047 52.0469 448.547 52.0469C447.734 52.0469 446.938 51.9531 446.156 51.7656C445.406 51.5469 444.734 51.2188 444.141 50.7812C443.578 50.3438 443.125 49.7969 442.781 49.1406C442.438 48.4844 442.266 47.7031 442.266 46.7969ZM464.719 46.7969C464.719 46.2031 464.797 45.6875 464.953 45.25C465.141 44.8125 465.594 44.5938 466.312 44.5938C466.375 44.5938 466.516 44.6094 466.734 44.6406C466.984 44.6406 467.156 44.6562 467.25 44.6875C467.219 46.1562 467.453 47.2656 467.953 48.0156C468.453 48.7344 469.391 49.0938 470.766 49.0938C471.891 49.0938 473 48.9219 474.094 48.5781C475.188 48.2344 476.172 47.7344 477.047 47.0781C477.953 46.3906 478.672 45.5625 479.203 44.5938C479.766 43.625 480.047 42.5312 480.047 41.3125C480.047 40.5625 479.781 40.0312 479.25 39.7188C478.75 39.4062 478.188 39.1562 477.562 38.9688C476.938 38.7812 476.359 38.5781 475.828 38.3594C475.328 38.1094 475.078 37.6875 475.078 37.0938C475.078 36.375 475.516 35.6875 476.391 35.0312C477.266 34.375 478.297 33.7969 479.484 33.2969C480.672 32.7656 481.844 32.3594 483 32.0781C484.188 31.7656 485.094 31.6094 485.719 31.6094C485.719 32.5156 485.516 33.1562 485.109 33.5312C484.734 33.9062 484.266 34.2031 483.703 34.4219C483.141 34.6406 482.562 34.8594 481.969 35.0781C481.406 35.2656 480.938 35.6406 480.562 36.2031C481.062 36.6094 481.469 36.9844 481.781 37.3281C482.125 37.6406 482.391 37.9844 482.578 38.3594C482.766 38.7344 482.891 39.1562 482.953 39.625C483.016 40.0625 483.047 40.5938 483.047 41.2188C483.047 42.8438 482.688 44.3281 481.969 45.6719C481.281 46.9844 480.375 48.125 479.25 49.0938C478.125 50.0312 476.844 50.7656 475.406 51.2969C473.969 51.7969 472.5 52.0469 471 52.0469C470.188 52.0469 469.391 51.9531 468.609 51.7656C467.859 51.5469 467.188 51.2188 466.594 50.7812C466.031 50.3438 465.578 49.7969 465.234 49.1406C464.891 48.4844 464.719 47.7031 464.719 46.7969ZM486.844 48.9531C486.844 48.5156 486.891 48.1406 486.984 47.8281C487.078 47.4844 487.25 47.0469 487.5 46.5156C487.719 46.2031 488.109 45.6094 488.672 44.7344C489.266 43.8594 489.875 42.9375 490.5 41.9688C491.156 41 491.766 40.0938 492.328 39.25C492.922 38.375 493.328 37.7656 493.547 37.4219C493.828 37.0156 494.047 36.7969 494.203 36.7656C494.359 36.7344 494.656 36.7188 495.094 36.7188C495.375 36.7188 495.672 36.7344 495.984 36.7656C496.328 36.7969 496.547 37.0156 496.641 37.4219C496.203 38.4844 495.609 39.5 494.859 40.4688C494.141 41.4062 493.422 42.3438 492.703 43.2812C492.016 44.2188 491.406 45.1875 490.875 46.1875C490.344 47.1562 490.078 48.2031 490.078 49.3281C490.203 49.3281 490.391 49.3438 490.641 49.375C490.922 49.4062 491.219 49.4375 491.531 49.4688C491.844 49.5 492.125 49.5312 492.375 49.5625C492.656 49.5938 492.859 49.5938 492.984 49.5625C493.172 49.5312 493.484 49.4688 493.922 49.375C494.391 49.25 494.875 49.125 495.375 49C495.906 48.875 496.406 48.75 496.875 48.625C497.344 48.5 497.672 48.4062 497.859 48.3438C497.859 48.4062 497.859 48.5156 497.859 48.6719C497.891 48.7969 497.906 48.8906 497.906 48.9531C497.906 49.5781 497.609 50.0938 497.016 50.5C496.453 50.9062 495.781 51.2344 495 51.4844C494.25 51.7031 493.469 51.8594 492.656 51.9531C491.875 52.0156 491.266 52.0469 490.828 52.0469C490.359 52.0469 489.875 52 489.375 51.9062C488.906 51.7812 488.484 51.5938 488.109 51.3438C487.734 51.0938 487.422 50.7812 487.172 50.4062C486.953 50 486.844 49.5156 486.844 48.9531ZM500.484 21.4844C500.891 21.4844 501.266 21.5 501.609 21.5312C501.953 21.5625 502.25 21.6406 502.5 21.7656C502.75 21.8906 502.953 22.0781 503.109 22.3281C503.266 22.5781 503.344 22.9219 503.344 23.3594C503.344 23.5469 503.344 23.75 503.344 23.9688C503.344 24.1875 503.312 24.4062 503.25 24.625C503.219 24.8125 503.141 24.9844 503.016 25.1406C502.891 25.2656 502.688 25.3281 502.406 25.3281C501.969 25.3281 501.609 25.1719 501.328 24.8594C501.078 24.5469 500.891 24.1875 500.766 23.7812C500.641 23.3438 500.562 22.9062 500.531 22.4688C500.5 22.0312 500.484 21.7031 500.484 21.4844ZM498.562 48.0625C498.562 47.9375 498.562 47.6875 498.562 47.3125C498.594 46.9062 498.609 46.6406 498.609 46.5156C499.609 44.2344 500.891 42.125 502.453 40.1875C504.016 38.25 505.781 36.5312 507.75 35.0312C507.812 35.0312 507.906 35.0156 508.031 34.9844C508.188 34.9219 508.297 34.8906 508.359 34.8906C509.203 34.8906 509.891 35.0781 510.422 35.4531C510.984 35.7969 511.422 36.2656 511.734 36.8594C512.078 37.4219 512.312 38.0625 512.438 38.7812C512.562 39.4688 512.625 40.1406 512.625 40.7969C512.625 42.0156 512.344 43.2969 511.781 44.6406C511.219 45.9531 510.453 47.1719 509.484 48.2969C508.547 49.3906 507.469 50.2969 506.25 51.0156C505.031 51.7031 503.766 52.0469 502.453 52.0469C501.141 52.0469 500.156 51.7031 499.5 51.0156C498.875 50.2969 498.562 49.3125 498.562 48.0625ZM502.219 47.5C502.219 47.8438 502.359 48.0781 502.641 48.2031C502.922 48.3281 503.203 48.3906 503.484 48.3906C504.266 48.3906 505.016 48.1875 505.734 47.7812C506.484 47.3438 507.141 46.8125 507.703 46.1875C508.297 45.5312 508.766 44.8125 509.109 44.0312C509.453 43.25 509.625 42.5 509.625 41.7812C509.625 41.4375 509.594 41.0625 509.531 40.6562C509.5 40.2188 509.406 39.8438 509.25 39.5312C509.094 39.1875 508.844 38.9219 508.5 38.7344C508.188 38.5469 507.734 38.5156 507.141 38.6406C506.703 38.7344 506.203 39.1406 505.641 39.8594C505.078 40.5781 504.531 41.4219 504 42.3906C503.5 43.3281 503.078 44.2812 502.734 45.25C502.391 46.1875 502.219 46.9375 502.219 47.5ZM514.969 49.8906C514.969 49.6094 514.969 49.3906 514.969 49.2344C514.969 49.0781 514.984 48.9375 515.016 48.8125C515.078 48.6562 515.156 48.5 515.25 48.3438C515.344 48.1875 515.469 47.9844 515.625 47.7344C515.875 47.2969 516.344 46.5312 517.031 45.4375C517.719 44.3438 518.453 43.1875 519.234 41.9688C520.016 40.75 520.75 39.5938 521.438 38.5C522.156 37.4062 522.656 36.6406 522.938 36.2031C522.969 36.1719 523.047 36.1562 523.172 36.1562C523.328 36.1562 523.438 36.1562 523.5 36.1562C523.562 36.1562 523.672 36.1562 523.828 36.1562C523.984 36.1562 524.078 36.1719 524.109 36.2031C524.141 36.2344 524.203 36.3125 524.297 36.4375C524.422 36.5625 524.547 36.7031 524.672 36.8594C524.828 36.9844 524.953 37.1094 525.047 37.2344C525.172 37.3594 525.266 37.4219 525.328 37.4219C525.609 37.4219 525.906 37.3281 526.219 37.1406C526.531 36.9531 526.844 36.75 527.156 36.5312C527.5 36.2812 527.844 36.0625 528.188 35.875C528.531 35.6875 528.891 35.5938 529.266 35.5938C529.672 35.5938 530.047 35.6875 530.391 35.875C530.734 36.0625 531.031 36.2969 531.281 36.5781C531.531 36.8594 531.719 37.1719 531.844 37.5156C532 37.8594 532.078 38.2031 532.078 38.5469C532.078 39.2656 531.969 39.9531 531.75 40.6094C531.562 41.2656 531.344 41.9219 531.094 42.5781C530.844 43.2031 530.609 43.8438 530.391 44.5C530.203 45.125 530.109 45.7812 530.109 46.4688C530.109 47.1562 530.188 47.6562 530.344 47.9688C530.5 48.25 530.938 48.3906 531.656 48.3906C532.5 48.3906 533.297 48.2656 534.047 48.0156C534.828 47.7656 535.625 47.6406 536.438 47.6406C536.438 48.3906 536.203 49.0156 535.734 49.5156C535.297 50.0156 534.734 50.4219 534.047 50.7344C533.391 51.0156 532.672 51.2188 531.891 51.3438C531.141 51.4375 530.453 51.4844 529.828 51.4844C528.641 51.4844 527.766 51.1562 527.203 50.5C526.672 49.8125 526.406 48.9062 526.406 47.7812C526.406 47.0312 526.531 46.3281 526.781 45.6719C527.062 45.0156 527.359 44.375 527.672 43.75C528.016 43.125 528.328 42.5 528.609 41.875C528.891 41.25 529.031 40.5781 529.031 39.8594C529.031 39.6719 529 39.4219 528.938 39.1094C528.875 38.7969 528.672 38.6406 528.328 38.6406C527.297 38.6406 526.359 38.9688 525.516 39.625C524.703 40.2812 523.953 41.1094 523.266 42.1094C522.609 43.1094 522 44.1875 521.438 45.3438C520.906 46.5 520.391 47.5781 519.891 48.5781C519.422 49.5781 518.969 50.4062 518.531 51.0625C518.094 51.7188 517.641 52.0469 517.172 52.0469C516.516 52.0469 515.984 51.8438 515.578 51.4375C515.172 51.0312 514.969 50.5156 514.969 49.8906ZM553.219 19.0469C553.219 19.5781 553.203 20.0781 553.172 20.5469C553.141 20.9844 553.031 21.3906 552.844 21.7656C552.688 22.1094 552.422 22.4062 552.047 22.6562C551.703 22.875 551.219 23.0469 550.594 23.1719C550.312 23.2344 550.094 23.2344 549.938 23.1719C549.781 23.0781 549.656 22.9688 549.562 22.8438C549.5 22.6875 549.469 22.5312 549.469 22.375V21.8594C549.469 21.5469 549.516 21.2969 549.609 21.1094C549.734 20.8906 549.859 20.7031 549.984 20.5469C550.141 20.3594 550.281 20.1719 550.406 19.9844C550.531 19.7969 550.594 19.5625 550.594 19.2812C550.594 18.5 550.453 17.7656 550.172 17.0781C549.891 16.3906 549.578 15.7188 549.234 15.0625C548.922 14.375 548.625 13.6875 548.344 13C548.062 12.3125 547.922 11.5781 547.922 10.7969C548.828 10.7969 549.609 11.0781 550.266 11.6406C550.953 12.1719 551.516 12.8594 551.953 13.7031C552.391 14.5156 552.703 15.4063 552.891 16.375C553.109 17.3438 553.219 18.2344 553.219 19.0469ZM545.344 16.4688V17.5469C545.344 17.9844 545.297 18.4219 545.203 18.8594C545.141 19.2656 545 19.625 544.781 19.9375C544.562 20.2188 544.219 20.3594 543.75 20.3594C543.656 20.3594 543.531 20.2969 543.375 20.1719C543.25 20.0156 543.188 19.8906 543.188 19.7969C543.375 18.7344 543.422 17.8281 543.328 17.0781C543.266 16.3281 543.125 15.7031 542.906 15.2031C542.688 14.6719 542.422 14.2188 542.109 13.8438C541.828 13.4688 541.547 13.1094 541.266 12.7656C540.984 12.4219 540.75 12.0625 540.562 11.6875C540.375 11.3125 540.281 10.8594 540.281 10.3281C541.156 10.3281 541.906 10.5 542.531 10.8438C543.188 11.1562 543.719 11.5938 544.125 12.1562C544.562 12.7188 544.875 13.375 545.062 14.125C545.25 14.875 545.344 15.6562 545.344 16.4688Z" fill="#172B30"/>
</svg>
