<svg width="412" height="98" viewBox="0 0 412 98" fill="none" xmlns="http://www.w3.org/2000/svg">
<path d="M24.0078 69.1685C18.2853 71.1211 6.86609 58.8236 2.34762 45.5692C-2.28737 31.9657 1.16945 19.707 2.34762 15.6854C3.89448 10.4607 6.23958 5.50578 9.3001 0.995697C21.8284 4.59417 33.4689 10.7596 43.4799 19.0992C49.2284 24.0907 56.2197 29.9226 61.023 40.0735C67.4317 53.5994 66.5125 67.0478 65.4508 67.2288C64.6093 67.3969 64.441 59.0952 57.9675 53.5089C57.1907 52.8365 51.2092 47.8192 43.7259 49.0477C37.2525 50.121 33.2519 55.2934 30.5071 58.8753C25.8074 65.0952 26.649 68.2763 24.0078 69.1685Z" fill="#BA4D59" fill-opacity="0.8"/>
<path d="M28.5521 61.6684C23.3733 59.2762 24.3055 41.8968 30.779 28.5648C34.633 20.9708 40.1036 14.3108 46.8072 9.05177C51.1983 5.45072 56.0215 2.41005 61.1653 0C66.0463 6.07762 74.5913 18.6725 75.6659 35.858C75.9507 40.5778 76.6757 55.1253 67.8071 65.5995C67.1597 66.3495 62.7319 71.4573 60.2073 70.384C57.6826 69.3107 60.2073 62.7159 56.5821 59.0434C52.6981 55.1641 44.2696 57.0908 40.1396 58.0736C32.3585 59.8452 30.8566 62.7417 28.5521 61.6684Z" fill="#602467" fill-opacity="0.8"/>
<path d="M32.76 58.94C30.7791 57.0132 39.9326 37.5649 58.7185 29.0562C71.8338 23.1079 84.5088 24.8406 90.6068 26.1467C92.0149 33.3845 91.5062 40.8641 89.1308 47.8451C87.8361 51.3494 83.9521 62.8452 72.9213 68.1469C64.4022 72.272 55.1323 70.9788 54.9122 69.8021C54.6921 68.6254 63.2241 68.0564 64.3375 63.6857C65.3732 59.5865 59.832 53.3408 53.5916 51.6339C43.6742 48.9442 34.456 60.5822 32.76 58.94Z" fill="#035D6F" fill-opacity="0.75"/>
<path d="M52.7111 53.677C52.0249 50.8968 60.4015 45.0132 69.2702 42.9701C82.6314 39.8795 94.7238 46.0477 100.576 49.6942C99.6436 52.7977 96.0314 63.3495 85.5962 69.1943C81.5572 71.4753 77.0162 72.7235 72.3774 72.828C64.0784 72.828 56.7246 68.7288 57.0094 67.2159C57.1907 66.2331 60.4015 66.8409 61.4761 64.9012C62.5507 62.9616 60.8029 60.065 59.4823 58.4357C56.5304 54.8667 53.1254 55.3322 52.7111 53.677Z" fill="#4D7C39" fill-opacity="0.8"/>
<path d="M37.356 76.216C37.3714 77.8554 37.7162 79.475 38.3701 80.9788C39.0239 82.4826 39.9734 83.8399 41.1623 84.9703C43.463 86.8012 46.3257 87.7831 49.2671 87.7505C52.523 88.1921 55.8336 87.5417 58.6795 85.9014C61.1135 84.3108 62.1363 83.0048 63.3016 83.3151C64.8163 83.7936 65.1918 86.8712 65.2954 89.3152C63.6395 90.7983 61.7719 92.0273 59.7541 92.9618C56.0626 94.5608 52.0361 95.2355 48.0242 94.9273C43.5834 94.8238 37.2524 94.6816 31.9571 90.3109C24.6033 84.2462 24.6292 74.4703 24.6292 72.647C24.6292 60.6081 33.6143 52.6814 36.7992 50.9486C39.9308 49.2501 43.4379 48.3611 47.0014 48.3624C50.6094 48.3104 54.156 49.2981 57.2165 51.2072C61.1164 53.6808 63.9017 57.5708 64.9846 62.0564C65.6703 65.2342 65.4505 68.5402 64.3503 71.5996C61.1135 72.4272 57.6955 73.216 54.0704 73.9013C48.5431 74.9632 42.964 75.7358 37.356 76.216ZM52.3485 65.8711C52.2716 64.6032 51.9383 63.3639 51.3687 62.2282C50.799 61.0925 50.0048 60.0839 49.0341 59.2633C48.4056 58.7705 47.669 58.4337 46.8849 58.2805C44.0884 57.7891 41.7967 60.2073 41.3307 60.6986C39.757 62.4466 38.9259 64.7375 39.0132 67.0866L52.3485 65.8711Z" fill="#BA4D59"/>
<path d="M132.922 46.5977C130.5 48.4596 127.831 49.3906 124.914 49.3906C122.883 49.3906 121.06 48.9349 119.445 48.0234C117.831 47.112 116.555 45.875 115.617 44.3125C114.693 42.737 114.23 40.9596 114.23 38.9805C114.23 37.0794 114.66 35.3867 115.52 33.9023C116.379 32.4049 117.557 31.2266 119.055 30.3672C120.552 29.5078 122.251 29.0781 124.152 29.0781C126.105 29.0781 127.824 29.5469 129.309 30.4844C130.806 31.4219 131.971 32.724 132.805 34.3906C133.638 36.0573 134.055 37.9844 134.055 40.1719V40.7969H117.707C117.941 41.9427 118.41 42.9388 119.113 43.7852C119.829 44.6315 120.715 45.2891 121.77 45.7578C122.824 46.2266 124.003 46.4609 125.305 46.4609C127.544 46.4609 129.589 45.7253 131.438 44.2539L132.922 46.5977ZM117.59 38.0625H131.027C130.884 36.8516 130.507 35.7969 129.895 34.8984C129.296 33.987 128.514 33.2773 127.551 32.7695C126.6 32.2617 125.526 32.0078 124.328 32.0078C123.117 32.0078 122.023 32.2617 121.047 32.7695C120.083 33.2773 119.296 33.987 118.684 34.8984C118.085 35.7969 117.72 36.8516 117.59 38.0625ZM171.484 49H168.281V38.5898C168.281 36.4935 167.819 34.8659 166.895 33.707C165.983 32.5352 164.694 31.9492 163.027 31.9492C161.348 31.9492 160.026 32.5417 159.062 33.7266C158.112 34.8984 157.637 36.5195 157.637 38.5898V49H154.434V38.5898C154.434 36.4935 153.971 34.8659 153.047 33.707C152.122 32.5352 150.827 31.9492 149.16 31.9492C147.48 31.9492 146.159 32.5417 145.195 33.7266C144.245 34.8984 143.77 36.5195 143.77 38.5898V49H140.566V29.4688H143.184L143.32 32.9648C143.971 31.6888 144.857 30.7253 145.977 30.0742C147.109 29.4102 148.444 29.0781 149.98 29.0781C151.621 29.0781 153.021 29.4492 154.18 30.1914C155.352 30.9206 156.224 31.9688 156.797 33.3359C157.435 31.9427 158.34 30.888 159.512 30.1719C160.697 29.4427 162.109 29.0781 163.75 29.0781C166.185 29.0781 168.079 29.8529 169.434 31.4023C170.801 32.9388 171.484 35.0872 171.484 37.8477V49ZM210.086 49H206.883V38.5898C206.883 36.4935 206.421 34.8659 205.496 33.707C204.585 32.5352 203.296 31.9492 201.629 31.9492C199.949 31.9492 198.628 32.5417 197.664 33.7266C196.714 34.8984 196.238 36.5195 196.238 38.5898V49H193.035V38.5898C193.035 36.4935 192.573 34.8659 191.648 33.707C190.724 32.5352 189.428 31.9492 187.762 31.9492C186.082 31.9492 184.76 32.5417 183.797 33.7266C182.846 34.8984 182.371 36.5195 182.371 38.5898V49H179.168V29.4688H181.785L181.922 32.9648C182.573 31.6888 183.458 30.7253 184.578 30.0742C185.711 29.4102 187.046 29.0781 188.582 29.0781C190.223 29.0781 191.622 29.4492 192.781 30.1914C193.953 30.9206 194.826 31.9688 195.398 33.3359C196.036 31.9427 196.941 30.888 198.113 30.1719C199.298 29.4427 200.711 29.0781 202.352 29.0781C204.786 29.0781 206.681 29.8529 208.035 31.4023C209.402 32.9388 210.086 35.0872 210.086 37.8477V49ZM226.441 49.3906C224.501 49.3906 222.757 48.9479 221.207 48.0625C219.658 47.1771 218.434 45.9727 217.535 44.4492C216.65 42.9128 216.207 41.1745 216.207 39.2344C216.207 37.3073 216.65 35.582 217.535 34.0586C218.434 32.5221 219.658 31.3112 221.207 30.4258C222.757 29.5273 224.501 29.0781 226.441 29.0781C228.382 29.0781 230.12 29.5273 231.656 30.4258C233.193 31.3112 234.404 32.5221 235.289 34.0586C236.174 35.582 236.617 37.3073 236.617 39.2344C236.617 41.1745 236.174 42.9128 235.289 44.4492C234.404 45.9727 233.193 47.1771 231.656 48.0625C230.12 48.9479 228.382 49.3906 226.441 49.3906ZM226.422 46.5C227.737 46.5 228.915 46.181 229.957 45.543C230.999 44.9049 231.819 44.0391 232.418 42.9453C233.03 41.8516 233.336 40.6081 233.336 39.2148C233.336 37.8477 233.03 36.6172 232.418 35.5234C231.819 34.4297 230.999 33.5638 229.957 32.9258C228.915 32.2878 227.737 31.9688 226.422 31.9688C225.107 31.9688 223.922 32.2878 222.867 32.9258C221.826 33.5638 220.999 34.4297 220.387 35.5234C219.788 36.6172 219.488 37.8477 219.488 39.2148C219.488 40.6081 219.788 41.8516 220.387 42.9453C220.999 44.0391 221.826 44.9049 222.867 45.543C223.922 46.181 225.107 46.5 226.422 46.5ZM254.262 48.5312C252.973 49.1042 251.716 49.3906 250.492 49.3906C249.32 49.3906 248.292 49.1367 247.406 48.6289C246.521 48.1081 245.831 47.3854 245.336 46.4609C244.841 45.5234 244.594 44.4362 244.594 43.1992V32.3398H241.176V29.4688H244.75V24.5859H247.797V29.4688H253.637V32.3398H247.797V42.6133C247.797 43.7852 248.109 44.7292 248.734 45.4453C249.372 46.1615 250.206 46.5195 251.234 46.5195C252.068 46.5195 252.901 46.2721 253.734 45.7773L254.262 48.5312ZM261.652 23.2969C261.105 23.2969 260.643 23.1081 260.266 22.7305C259.901 22.3398 259.719 21.8711 259.719 21.3242C259.719 20.7904 259.901 20.3346 260.266 19.957C260.643 19.5794 261.105 19.3906 261.652 19.3906C262.212 19.3906 262.681 19.5794 263.059 19.957C263.436 20.3346 263.625 20.7904 263.625 21.3242C263.625 21.8711 263.436 22.3398 263.059 22.7305C262.681 23.1081 262.212 23.2969 261.652 23.2969ZM263.254 49H260.051V29.4688H263.254V49ZM280.098 49.3906C278.158 49.3906 276.413 48.9479 274.863 48.0625C273.314 47.1771 272.09 45.9727 271.191 44.4492C270.306 42.9128 269.863 41.1745 269.863 39.2344C269.863 37.3073 270.306 35.582 271.191 34.0586C272.09 32.5221 273.314 31.3112 274.863 30.4258C276.413 29.5273 278.158 29.0781 280.098 29.0781C282.038 29.0781 283.776 29.5273 285.312 30.4258C286.849 31.3112 288.06 32.5221 288.945 34.0586C289.831 35.582 290.273 37.3073 290.273 39.2344C290.273 41.1745 289.831 42.9128 288.945 44.4492C288.06 45.9727 286.849 47.1771 285.312 48.0625C283.776 48.9479 282.038 49.3906 280.098 49.3906ZM280.078 46.5C281.393 46.5 282.572 46.181 283.613 45.543C284.655 44.9049 285.475 44.0391 286.074 42.9453C286.686 41.8516 286.992 40.6081 286.992 39.2148C286.992 37.8477 286.686 36.6172 286.074 35.5234C285.475 34.4297 284.655 33.5638 283.613 32.9258C282.572 32.2878 281.393 31.9688 280.078 31.9688C278.763 31.9688 277.578 32.2878 276.523 32.9258C275.482 33.5638 274.655 34.4297 274.043 35.5234C273.444 36.6172 273.145 37.8477 273.145 39.2148C273.145 40.6081 273.444 41.8516 274.043 42.9453C274.655 44.0391 275.482 44.9049 276.523 45.543C277.578 46.181 278.763 46.5 280.078 46.5ZM315.066 49H311.863V38.1016C311.863 36.2526 311.336 34.7747 310.281 33.668C309.227 32.5612 307.827 32.0078 306.082 32.0078C304.272 32.0078 302.801 32.6068 301.668 33.8047C300.548 34.9896 299.988 36.5521 299.988 38.4922V49H296.785V29.4688H299.578L299.695 32.6328C300.411 31.487 301.355 30.6081 302.527 29.9961C303.699 29.3841 305.079 29.0781 306.668 29.0781C309.259 29.0781 311.303 29.8594 312.801 31.4219C314.311 32.9844 315.066 35.1263 315.066 37.8477V49ZM321.363 47.3008L322.203 44.293C322.672 44.7357 323.206 45.1198 323.805 45.4453C324.404 45.7708 325.035 46.0247 325.699 46.207C326.363 46.3763 327.034 46.4609 327.711 46.4609C328.922 46.4609 329.898 46.194 330.641 45.6602C331.383 45.1263 331.754 44.4297 331.754 43.5703C331.754 42.9453 331.559 42.431 331.168 42.0273C330.79 41.6107 330.289 41.2526 329.664 40.9531C329.039 40.6536 328.368 40.3672 327.652 40.0938C326.78 39.7552 325.914 39.3711 325.055 38.9414C324.195 38.5117 323.479 37.9453 322.906 37.2422C322.346 36.5391 322.066 35.6146 322.066 34.4688C322.066 33.375 322.34 32.4245 322.887 31.6172C323.434 30.8099 324.195 30.1849 325.172 29.7422C326.161 29.2995 327.294 29.0781 328.57 29.0781C330.497 29.0781 332.392 29.5599 334.254 30.5234L333.297 33.4141C332.88 33.1406 332.398 32.8997 331.852 32.6914C331.305 32.4701 330.745 32.3008 330.172 32.1836C329.599 32.0664 329.059 32.0078 328.551 32.0078C327.6 32.0078 326.832 32.2292 326.246 32.6719C325.66 33.1016 325.367 33.681 325.367 34.4102C325.367 34.8268 325.484 35.2109 325.719 35.5625C325.966 35.901 326.376 36.2396 326.949 36.5781C327.522 36.9167 328.316 37.2943 329.332 37.7109C330.23 38.0755 331.116 38.4922 331.988 38.9609C332.861 39.4167 333.583 40.0091 334.156 40.7383C334.742 41.4544 335.035 42.3919 335.035 43.5508C335.035 44.6966 334.729 45.7122 334.117 46.5977C333.518 47.4701 332.678 48.1536 331.598 48.6484C330.53 49.1432 329.293 49.3906 327.887 49.3906C325.556 49.3906 323.382 48.694 321.363 47.3008Z" fill="#BA4D59"/>
<path d="M132.922 85.5977C130.5 87.4596 127.831 88.3906 124.914 88.3906C122.883 88.3906 121.06 87.9349 119.445 87.0234C117.831 86.112 116.555 84.875 115.617 83.3125C114.693 81.737 114.23 79.9596 114.23 77.9805C114.23 76.0794 114.66 74.3867 115.52 72.9023C116.379 71.4049 117.557 70.2266 119.055 69.3672C120.552 68.5078 122.251 68.0781 124.152 68.0781C126.105 68.0781 127.824 68.5469 129.309 69.4844C130.806 70.4219 131.971 71.724 132.805 73.3906C133.638 75.0573 134.055 76.9844 134.055 79.1719V79.7969H117.707C117.941 80.9427 118.41 81.9388 119.113 82.7852C119.829 83.6315 120.715 84.2891 121.77 84.7578C122.824 85.2266 124.003 85.4609 125.305 85.4609C127.544 85.4609 129.589 84.7253 131.438 83.2539L132.922 85.5977ZM117.59 77.0625H131.027C130.884 75.8516 130.507 74.7969 129.895 73.8984C129.296 72.987 128.514 72.2773 127.551 71.7695C126.6 71.2617 125.526 71.0078 124.328 71.0078C123.117 71.0078 122.023 71.2617 121.047 71.7695C120.083 72.2773 119.296 72.987 118.684 73.8984C118.085 74.7969 117.72 75.8516 117.59 77.0625ZM158.848 88H155.645V77.1016C155.645 75.2526 155.117 73.7747 154.062 72.668C153.008 71.5612 151.608 71.0078 149.863 71.0078C148.053 71.0078 146.582 71.6068 145.449 72.8047C144.329 73.9896 143.77 75.5521 143.77 77.4922V88H140.566V68.4688H143.359L143.477 71.6328C144.193 70.487 145.137 69.6081 146.309 68.9961C147.48 68.3841 148.861 68.0781 150.449 68.0781C153.04 68.0781 155.085 68.8594 156.582 70.4219C158.092 71.9844 158.848 74.1263 158.848 76.8477V88ZM177.449 87.5312C176.16 88.1042 174.904 88.3906 173.68 88.3906C172.508 88.3906 171.479 88.1367 170.594 87.6289C169.708 87.1081 169.018 86.3854 168.523 85.4609C168.029 84.5234 167.781 83.4362 167.781 82.1992V71.3398H164.363V68.4688H167.938V63.5859H170.984V68.4688H176.824V71.3398H170.984V81.6133C170.984 82.7852 171.297 83.7292 171.922 84.4453C172.56 85.1615 173.393 85.5195 174.422 85.5195C175.255 85.5195 176.089 85.2721 176.922 84.7773L177.449 87.5312ZM200.875 85.5977C198.453 87.4596 195.784 88.3906 192.867 88.3906C190.836 88.3906 189.013 87.9349 187.398 87.0234C185.784 86.112 184.508 84.875 183.57 83.3125C182.646 81.737 182.184 79.9596 182.184 77.9805C182.184 76.0794 182.613 74.3867 183.473 72.9023C184.332 71.4049 185.51 70.2266 187.008 69.3672C188.505 68.5078 190.204 68.0781 192.105 68.0781C194.059 68.0781 195.777 68.5469 197.262 69.4844C198.759 70.4219 199.924 71.724 200.758 73.3906C201.591 75.0573 202.008 76.9844 202.008 79.1719V79.7969H185.66C185.895 80.9427 186.363 81.9388 187.066 82.7852C187.783 83.6315 188.668 84.2891 189.723 84.7578C190.777 85.2266 191.956 85.4609 193.258 85.4609C195.497 85.4609 197.542 84.7253 199.391 83.2539L200.875 85.5977ZM185.543 77.0625H198.98C198.837 75.8516 198.46 74.7969 197.848 73.8984C197.249 72.987 196.467 72.2773 195.504 71.7695C194.553 71.2617 193.479 71.0078 192.281 71.0078C191.07 71.0078 189.977 71.2617 189 71.7695C188.036 72.2773 187.249 72.987 186.637 73.8984C186.038 74.7969 185.673 75.8516 185.543 77.0625ZM211.723 88H208.52V68.4688H211.332L211.469 72.3359C212.146 70.9948 213.096 69.9531 214.32 69.2109C215.557 68.4557 216.977 68.0781 218.578 68.0781C218.93 68.0781 219.288 68.0977 219.652 68.1367C220.017 68.1758 220.382 68.2344 220.746 68.3125L220.355 71.2031C219.639 71.0339 218.93 70.9492 218.227 70.9492C216.951 70.9492 215.818 71.2617 214.828 71.8867C213.852 72.5117 213.09 73.3711 212.543 74.4648C211.996 75.5586 211.723 76.8151 211.723 78.2344V88ZM237.395 87.5312C236.105 88.1042 234.849 88.3906 233.625 88.3906C232.453 88.3906 231.424 88.1367 230.539 87.6289C229.654 87.1081 228.964 86.3854 228.469 85.4609C227.974 84.5234 227.727 83.4362 227.727 82.1992V71.3398H224.309V68.4688H227.883V63.5859H230.93V68.4688H236.77V71.3398H230.93V81.6133C230.93 82.7852 231.242 83.7292 231.867 84.4453C232.505 85.1615 233.339 85.5195 234.367 85.5195C235.201 85.5195 236.034 85.2721 236.867 84.7773L237.395 87.5312ZM259.062 88H256.309L256.094 85.4219C255.378 86.3464 254.466 87.0755 253.359 87.6094C252.253 88.1302 251.016 88.3906 249.648 88.3906C248.242 88.3906 246.986 88.1172 245.879 87.5703C244.772 87.0104 243.9 86.2487 243.262 85.2852C242.637 84.3216 242.324 83.2279 242.324 82.0039C242.324 80.7148 242.663 79.582 243.34 78.6055C244.03 77.6159 244.961 76.8411 246.133 76.2812C247.318 75.7214 248.659 75.4414 250.156 75.4414C251.133 75.4414 252.129 75.5651 253.145 75.8125C254.16 76.0469 255.065 76.3724 255.859 76.7891V75.9688C255.859 74.9271 255.599 74.0417 255.078 73.3125C254.557 72.5703 253.861 72.0039 252.988 71.6133C252.116 71.2096 251.152 71.0078 250.098 71.0078C249.186 71.0078 248.255 71.1771 247.305 71.5156C246.354 71.8411 245.443 72.349 244.57 73.0391L243.516 70.2852C244.648 69.556 245.84 69.0091 247.09 68.6445C248.34 68.2669 249.577 68.0781 250.801 68.0781C252.493 68.0781 253.952 68.4232 255.176 69.1133C256.413 69.7904 257.37 70.7604 258.047 72.0234C258.724 73.2734 259.062 74.7578 259.062 76.4766V88ZM250.215 85.4609C251.217 85.4609 252.135 85.2526 252.969 84.8359C253.802 84.4193 254.479 83.8203 255 83.0391C255.521 82.2448 255.807 81.3073 255.859 80.2266V79.8945C255.143 79.3346 254.336 78.9049 253.438 78.6055C252.552 78.293 251.647 78.1367 250.723 78.1367C249.277 78.1367 248.066 78.4883 247.09 79.1914C246.126 79.8945 245.645 80.7865 245.645 81.8672C245.645 82.5443 245.84 83.1562 246.23 83.7031C246.634 84.25 247.181 84.6797 247.871 84.9922C248.561 85.3047 249.342 85.4609 250.215 85.4609ZM268.426 62.2969C267.879 62.2969 267.417 62.1081 267.039 61.7305C266.674 61.3398 266.492 60.8711 266.492 60.3242C266.492 59.7904 266.674 59.3346 267.039 58.957C267.417 58.5794 267.879 58.3906 268.426 58.3906C268.986 58.3906 269.454 58.5794 269.832 58.957C270.21 59.3346 270.398 59.7904 270.398 60.3242C270.398 60.8711 270.21 61.3398 269.832 61.7305C269.454 62.1081 268.986 62.2969 268.426 62.2969ZM270.027 88H266.824V68.4688H270.027V88ZM296.48 88H293.277V77.1016C293.277 75.2526 292.75 73.7747 291.695 72.668C290.641 71.5612 289.241 71.0078 287.496 71.0078C285.686 71.0078 284.215 71.6068 283.082 72.8047C281.962 73.9896 281.402 75.5521 281.402 77.4922V88H278.199V68.4688H280.992L281.109 71.6328C281.826 70.487 282.77 69.6081 283.941 68.9961C285.113 68.3841 286.493 68.0781 288.082 68.0781C290.673 68.0781 292.717 68.8594 294.215 70.4219C295.725 71.9844 296.48 74.1263 296.48 76.8477V88ZM335.062 88H331.859V77.5898C331.859 75.4935 331.397 73.8659 330.473 72.707C329.561 71.5352 328.272 70.9492 326.605 70.9492C324.926 70.9492 323.604 71.5417 322.641 72.7266C321.69 73.8984 321.215 75.5195 321.215 77.5898V88H318.012V77.5898C318.012 75.4935 317.549 73.8659 316.625 72.707C315.701 71.5352 314.405 70.9492 312.738 70.9492C311.059 70.9492 309.737 71.5417 308.773 72.7266C307.823 73.8984 307.348 75.5195 307.348 77.5898V88H304.145V68.4688H306.762L306.898 71.9648C307.549 70.6888 308.435 69.7253 309.555 69.0742C310.688 68.4102 312.022 68.0781 313.559 68.0781C315.199 68.0781 316.599 68.4492 317.758 69.1914C318.93 69.9206 319.802 70.9688 320.375 72.3359C321.013 70.9427 321.918 69.888 323.09 69.1719C324.275 68.4427 325.688 68.0781 327.328 68.0781C329.763 68.0781 331.658 68.8529 333.012 70.4023C334.379 71.9388 335.062 74.0872 335.062 76.8477V88ZM359.875 85.5977C357.453 87.4596 354.784 88.3906 351.867 88.3906C349.836 88.3906 348.013 87.9349 346.398 87.0234C344.784 86.112 343.508 84.875 342.57 83.3125C341.646 81.737 341.184 79.9596 341.184 77.9805C341.184 76.0794 341.613 74.3867 342.473 72.9023C343.332 71.4049 344.51 70.2266 346.008 69.3672C347.505 68.5078 349.204 68.0781 351.105 68.0781C353.059 68.0781 354.777 68.5469 356.262 69.4844C357.759 70.4219 358.924 71.724 359.758 73.3906C360.591 75.0573 361.008 76.9844 361.008 79.1719V79.7969H344.66C344.895 80.9427 345.363 81.9388 346.066 82.7852C346.783 83.6315 347.668 84.2891 348.723 84.7578C349.777 85.2266 350.956 85.4609 352.258 85.4609C354.497 85.4609 356.542 84.7253 358.391 83.2539L359.875 85.5977ZM344.543 77.0625H357.98C357.837 75.8516 357.46 74.7969 356.848 73.8984C356.249 72.987 355.467 72.2773 354.504 71.7695C353.553 71.2617 352.479 71.0078 351.281 71.0078C350.07 71.0078 348.977 71.2617 348 71.7695C347.036 72.2773 346.249 72.987 345.637 73.8984C345.038 74.7969 344.673 75.8516 344.543 77.0625ZM385.801 88H382.598V77.1016C382.598 75.2526 382.07 73.7747 381.016 72.668C379.961 71.5612 378.561 71.0078 376.816 71.0078C375.007 71.0078 373.535 71.6068 372.402 72.8047C371.283 73.9896 370.723 75.5521 370.723 77.4922V88H367.52V68.4688H370.312L370.43 71.6328C371.146 70.487 372.09 69.6081 373.262 68.9961C374.434 68.3841 375.814 68.0781 377.402 68.0781C379.993 68.0781 382.038 68.8594 383.535 70.4219C385.046 71.9844 385.801 74.1263 385.801 76.8477V88ZM404.402 87.5312C403.113 88.1042 401.857 88.3906 400.633 88.3906C399.461 88.3906 398.432 88.1367 397.547 87.6289C396.661 87.1081 395.971 86.3854 395.477 85.4609C394.982 84.5234 394.734 83.4362 394.734 82.1992V71.3398H391.316V68.4688H394.891V63.5859H397.938V68.4688H403.777V71.3398H397.938V81.6133C397.938 82.7852 398.25 83.7292 398.875 84.4453C399.513 85.1615 400.346 85.5195 401.375 85.5195C402.208 85.5195 403.042 85.2721 403.875 84.7773L404.402 87.5312Z" fill="#BA4D59"/>
</svg>
