<svg width="587" height="168" viewBox="0 0 587 168" fill="none" xmlns="http://www.w3.org/2000/svg">
<path d="M149.562 126H126.375L110.375 72.5625L94.3125 126H71.125L40.625 32.25H66.625L82.6875 86.125L98.75 32.25H121.938L137.938 86L153.938 32.25H179.938L149.562 126ZM186.875 126V32.25H249.375V53.8125H211.625V68.3125H246.875V89.875H211.625V104.438H250V126H186.875ZM309.688 126H283.75L320.375 32.25H346.312L382.875 126H356.938L350.875 109.312H315.75L309.688 126ZM323.625 87.75H343.062L333.312 61L323.625 87.75ZM470.875 126H443.5L425.625 95H414.5V126H389.75V32.25H427.5C435.625 32.25 442.542 33.4792 448.25 35.9375C453.958 38.3958 458.312 41.9792 461.312 46.6875C464.354 51.3542 465.875 57 465.875 63.625C465.875 69.8333 464.542 75.1875 461.875 79.6875C459.208 84.1875 455.354 87.7292 450.312 90.3125L470.875 126ZM414.5 75.9375H425.562C430.521 75.9375 434.25 75.0208 436.75 73.1875C439.292 71.3125 440.562 68.5417 440.562 64.875C440.562 61.2083 439.292 58.4583 436.75 56.625C434.25 54.75 430.521 53.8125 425.562 53.8125H414.5V75.9375ZM478.375 126V32.25H540.875V53.8125H503.125V68.3125H538.375V89.875H503.125V104.438H541.5V126H478.375Z" fill="#FBF9ED"/>
<path d="M2 114.75C1.29167 113.167 0.979167 111.625 1.0625 110.125C1.14583 108.583 1.47917 107.146 2.0625 105.812C2.6875 104.438 3.47917 103.208 4.4375 102.125C5.4375 101 6.5 100.042 7.625 99.25C8.75 98.4167 9.875 97.7917 11 97.375C12.1667 96.9583 13.1875 96.7917 14.0625 96.875C14.9375 96.9167 15.625 97.2292 16.125 97.8125C16.625 98.3958 16.7917 99.2917 16.625 100.5C16.625 102.125 16.1042 103.542 15.0625 104.75C14.0625 105.958 12.9375 107.042 11.6875 108C10.4792 108.958 9.35417 109.833 8.3125 110.625C7.3125 111.375 6.8125 112.083 6.8125 112.75C6.8125 113.125 7.02083 113.417 7.4375 113.625C7.89583 113.833 8.41667 114 9 114.125C9.58333 114.208 10.1667 114.271 10.75 114.312C11.3333 114.354 11.75 114.396 12 114.438C15.9167 113.604 18.8542 113.104 20.8125 112.938C22.7708 112.729 24 112.75 24.5 113C25 113.208 24.8958 113.562 24.1875 114.062C23.5208 114.521 22.4792 115.021 21.0625 115.562C19.6458 116.062 18 116.521 16.125 116.938C14.25 117.354 12.3958 117.604 10.5625 117.688C8.72917 117.729 7.02083 117.542 5.4375 117.125C3.89583 116.708 2.75 115.917 2 114.75ZM12.9375 100.5C12.1042 100.5 11.3125 100.729 10.5625 101.188C9.8125 101.646 9.125 102.229 8.5 102.938C7.91667 103.604 7.41667 104.354 7 105.188C6.58333 105.979 6.27083 106.729 6.0625 107.438C6.14583 107.479 6.20833 107.5 6.25 107.5H6.4375C7.02083 107.5 7.6875 107.25 8.4375 106.75C9.1875 106.25 9.89583 105.646 10.5625 104.938C11.2292 104.188 11.7917 103.417 12.25 102.625C12.7083 101.833 12.9375 101.125 12.9375 100.5ZM53.25 118.062C52.4583 118.062 51.7292 117.917 51.0625 117.625C50.4375 117.333 49.9167 116.917 49.5 116.375C49.0833 115.833 48.7917 115.229 48.625 114.562C48.4583 113.854 48.4792 113.104 48.6875 112.312C48.6875 110.979 48.9167 109.75 49.375 108.625C49.875 107.458 50.4167 106.354 51 105.312C51.625 104.229 52.1667 103.167 52.625 102.125C53.125 101.042 53.375 99.8958 53.375 98.6875C52.4583 98.6875 51.4792 98.9792 50.4375 99.5625C49.3958 100.146 48.3333 100.917 47.25 101.875C46.2083 102.833 45.1667 103.917 44.125 105.125C43.125 106.292 42.1667 107.479 41.25 108.688C40.375 109.854 39.6042 110.979 38.9375 112.062C38.3125 113.146 37.8333 114.042 37.5 114.75C37.4167 114.792 37.2083 114.833 36.875 114.875C36.5417 114.875 36.3333 114.875 36.25 114.875C35.5833 115.208 35.1667 115.208 35 114.875C34.875 114.5 34.875 113.938 35 113.188C35.1667 112.438 35.4167 111.604 35.75 110.688C36.0833 109.729 36.3958 108.833 36.6875 108C37.0208 107.125 37.2708 106.417 37.4375 105.875C37.6042 105.292 37.625 105 37.5 105C37.625 104.833 37.7708 104.562 37.9375 104.188C38.1042 103.812 38.2708 103.417 38.4375 103C38.6042 102.583 38.75 102.208 38.875 101.875C39 101.5 39.0625 101.208 39.0625 101C39.0625 100.625 38.9167 100.396 38.625 100.312C38.375 100.188 38.125 100.125 37.875 100.125C37.125 99.7083 36.3125 99.9583 35.4375 100.875C34.6042 101.75 33.6875 103.021 32.6875 104.688C31.7292 106.312 30.6667 108.188 29.5 110.312C28.375 112.396 27.125 114.417 25.75 116.375C24.7917 116.375 24.0625 116.25 23.5625 116C23.0625 115.75 22.8125 115.125 22.8125 114.125C23.1458 113.667 23.6458 112.812 24.3125 111.562C24.9792 110.271 25.7292 108.854 26.5625 107.312C27.3958 105.771 28.2708 104.208 29.1875 102.625C30.1458 101.042 31.0417 99.7083 31.875 98.625C32.75 97.5 33.5208 96.75 34.1875 96.375C34.8958 95.9583 35.4583 96.1458 35.875 96.9375C36.5833 96.4792 37.3542 96.0833 38.1875 95.75C39.0625 95.4167 39.9375 95.25 40.8125 95.25C41.3958 95.25 41.875 95.4375 42.25 95.8125C42.6667 96.1458 42.9792 96.5833 43.1875 97.125C43.4375 97.625 43.625 98.1667 43.75 98.75C43.875 99.2917 43.9375 99.7708 43.9375 100.188C44.3958 99.8958 45.1458 99.3958 46.1875 98.6875C47.2708 97.9375 48.4167 97.1875 49.625 96.4375C50.875 95.6875 52.0833 95.0417 53.25 94.5C54.4583 93.9167 55.4375 93.625 56.1875 93.625C56.8542 93.625 57.4167 93.875 57.875 94.375C58.375 94.8333 58.625 95.4167 58.625 96.125C57.125 99.7917 55.9375 102.729 55.0625 104.938C54.2292 107.146 53.6667 108.875 53.375 110.125C53.125 111.333 53.125 112.208 53.375 112.75C53.6667 113.25 54.1667 113.646 54.875 113.938C56 113.938 57.0833 113.75 58.125 113.375C59.1667 113 60.1875 112.583 61.1875 112.125C62.2292 111.667 63.2708 111.25 64.3125 110.875C65.3542 110.5 66.4583 110.312 67.625 110.312C67.625 110.771 67.5 111.208 67.25 111.625C67.0417 112 66.7083 112.292 66.25 112.5C65.9167 112.708 65.3125 113.042 64.4375 113.5C63.6042 113.917 62.6875 114.375 61.6875 114.875C60.6875 115.333 59.7292 115.792 58.8125 116.25C57.9375 116.708 57.3125 117.021 56.9375 117.188C56.1042 117.562 55.4583 117.812 55 117.938C54.5833 118.021 54 118.062 53.25 118.062ZM95.9375 118.062C95.1458 118.062 94.4167 117.917 93.75 117.625C93.125 117.333 92.6042 116.917 92.1875 116.375C91.7708 115.833 91.4792 115.229 91.3125 114.562C91.1458 113.854 91.1667 113.104 91.375 112.312C91.375 110.979 91.6042 109.75 92.0625 108.625C92.5625 107.458 93.1042 106.354 93.6875 105.312C94.3125 104.229 94.8542 103.167 95.3125 102.125C95.8125 101.042 96.0625 99.8958 96.0625 98.6875C95.1458 98.6875 94.1667 98.9792 93.125 99.5625C92.0833 100.146 91.0208 100.917 89.9375 101.875C88.8958 102.833 87.8542 103.917 86.8125 105.125C85.8125 106.292 84.8542 107.479 83.9375 108.688C83.0625 109.854 82.2917 110.979 81.625 112.062C81 113.146 80.5208 114.042 80.1875 114.75C80.1042 114.792 79.8958 114.833 79.5625 114.875C79.2292 114.875 79.0208 114.875 78.9375 114.875C78.2708 115.208 77.8542 115.208 77.6875 114.875C77.5625 114.5 77.5625 113.938 77.6875 113.188C77.8542 112.438 78.1042 111.604 78.4375 110.688C78.7708 109.729 79.0833 108.833 79.375 108C79.7083 107.125 79.9583 106.417 80.125 105.875C80.2917 105.292 80.3125 105 80.1875 105C80.3125 104.833 80.4583 104.562 80.625 104.188C80.7917 103.812 80.9583 103.417 81.125 103C81.2917 102.583 81.4375 102.208 81.5625 101.875C81.6875 101.5 81.75 101.208 81.75 101C81.75 100.625 81.6042 100.396 81.3125 100.312C81.0625 100.188 80.8125 100.125 80.5625 100.125C79.8125 99.7083 79 99.9583 78.125 100.875C77.2917 101.75 76.375 103.021 75.375 104.688C74.4167 106.312 73.3542 108.188 72.1875 110.312C71.0625 112.396 69.8125 114.417 68.4375 116.375C67.4792 116.375 66.75 116.25 66.25 116C65.75 115.75 65.5 115.125 65.5 114.125C65.8333 113.667 66.3333 112.812 67 111.562C67.6667 110.271 68.4167 108.854 69.25 107.312C70.0833 105.771 70.9583 104.208 71.875 102.625C72.8333 101.042 73.7292 99.7083 74.5625 98.625C75.4375 97.5 76.2083 96.75 76.875 96.375C77.5833 95.9583 78.1458 96.1458 78.5625 96.9375C79.2708 96.4792 80.0417 96.0833 80.875 95.75C81.75 95.4167 82.625 95.25 83.5 95.25C84.0833 95.25 84.5625 95.4375 84.9375 95.8125C85.3542 96.1458 85.6667 96.5833 85.875 97.125C86.125 97.625 86.3125 98.1667 86.4375 98.75C86.5625 99.2917 86.625 99.7708 86.625 100.188C87.0833 99.8958 87.8333 99.3958 88.875 98.6875C89.9583 97.9375 91.1042 97.1875 92.3125 96.4375C93.5625 95.6875 94.7708 95.0417 95.9375 94.5C97.1458 93.9167 98.125 93.625 98.875 93.625C99.5417 93.625 100.104 93.875 100.562 94.375C101.062 94.8333 101.312 95.4167 101.312 96.125C99.8125 99.7917 98.625 102.729 97.75 104.938C96.9167 107.146 96.3542 108.875 96.0625 110.125C95.8125 111.333 95.8125 112.208 96.0625 112.75C96.3542 113.25 96.8542 113.646 97.5625 113.938C98.6875 113.938 99.7708 113.75 100.812 113.375C101.854 113 102.875 112.583 103.875 112.125C104.917 111.667 105.958 111.25 107 110.875C108.042 110.5 109.146 110.312 110.312 110.312C110.312 110.771 110.188 111.208 109.938 111.625C109.729 112 109.396 112.292 108.938 112.5C108.604 112.708 108 113.042 107.125 113.5C106.292 113.917 105.375 114.375 104.375 114.875C103.375 115.333 102.417 115.792 101.5 116.25C100.625 116.708 100 117.021 99.625 117.188C98.7917 117.562 98.1458 117.812 97.6875 117.938C97.2708 118.021 96.6875 118.062 95.9375 118.062ZM108.938 112.75C108.938 112.583 108.938 112.25 108.938 111.75C108.979 111.208 109 110.854 109 110.688C110.333 107.646 112.042 104.833 114.125 102.25C116.208 99.6667 118.562 97.375 121.188 95.375C121.271 95.375 121.396 95.3542 121.562 95.3125C121.771 95.2292 121.917 95.1875 122 95.1875C123.125 95.1875 124.042 95.4375 124.75 95.9375C125.5 96.3958 126.083 97.0208 126.5 97.8125C126.958 98.5625 127.271 99.4167 127.438 100.375C127.604 101.292 127.688 102.188 127.688 103.062C127.688 104.688 127.312 106.396 126.562 108.188C125.812 109.938 124.792 111.562 123.5 113.062C122.25 114.521 120.812 115.729 119.188 116.688C117.562 117.604 115.875 118.062 114.125 118.062C112.375 118.062 111.062 117.604 110.188 116.688C109.354 115.729 108.938 114.417 108.938 112.75ZM113.812 112C113.812 112.458 114 112.771 114.375 112.938C114.75 113.104 115.125 113.188 115.5 113.188C116.542 113.188 117.542 112.917 118.5 112.375C119.5 111.792 120.375 111.083 121.125 110.25C121.917 109.375 122.542 108.417 123 107.375C123.458 106.333 123.688 105.333 123.688 104.375C123.688 103.917 123.646 103.417 123.562 102.875C123.521 102.292 123.396 101.792 123.188 101.375C122.979 100.917 122.646 100.562 122.188 100.312C121.771 100.062 121.167 100.021 120.375 100.188C119.792 100.312 119.125 100.854 118.375 101.812C117.625 102.771 116.896 103.896 116.188 105.188C115.521 106.438 114.958 107.708 114.5 109C114.042 110.25 113.812 111.25 113.812 112ZM129.625 111.938C129.625 110.729 129.854 109.521 130.312 108.312C130.771 107.104 131.312 105.917 131.938 104.75C132.562 103.542 133.188 102.354 133.812 101.188C134.479 100.021 134.979 98.875 135.312 97.75C134.521 98.2083 133.833 98.4792 133.25 98.5625C132.708 98.6042 132.042 98.625 131.25 98.625C131.167 98.625 130.896 98.625 130.438 98.625C130.021 98.5833 129.75 98.5625 129.625 98.5625C129.875 97.6458 130.333 96.8333 131 96.125C131.667 95.375 132.417 94.75 133.25 94.25C134.125 93.7083 135.021 93.2708 135.938 92.9375C136.896 92.5625 137.75 92.2708 138.5 92.0625C139.75 90.1042 140.771 88.1458 141.562 86.1875C142.354 84.1875 143.146 82.25 143.938 80.375C144.771 78.4583 145.729 76.6458 146.812 74.9375C147.938 73.1875 149.438 71.5833 151.312 70.125L151.625 72.5L143.812 90.8125C144.271 90.6875 144.833 90.5625 145.5 90.4375C146.167 90.3125 146.833 90.1875 147.5 90.0625C148.208 89.9375 148.875 89.8333 149.5 89.75C150.167 89.625 150.729 89.5 151.188 89.375C151.229 89.375 151.354 89.375 151.562 89.375C151.771 89.3333 151.938 89.3125 152.062 89.3125C152.646 89.3125 153.125 89.4167 153.5 89.625C153.875 89.8333 154.188 90.2917 154.438 91C151.604 91.8333 149.042 92.7083 146.75 93.625C144.458 94.5417 142.458 95.75 140.75 97.25C139.083 98.7083 137.708 100.583 136.625 102.875C135.583 105.125 134.854 108.021 134.438 111.562C134.438 112.312 134.479 113 134.562 113.625C134.646 114.25 135.167 114.625 136.125 114.75C137.083 114.75 137.979 114.562 138.812 114.188C139.646 113.812 140.458 113.417 141.25 113C142.042 112.542 142.833 112.125 143.625 111.75C144.458 111.375 145.354 111.188 146.312 111.188C146.312 112.188 145.875 113.104 145 113.938C144.125 114.771 143.062 115.5 141.812 116.125C140.604 116.75 139.354 117.229 138.062 117.562C136.771 117.896 135.708 118.062 134.875 118.062C134.042 118.062 133.292 117.896 132.625 117.562C131.958 117.229 131.396 116.792 130.938 116.25C130.521 115.667 130.188 115 129.938 114.25C129.729 113.5 129.625 112.729 129.625 111.938ZM146.062 113.938C146.062 113.354 146.125 112.854 146.25 112.438C146.375 111.979 146.604 111.396 146.938 110.688C147.229 110.271 147.75 109.479 148.5 108.312C149.292 107.146 150.104 105.917 150.938 104.625C151.812 103.333 152.625 102.125 153.375 101C154.167 99.8333 154.708 99.0208 155 98.5625C155.375 98.0208 155.667 97.7292 155.875 97.6875C156.083 97.6458 156.479 97.625 157.062 97.625C157.438 97.625 157.833 97.6458 158.25 97.6875C158.708 97.7292 159 98.0208 159.125 98.5625C158.542 99.9792 157.75 101.333 156.75 102.625C155.792 103.875 154.833 105.125 153.875 106.375C152.958 107.625 152.146 108.917 151.438 110.25C150.729 111.542 150.375 112.938 150.375 114.438C150.542 114.438 150.792 114.458 151.125 114.5C151.5 114.542 151.896 114.583 152.312 114.625C152.729 114.667 153.104 114.708 153.438 114.75C153.812 114.792 154.083 114.792 154.25 114.75C154.5 114.708 154.917 114.625 155.5 114.5C156.125 114.333 156.771 114.167 157.438 114C158.146 113.833 158.812 113.667 159.438 113.5C160.062 113.333 160.5 113.208 160.75 113.125C160.75 113.208 160.75 113.354 160.75 113.562C160.792 113.729 160.812 113.854 160.812 113.938C160.812 114.771 160.417 115.458 159.625 116C158.875 116.542 157.979 116.979 156.938 117.312C155.938 117.604 154.896 117.812 153.812 117.938C152.771 118.021 151.958 118.062 151.375 118.062C150.75 118.062 150.104 118 149.438 117.875C148.812 117.708 148.25 117.458 147.75 117.125C147.25 116.792 146.833 116.375 146.5 115.875C146.208 115.333 146.062 114.688 146.062 113.938ZM164.25 77.3125C164.792 77.3125 165.292 77.3333 165.75 77.375C166.208 77.4167 166.604 77.5208 166.938 77.6875C167.271 77.8542 167.542 78.1042 167.75 78.4375C167.958 78.7708 168.062 79.2292 168.062 79.8125C168.062 80.0625 168.062 80.3333 168.062 80.625C168.062 80.9167 168.021 81.2083 167.938 81.5C167.896 81.75 167.792 81.9792 167.625 82.1875C167.458 82.3542 167.188 82.4375 166.812 82.4375C166.229 82.4375 165.75 82.2292 165.375 81.8125C165.042 81.3958 164.792 80.9167 164.625 80.375C164.458 79.7917 164.354 79.2083 164.312 78.625C164.271 78.0417 164.25 77.6042 164.25 77.3125ZM161.688 112.75C161.688 112.583 161.688 112.25 161.688 111.75C161.729 111.208 161.75 110.854 161.75 110.688C163.083 107.646 164.792 104.833 166.875 102.25C168.958 99.6667 171.312 97.375 173.938 95.375C174.021 95.375 174.146 95.3542 174.312 95.3125C174.521 95.2292 174.667 95.1875 174.75 95.1875C175.875 95.1875 176.792 95.4375 177.5 95.9375C178.25 96.3958 178.833 97.0208 179.25 97.8125C179.708 98.5625 180.021 99.4167 180.188 100.375C180.354 101.292 180.438 102.188 180.438 103.062C180.438 104.688 180.062 106.396 179.312 108.188C178.562 109.938 177.542 111.562 176.25 113.062C175 114.521 173.562 115.729 171.938 116.688C170.312 117.604 168.625 118.062 166.875 118.062C165.125 118.062 163.812 117.604 162.938 116.688C162.104 115.729 161.688 114.417 161.688 112.75ZM166.562 112C166.562 112.458 166.75 112.771 167.125 112.938C167.5 113.104 167.875 113.188 168.25 113.188C169.292 113.188 170.292 112.917 171.25 112.375C172.25 111.792 173.125 111.083 173.875 110.25C174.667 109.375 175.292 108.417 175.75 107.375C176.208 106.333 176.438 105.333 176.438 104.375C176.438 103.917 176.396 103.417 176.312 102.875C176.271 102.292 176.146 101.792 175.938 101.375C175.729 100.917 175.396 100.562 174.938 100.312C174.521 100.062 173.917 100.021 173.125 100.188C172.542 100.312 171.875 100.854 171.125 101.812C170.375 102.771 169.646 103.896 168.938 105.188C168.271 106.438 167.708 107.708 167.25 109C166.792 110.25 166.562 111.25 166.562 112ZM183.562 115.188C183.562 114.812 183.562 114.521 183.562 114.312C183.562 114.104 183.583 113.917 183.625 113.75C183.708 113.542 183.812 113.333 183.938 113.125C184.062 112.917 184.229 112.646 184.438 112.312C184.771 111.729 185.396 110.708 186.312 109.25C187.229 107.792 188.208 106.25 189.25 104.625C190.292 103 191.271 101.458 192.188 100C193.146 98.5417 193.812 97.5208 194.188 96.9375C194.229 96.8958 194.333 96.875 194.5 96.875C194.708 96.875 194.854 96.875 194.938 96.875C195.021 96.875 195.167 96.875 195.375 96.875C195.583 96.875 195.708 96.8958 195.75 96.9375C195.792 96.9792 195.875 97.0833 196 97.25C196.167 97.4167 196.333 97.6042 196.5 97.8125C196.708 97.9792 196.875 98.1458 197 98.3125C197.167 98.4792 197.292 98.5625 197.375 98.5625C197.75 98.5625 198.146 98.4375 198.562 98.1875C198.979 97.9375 199.396 97.6667 199.812 97.375C200.271 97.0417 200.729 96.75 201.188 96.5C201.646 96.25 202.125 96.125 202.625 96.125C203.167 96.125 203.667 96.25 204.125 96.5C204.583 96.75 204.979 97.0625 205.312 97.4375C205.646 97.8125 205.896 98.2292 206.062 98.6875C206.271 99.1458 206.375 99.6042 206.375 100.062C206.375 101.021 206.229 101.938 205.938 102.812C205.688 103.688 205.396 104.562 205.062 105.438C204.729 106.271 204.417 107.125 204.125 108C203.875 108.833 203.75 109.708 203.75 110.625C203.75 111.542 203.854 112.208 204.062 112.625C204.271 113 204.854 113.188 205.812 113.188C206.938 113.188 208 113.021 209 112.688C210.042 112.354 211.104 112.188 212.188 112.188C212.188 113.188 211.875 114.021 211.25 114.688C210.667 115.354 209.917 115.896 209 116.312C208.125 116.688 207.167 116.958 206.125 117.125C205.125 117.25 204.208 117.312 203.375 117.312C201.792 117.312 200.625 116.875 199.875 116C199.167 115.083 198.812 113.875 198.812 112.375C198.812 111.375 198.979 110.438 199.312 109.562C199.688 108.688 200.083 107.833 200.5 107C200.958 106.167 201.375 105.333 201.75 104.5C202.125 103.667 202.312 102.771 202.312 101.812C202.312 101.562 202.271 101.229 202.188 100.812C202.104 100.396 201.833 100.188 201.375 100.188C200 100.188 198.75 100.625 197.625 101.5C196.542 102.375 195.542 103.479 194.625 104.812C193.75 106.146 192.938 107.583 192.188 109.125C191.479 110.667 190.792 112.104 190.125 113.438C189.5 114.771 188.896 115.875 188.312 116.75C187.729 117.625 187.125 118.062 186.5 118.062C185.625 118.062 184.917 117.792 184.375 117.25C183.833 116.708 183.562 116.021 183.562 115.188ZM210.562 111.062C210.562 110.271 210.667 109.583 210.875 109C211.125 108.417 211.729 108.125 212.688 108.125C212.771 108.125 212.958 108.146 213.25 108.188C213.583 108.188 213.812 108.208 213.938 108.25C213.896 110.208 214.208 111.688 214.875 112.688C215.542 113.646 216.792 114.125 218.625 114.125C220.125 114.125 221.604 113.896 223.062 113.438C224.521 112.979 225.833 112.312 227 111.438C228.208 110.521 229.167 109.417 229.875 108.125C230.625 106.833 231 105.375 231 103.75C231 102.75 230.646 102.042 229.938 101.625C229.271 101.208 228.521 100.875 227.688 100.625C226.854 100.375 226.083 100.104 225.375 99.8125C224.708 99.4792 224.375 98.9167 224.375 98.125C224.375 97.1667 224.958 96.25 226.125 95.375C227.292 94.5 228.667 93.7292 230.25 93.0625C231.833 92.3542 233.396 91.8125 234.938 91.4375C236.521 91.0208 237.729 90.8125 238.562 90.8125C238.562 92.0208 238.292 92.875 237.75 93.375C237.25 93.875 236.625 94.2708 235.875 94.5625C235.125 94.8542 234.354 95.1458 233.562 95.4375C232.812 95.6875 232.188 96.1875 231.688 96.9375C232.354 97.4792 232.896 97.9792 233.312 98.4375C233.771 98.8542 234.125 99.3125 234.375 99.8125C234.625 100.312 234.792 100.875 234.875 101.5C234.958 102.083 235 102.792 235 103.625C235 105.792 234.521 107.771 233.562 109.562C232.646 111.312 231.438 112.833 229.938 114.125C228.438 115.375 226.729 116.354 224.812 117.062C222.896 117.729 220.938 118.062 218.938 118.062C217.854 118.062 216.792 117.938 215.75 117.688C214.75 117.396 213.854 116.958 213.062 116.375C212.312 115.792 211.708 115.062 211.25 114.188C210.792 113.312 210.562 112.271 210.562 111.062ZM272.75 114.75C272.042 113.167 271.729 111.625 271.812 110.125C271.896 108.583 272.229 107.146 272.812 105.812C273.438 104.438 274.229 103.208 275.188 102.125C276.188 101 277.25 100.042 278.375 99.25C279.5 98.4167 280.625 97.7917 281.75 97.375C282.917 96.9583 283.938 96.7917 284.812 96.875C285.688 96.9167 286.375 97.2292 286.875 97.8125C287.375 98.3958 287.542 99.2917 287.375 100.5C287.375 102.125 286.854 103.542 285.812 104.75C284.812 105.958 283.688 107.042 282.438 108C281.229 108.958 280.104 109.833 279.062 110.625C278.062 111.375 277.562 112.083 277.562 112.75C277.562 113.125 277.771 113.417 278.188 113.625C278.646 113.833 279.167 114 279.75 114.125C280.333 114.208 280.917 114.271 281.5 114.312C282.083 114.354 282.5 114.396 282.75 114.438C286.667 113.604 289.604 113.104 291.562 112.938C293.521 112.729 294.75 112.75 295.25 113C295.75 113.208 295.646 113.562 294.938 114.062C294.271 114.521 293.229 115.021 291.812 115.562C290.396 116.062 288.75 116.521 286.875 116.938C285 117.354 283.146 117.604 281.312 117.688C279.479 117.729 277.771 117.542 276.188 117.125C274.646 116.708 273.5 115.917 272.75 114.75ZM283.688 100.5C282.854 100.5 282.062 100.729 281.312 101.188C280.562 101.646 279.875 102.229 279.25 102.938C278.667 103.604 278.167 104.354 277.75 105.188C277.333 105.979 277.021 106.729 276.812 107.438C276.896 107.479 276.958 107.5 277 107.5H277.188C277.771 107.5 278.438 107.25 279.188 106.75C279.938 106.25 280.646 105.646 281.312 104.938C281.979 104.188 282.542 103.417 283 102.625C283.458 101.833 283.688 101.125 283.688 100.5ZM294.75 115.188C294.75 114.812 294.75 114.521 294.75 114.312C294.75 114.104 294.771 113.917 294.812 113.75C294.896 113.542 295 113.333 295.125 113.125C295.25 112.917 295.417 112.646 295.625 112.312C295.958 111.729 296.583 110.708 297.5 109.25C298.417 107.792 299.396 106.25 300.438 104.625C301.479 103 302.458 101.458 303.375 100C304.333 98.5417 305 97.5208 305.375 96.9375C305.417 96.8958 305.521 96.875 305.688 96.875C305.896 96.875 306.042 96.875 306.125 96.875C306.208 96.875 306.354 96.875 306.562 96.875C306.771 96.875 306.896 96.8958 306.938 96.9375C306.979 96.9792 307.062 97.0833 307.188 97.25C307.354 97.4167 307.521 97.6042 307.688 97.8125C307.896 97.9792 308.062 98.1458 308.188 98.3125C308.354 98.4792 308.479 98.5625 308.562 98.5625C308.938 98.5625 309.333 98.4375 309.75 98.1875C310.167 97.9375 310.583 97.6667 311 97.375C311.458 97.0417 311.917 96.75 312.375 96.5C312.833 96.25 313.312 96.125 313.812 96.125C314.354 96.125 314.854 96.25 315.312 96.5C315.771 96.75 316.167 97.0625 316.5 97.4375C316.833 97.8125 317.083 98.2292 317.25 98.6875C317.458 99.1458 317.562 99.6042 317.562 100.062C317.562 101.021 317.417 101.938 317.125 102.812C316.875 103.688 316.583 104.562 316.25 105.438C315.917 106.271 315.604 107.125 315.312 108C315.062 108.833 314.938 109.708 314.938 110.625C314.938 111.542 315.042 112.208 315.25 112.625C315.458 113 316.042 113.188 317 113.188C318.125 113.188 319.188 113.021 320.188 112.688C321.229 112.354 322.292 112.188 323.375 112.188C323.375 113.188 323.062 114.021 322.438 114.688C321.854 115.354 321.104 115.896 320.188 116.312C319.312 116.688 318.354 116.958 317.312 117.125C316.312 117.25 315.396 117.312 314.562 117.312C312.979 117.312 311.812 116.875 311.062 116C310.354 115.083 310 113.875 310 112.375C310 111.375 310.167 110.438 310.5 109.562C310.875 108.688 311.271 107.833 311.688 107C312.146 106.167 312.562 105.333 312.938 104.5C313.312 103.667 313.5 102.771 313.5 101.812C313.5 101.562 313.458 101.229 313.375 100.812C313.292 100.396 313.021 100.188 312.562 100.188C311.188 100.188 309.938 100.625 308.812 101.5C307.729 102.375 306.729 103.479 305.812 104.812C304.938 106.146 304.125 107.583 303.375 109.125C302.667 110.667 301.979 112.104 301.312 113.438C300.688 114.771 300.083 115.875 299.5 116.75C298.917 117.625 298.312 118.062 297.688 118.062C296.812 118.062 296.104 117.792 295.562 117.25C295.021 116.708 294.75 116.021 294.75 115.188ZM321.375 111.938C321.375 110.729 321.604 109.521 322.062 108.312C322.521 107.104 323.062 105.917 323.688 104.75C324.312 103.542 324.938 102.354 325.562 101.188C326.229 100.021 326.729 98.875 327.062 97.75C326.271 98.2083 325.583 98.4792 325 98.5625C324.458 98.6042 323.792 98.625 323 98.625C322.917 98.625 322.646 98.625 322.188 98.625C321.771 98.5833 321.5 98.5625 321.375 98.5625C321.625 97.6458 322.083 96.8333 322.75 96.125C323.417 95.375 324.167 94.75 325 94.25C325.875 93.7083 326.771 93.2708 327.688 92.9375C328.646 92.5625 329.5 92.2708 330.25 92.0625C331.5 90.1042 332.521 88.1458 333.312 86.1875C334.104 84.1875 334.896 82.25 335.688 80.375C336.521 78.4583 337.479 76.6458 338.562 74.9375C339.688 73.1875 341.188 71.5833 343.062 70.125L343.375 72.5L335.562 90.8125C336.021 90.6875 336.583 90.5625 337.25 90.4375C337.917 90.3125 338.583 90.1875 339.25 90.0625C339.958 89.9375 340.625 89.8333 341.25 89.75C341.917 89.625 342.479 89.5 342.938 89.375C342.979 89.375 343.104 89.375 343.312 89.375C343.521 89.3333 343.688 89.3125 343.812 89.3125C344.396 89.3125 344.875 89.4167 345.25 89.625C345.625 89.8333 345.938 90.2917 346.188 91C343.354 91.8333 340.792 92.7083 338.5 93.625C336.208 94.5417 334.208 95.75 332.5 97.25C330.833 98.7083 329.458 100.583 328.375 102.875C327.333 105.125 326.604 108.021 326.188 111.562C326.188 112.312 326.229 113 326.312 113.625C326.396 114.25 326.917 114.625 327.875 114.75C328.833 114.75 329.729 114.562 330.562 114.188C331.396 113.812 332.208 113.417 333 113C333.792 112.542 334.583 112.125 335.375 111.75C336.208 111.375 337.104 111.188 338.062 111.188C338.062 112.188 337.625 113.104 336.75 113.938C335.875 114.771 334.812 115.5 333.562 116.125C332.354 116.75 331.104 117.229 329.812 117.562C328.521 117.896 327.458 118.062 326.625 118.062C325.792 118.062 325.042 117.896 324.375 117.562C323.708 117.229 323.146 116.792 322.688 116.25C322.271 115.667 321.938 115 321.688 114.25C321.479 113.5 321.375 112.729 321.375 111.938ZM338.5 114.75C337.792 113.167 337.479 111.625 337.562 110.125C337.646 108.583 337.979 107.146 338.562 105.812C339.188 104.438 339.979 103.208 340.938 102.125C341.938 101 343 100.042 344.125 99.25C345.25 98.4167 346.375 97.7917 347.5 97.375C348.667 96.9583 349.688 96.7917 350.562 96.875C351.438 96.9167 352.125 97.2292 352.625 97.8125C353.125 98.3958 353.292 99.2917 353.125 100.5C353.125 102.125 352.604 103.542 351.562 104.75C350.562 105.958 349.438 107.042 348.188 108C346.979 108.958 345.854 109.833 344.812 110.625C343.812 111.375 343.312 112.083 343.312 112.75C343.312 113.125 343.521 113.417 343.938 113.625C344.396 113.833 344.917 114 345.5 114.125C346.083 114.208 346.667 114.271 347.25 114.312C347.833 114.354 348.25 114.396 348.5 114.438C352.417 113.604 355.354 113.104 357.312 112.938C359.271 112.729 360.5 112.75 361 113C361.5 113.208 361.396 113.562 360.688 114.062C360.021 114.521 358.979 115.021 357.562 115.562C356.146 116.062 354.5 116.521 352.625 116.938C350.75 117.354 348.896 117.604 347.062 117.688C345.229 117.729 343.521 117.542 341.938 117.125C340.396 116.708 339.25 115.917 338.5 114.75ZM349.438 100.5C348.604 100.5 347.812 100.729 347.062 101.188C346.312 101.646 345.625 102.229 345 102.938C344.417 103.604 343.917 104.354 343.5 105.188C343.083 105.979 342.771 106.729 342.562 107.438C342.646 107.479 342.708 107.5 342.75 107.5H342.938C343.521 107.5 344.188 107.25 344.938 106.75C345.688 106.25 346.396 105.646 347.062 104.938C347.729 104.188 348.292 103.417 348.75 102.625C349.208 101.833 349.438 101.125 349.438 100.5ZM373.438 113.188C373.438 111.938 373.688 110.792 374.188 109.75C374.729 108.667 375.312 107.646 375.938 106.688C376.562 105.729 377.125 104.771 377.625 103.812C378.167 102.854 378.438 101.833 378.438 100.75C378.438 100.5 378.417 100.208 378.375 99.875C378.375 99.5 378.333 99.1458 378.25 98.8125C378.208 98.4792 378.083 98.2083 377.875 98C377.708 97.75 377.479 97.625 377.188 97.625C377.146 97.625 377.062 97.6458 376.938 97.6875C376.854 97.6875 376.812 97.7083 376.812 97.75C376.229 98.5417 375.521 99.4375 374.688 100.438C373.896 101.396 373.042 102.354 372.125 103.312C371.208 104.271 370.312 105.188 369.438 106.062C368.562 106.938 367.771 107.667 367.062 108.25C366.562 108.708 365.875 109.333 365 110.125C364.167 110.917 363.312 111.708 362.438 112.5C361.604 113.25 360.854 113.917 360.188 114.5C359.562 115.083 359.208 115.375 359.125 115.375L356.25 112.938C356.625 112.938 357 112.854 357.375 112.688C357.708 112.521 358.042 112.333 358.375 112.125C360.875 110.458 363.125 108.542 365.125 106.375C367.167 104.208 369.167 101.875 371.125 99.375C371.208 99.25 371.417 98.8958 371.75 98.3125C372.125 97.6875 372.521 97 372.938 96.25C373.354 95.4583 373.771 94.6875 374.188 93.9375C374.604 93.1458 374.917 92.5208 375.125 92.0625C375.375 91.5208 375.521 91.0833 375.562 90.75C375.646 90.4167 375.708 90.1667 375.75 90C375.833 89.7917 375.958 89.6458 376.125 89.5625C376.292 89.4792 376.646 89.4375 377.188 89.4375C377.271 89.4375 377.458 89.4583 377.75 89.5C378.083 89.5417 378.292 89.5833 378.375 89.625C378.917 90.75 379.396 91.75 379.812 92.625C380.229 93.5 380.583 94.3333 380.875 95.125C381.167 95.875 381.375 96.6458 381.5 97.4375C381.667 98.2292 381.75 99.1042 381.75 100.062C381.208 101.438 380.604 102.854 379.938 104.312C379.271 105.729 378.708 107.083 378.25 108.375C377.792 109.667 377.5 110.833 377.375 111.875C377.292 112.917 377.521 113.75 378.062 114.375C378.646 114.958 379.604 115.271 380.938 115.312C382.312 115.354 384.25 115 386.75 114.25C387.417 114.583 387.479 115 386.938 115.5C386.396 115.958 385.562 116.396 384.438 116.812C383.354 117.229 382.146 117.583 380.812 117.875C379.521 118.125 378.438 118.188 377.562 118.062C376.771 118.062 376.104 117.938 375.562 117.688C375.062 117.396 374.646 117.021 374.312 116.562C374.021 116.104 373.792 115.583 373.625 115C373.5 114.417 373.438 113.812 373.438 113.188ZM383.625 111.938C383.625 110.729 383.854 109.521 384.312 108.312C384.771 107.104 385.312 105.917 385.938 104.75C386.562 103.542 387.188 102.354 387.812 101.188C388.479 100.021 388.979 98.875 389.312 97.75C388.521 98.2083 387.833 98.4792 387.25 98.5625C386.708 98.6042 386.042 98.625 385.25 98.625C385.167 98.625 384.896 98.625 384.438 98.625C384.021 98.5833 383.75 98.5625 383.625 98.5625C383.875 97.6458 384.333 96.8333 385 96.125C385.667 95.375 386.417 94.75 387.25 94.25C388.125 93.7083 389.021 93.2708 389.938 92.9375C390.896 92.5625 391.75 92.2708 392.5 92.0625C393.75 90.1042 394.771 88.1458 395.562 86.1875C396.354 84.1875 397.146 82.25 397.938 80.375C398.771 78.4583 399.729 76.6458 400.812 74.9375C401.938 73.1875 403.438 71.5833 405.312 70.125L405.625 72.5L397.812 90.8125C398.271 90.6875 398.833 90.5625 399.5 90.4375C400.167 90.3125 400.833 90.1875 401.5 90.0625C402.208 89.9375 402.875 89.8333 403.5 89.75C404.167 89.625 404.729 89.5 405.188 89.375C405.229 89.375 405.354 89.375 405.562 89.375C405.771 89.3333 405.938 89.3125 406.062 89.3125C406.646 89.3125 407.125 89.4167 407.5 89.625C407.875 89.8333 408.188 90.2917 408.438 91C405.604 91.8333 403.042 92.7083 400.75 93.625C398.458 94.5417 396.458 95.75 394.75 97.25C393.083 98.7083 391.708 100.583 390.625 102.875C389.583 105.125 388.854 108.021 388.438 111.562C388.438 112.312 388.479 113 388.562 113.625C388.646 114.25 389.167 114.625 390.125 114.75C391.083 114.75 391.979 114.562 392.812 114.188C393.646 113.812 394.458 113.417 395.25 113C396.042 112.542 396.833 112.125 397.625 111.75C398.458 111.375 399.354 111.188 400.312 111.188C400.312 112.188 399.875 113.104 399 113.938C398.125 114.771 397.062 115.5 395.812 116.125C394.604 116.75 393.354 117.229 392.062 117.562C390.771 117.896 389.708 118.062 388.875 118.062C388.042 118.062 387.292 117.896 386.625 117.562C385.958 117.229 385.396 116.792 384.938 116.25C384.521 115.667 384.188 115 383.938 114.25C383.729 113.5 383.625 112.729 383.625 111.938ZM400.875 113.938C401.25 111.562 401.958 109.375 403 107.375C404.042 105.375 405.229 103.646 406.562 102.188C407.938 100.688 409.417 99.4583 411 98.5C412.583 97.5417 414.125 96.9375 415.625 96.6875C417.125 96.3958 418.5 96.4583 419.75 96.875C421.042 97.2917 422.083 98.125 422.875 99.375C422.875 100.333 422.646 101.25 422.188 102.125C421.771 103 421.292 103.875 420.75 104.75C420.25 105.625 419.771 106.521 419.312 107.438C418.896 108.354 418.688 109.333 418.688 110.375C418.688 111.458 418.917 112.333 419.375 113C419.875 113.625 420.729 113.938 421.938 113.938C422.938 113.938 423.896 113.792 424.812 113.5C425.771 113.208 426.729 113.062 427.688 113.062C427.854 113.062 428.125 113.083 428.5 113.125C428.917 113.125 429.188 113.125 429.312 113.125C428.812 113.833 428.167 114.438 427.375 114.938C426.583 115.438 425.75 115.875 424.875 116.25C424 116.583 423.083 116.833 422.125 117C421.208 117.167 420.354 117.25 419.562 117.25C418.812 117.25 418.146 117.083 417.562 116.75C416.979 116.417 416.479 115.979 416.062 115.438C415.646 114.896 415.312 114.292 415.062 113.625C414.854 112.917 414.75 112.229 414.75 111.562C414.125 112.271 413.438 113.021 412.688 113.812C411.979 114.562 411.208 115.25 410.375 115.875C409.583 116.5 408.708 117.021 407.75 117.438C406.833 117.854 405.875 118.062 404.875 118.062C403.792 118.062 402.854 117.667 402.062 116.875C401.271 116.042 400.875 115.062 400.875 113.938ZM405 112C405 112.333 405 112.708 405 113.125C405.042 113.542 405.312 113.812 405.812 113.938C406.854 113.688 408.042 113.146 409.375 112.312C410.708 111.438 411.958 110.438 413.125 109.312C414.292 108.146 415.271 106.917 416.062 105.625C416.854 104.292 417.25 103.021 417.25 101.812C417.25 101.729 417.229 101.604 417.188 101.438C417.188 101.229 417.188 101.083 417.188 101C415.771 101 414.333 101.292 412.875 101.875C411.417 102.458 410.104 103.271 408.938 104.312C407.771 105.312 406.812 106.479 406.062 107.812C405.354 109.146 405 110.542 405 112ZM427.062 113.938C427.062 113.354 427.125 112.854 427.25 112.438C427.375 111.979 427.604 111.396 427.938 110.688C428.229 110.271 428.75 109.479 429.5 108.312C430.292 107.146 431.104 105.917 431.938 104.625C432.812 103.333 433.625 102.125 434.375 101C435.167 99.8333 435.708 99.0208 436 98.5625C436.375 98.0208 436.667 97.7292 436.875 97.6875C437.083 97.6458 437.479 97.625 438.062 97.625C438.438 97.625 438.833 97.6458 439.25 97.6875C439.708 97.7292 440 98.0208 440.125 98.5625C439.542 99.9792 438.75 101.333 437.75 102.625C436.792 103.875 435.833 105.125 434.875 106.375C433.958 107.625 433.146 108.917 432.438 110.25C431.729 111.542 431.375 112.938 431.375 114.438C431.542 114.438 431.792 114.458 432.125 114.5C432.5 114.542 432.896 114.583 433.312 114.625C433.729 114.667 434.104 114.708 434.438 114.75C434.812 114.792 435.083 114.792 435.25 114.75C435.5 114.708 435.917 114.625 436.5 114.5C437.125 114.333 437.771 114.167 438.438 114C439.146 113.833 439.812 113.667 440.438 113.5C441.062 113.333 441.5 113.208 441.75 113.125C441.75 113.208 441.75 113.354 441.75 113.562C441.792 113.729 441.812 113.854 441.812 113.938C441.812 114.771 441.417 115.458 440.625 116C439.875 116.542 438.979 116.979 437.938 117.312C436.938 117.604 435.896 117.812 434.812 117.938C433.771 118.021 432.958 118.062 432.375 118.062C431.75 118.062 431.104 118 430.438 117.875C429.812 117.708 429.25 117.458 428.75 117.125C428.25 116.792 427.833 116.375 427.5 115.875C427.208 115.333 427.062 114.688 427.062 113.938ZM445.25 77.3125C445.792 77.3125 446.292 77.3333 446.75 77.375C447.208 77.4167 447.604 77.5208 447.938 77.6875C448.271 77.8542 448.542 78.1042 448.75 78.4375C448.958 78.7708 449.062 79.2292 449.062 79.8125C449.062 80.0625 449.062 80.3333 449.062 80.625C449.062 80.9167 449.021 81.2083 448.938 81.5C448.896 81.75 448.792 81.9792 448.625 82.1875C448.458 82.3542 448.188 82.4375 447.812 82.4375C447.229 82.4375 446.75 82.2292 446.375 81.8125C446.042 81.3958 445.792 80.9167 445.625 80.375C445.458 79.7917 445.354 79.2083 445.312 78.625C445.271 78.0417 445.25 77.6042 445.25 77.3125ZM443.125 115.188C443.125 114.812 443.125 114.521 443.125 114.312C443.125 114.104 443.146 113.917 443.188 113.75C443.271 113.542 443.375 113.333 443.5 113.125C443.625 112.917 443.792 112.646 444 112.312C444.333 111.729 444.958 110.708 445.875 109.25C446.792 107.792 447.771 106.25 448.812 104.625C449.854 103 450.833 101.458 451.75 100C452.708 98.5417 453.375 97.5208 453.75 96.9375C453.792 96.8958 453.896 96.875 454.062 96.875C454.271 96.875 454.417 96.875 454.5 96.875C454.583 96.875 454.729 96.875 454.938 96.875C455.146 96.875 455.271 96.8958 455.312 96.9375C455.354 96.9792 455.438 97.0833 455.562 97.25C455.729 97.4167 455.896 97.6042 456.062 97.8125C456.271 97.9792 456.438 98.1458 456.562 98.3125C456.729 98.4792 456.854 98.5625 456.938 98.5625C457.312 98.5625 457.708 98.4375 458.125 98.1875C458.542 97.9375 458.958 97.6667 459.375 97.375C459.833 97.0417 460.292 96.75 460.75 96.5C461.208 96.25 461.688 96.125 462.188 96.125C462.729 96.125 463.229 96.25 463.688 96.5C464.146 96.75 464.542 97.0625 464.875 97.4375C465.208 97.8125 465.458 98.2292 465.625 98.6875C465.833 99.1458 465.938 99.6042 465.938 100.062C465.938 101.021 465.792 101.938 465.5 102.812C465.25 103.688 464.958 104.562 464.625 105.438C464.292 106.271 463.979 107.125 463.688 108C463.438 108.833 463.312 109.708 463.312 110.625C463.312 111.542 463.417 112.208 463.625 112.625C463.833 113 464.417 113.188 465.375 113.188C466.5 113.188 467.562 113.021 468.562 112.688C469.604 112.354 470.667 112.188 471.75 112.188C471.75 113.188 471.438 114.021 470.812 114.688C470.229 115.354 469.479 115.896 468.562 116.312C467.688 116.688 466.729 116.958 465.688 117.125C464.688 117.25 463.771 117.312 462.938 117.312C461.354 117.312 460.188 116.875 459.438 116C458.729 115.083 458.375 113.875 458.375 112.375C458.375 111.375 458.542 110.438 458.875 109.562C459.25 108.688 459.646 107.833 460.062 107C460.521 106.167 460.938 105.333 461.312 104.5C461.688 103.667 461.875 102.771 461.875 101.812C461.875 101.562 461.833 101.229 461.75 100.812C461.667 100.396 461.396 100.188 460.938 100.188C459.562 100.188 458.312 100.625 457.188 101.5C456.104 102.375 455.104 103.479 454.188 104.812C453.312 106.146 452.5 107.583 451.75 109.125C451.042 110.667 450.354 112.104 449.688 113.438C449.062 114.771 448.458 115.875 447.875 116.75C447.292 117.625 446.688 118.062 446.062 118.062C445.188 118.062 444.479 117.792 443.938 117.25C443.396 116.708 443.125 116.021 443.125 115.188ZM500.188 118.062C499.396 118.062 498.667 117.917 498 117.625C497.375 117.333 496.854 116.917 496.438 116.375C496.021 115.833 495.729 115.229 495.562 114.562C495.396 113.854 495.417 113.104 495.625 112.312C495.625 110.979 495.854 109.75 496.312 108.625C496.812 107.458 497.354 106.354 497.938 105.312C498.562 104.229 499.104 103.167 499.562 102.125C500.062 101.042 500.312 99.8958 500.312 98.6875C499.396 98.6875 498.417 98.9792 497.375 99.5625C496.333 100.146 495.271 100.917 494.188 101.875C493.146 102.833 492.104 103.917 491.062 105.125C490.062 106.292 489.104 107.479 488.188 108.688C487.312 109.854 486.542 110.979 485.875 112.062C485.25 113.146 484.771 114.042 484.438 114.75C484.354 114.792 484.146 114.833 483.812 114.875C483.479 114.875 483.271 114.875 483.188 114.875C482.521 115.208 482.104 115.208 481.938 114.875C481.812 114.5 481.812 113.938 481.938 113.188C482.104 112.438 482.354 111.604 482.688 110.688C483.021 109.729 483.333 108.833 483.625 108C483.958 107.125 484.208 106.417 484.375 105.875C484.542 105.292 484.562 105 484.438 105C484.562 104.833 484.708 104.562 484.875 104.188C485.042 103.812 485.208 103.417 485.375 103C485.542 102.583 485.688 102.208 485.812 101.875C485.938 101.5 486 101.208 486 101C486 100.625 485.854 100.396 485.562 100.312C485.312 100.188 485.062 100.125 484.812 100.125C484.062 99.7083 483.25 99.9583 482.375 100.875C481.542 101.75 480.625 103.021 479.625 104.688C478.667 106.312 477.604 108.188 476.438 110.312C475.312 112.396 474.062 114.417 472.688 116.375C471.729 116.375 471 116.25 470.5 116C470 115.75 469.75 115.125 469.75 114.125C470.083 113.667 470.583 112.812 471.25 111.562C471.917 110.271 472.667 108.854 473.5 107.312C474.333 105.771 475.208 104.208 476.125 102.625C477.083 101.042 477.979 99.7083 478.812 98.625C479.688 97.5 480.458 96.75 481.125 96.375C481.833 95.9583 482.396 96.1458 482.812 96.9375C483.521 96.4792 484.292 96.0833 485.125 95.75C486 95.4167 486.875 95.25 487.75 95.25C488.333 95.25 488.812 95.4375 489.188 95.8125C489.604 96.1458 489.917 96.5833 490.125 97.125C490.375 97.625 490.562 98.1667 490.688 98.75C490.812 99.2917 490.875 99.7708 490.875 100.188C491.333 99.8958 492.083 99.3958 493.125 98.6875C494.208 97.9375 495.354 97.1875 496.562 96.4375C497.812 95.6875 499.021 95.0417 500.188 94.5C501.396 93.9167 502.375 93.625 503.125 93.625C503.792 93.625 504.354 93.875 504.812 94.375C505.312 94.8333 505.562 95.4167 505.562 96.125C504.062 99.7917 502.875 102.729 502 104.938C501.167 107.146 500.604 108.875 500.312 110.125C500.062 111.333 500.062 112.208 500.312 112.75C500.604 113.25 501.104 113.646 501.812 113.938C502.938 113.938 504.021 113.75 505.062 113.375C506.104 113 507.125 112.583 508.125 112.125C509.167 111.667 510.208 111.25 511.25 110.875C512.292 110.5 513.396 110.312 514.562 110.312C514.562 110.771 514.438 111.208 514.188 111.625C513.979 112 513.646 112.292 513.188 112.5C512.854 112.708 512.25 113.042 511.375 113.5C510.542 113.917 509.625 114.375 508.625 114.875C507.625 115.333 506.667 115.792 505.75 116.25C504.875 116.708 504.25 117.021 503.875 117.188C503.042 117.562 502.396 117.812 501.938 117.938C501.521 118.021 500.938 118.062 500.188 118.062ZM513.062 114.75C512.354 113.167 512.042 111.625 512.125 110.125C512.208 108.583 512.542 107.146 513.125 105.812C513.75 104.438 514.542 103.208 515.5 102.125C516.5 101 517.562 100.042 518.688 99.25C519.812 98.4167 520.938 97.7917 522.062 97.375C523.229 96.9583 524.25 96.7917 525.125 96.875C526 96.9167 526.688 97.2292 527.188 97.8125C527.688 98.3958 527.854 99.2917 527.688 100.5C527.688 102.125 527.167 103.542 526.125 104.75C525.125 105.958 524 107.042 522.75 108C521.542 108.958 520.417 109.833 519.375 110.625C518.375 111.375 517.875 112.083 517.875 112.75C517.875 113.125 518.083 113.417 518.5 113.625C518.958 113.833 519.479 114 520.062 114.125C520.646 114.208 521.229 114.271 521.812 114.312C522.396 114.354 522.812 114.396 523.062 114.438C526.979 113.604 529.917 113.104 531.875 112.938C533.833 112.729 535.062 112.75 535.562 113C536.062 113.208 535.958 113.562 535.25 114.062C534.583 114.521 533.542 115.021 532.125 115.562C530.708 116.062 529.062 116.521 527.188 116.938C525.312 117.354 523.458 117.604 521.625 117.688C519.792 117.729 518.083 117.542 516.5 117.125C514.958 116.708 513.812 115.917 513.062 114.75ZM524 100.5C523.167 100.5 522.375 100.729 521.625 101.188C520.875 101.646 520.188 102.229 519.562 102.938C518.979 103.604 518.479 104.354 518.062 105.188C517.646 105.979 517.333 106.729 517.125 107.438C517.208 107.479 517.271 107.5 517.312 107.5H517.5C518.083 107.5 518.75 107.25 519.5 106.75C520.25 106.25 520.958 105.646 521.625 104.938C522.292 104.188 522.854 103.417 523.312 102.625C523.771 101.833 524 101.125 524 100.5ZM535.062 115.188C535.062 114.812 535.062 114.521 535.062 114.312C535.062 114.104 535.083 113.917 535.125 113.75C535.208 113.542 535.312 113.333 535.438 113.125C535.562 112.917 535.729 112.646 535.938 112.312C536.271 111.729 536.896 110.708 537.812 109.25C538.729 107.792 539.708 106.25 540.75 104.625C541.792 103 542.771 101.458 543.688 100C544.646 98.5417 545.312 97.5208 545.688 96.9375C545.729 96.8958 545.833 96.875 546 96.875C546.208 96.875 546.354 96.875 546.438 96.875C546.521 96.875 546.667 96.875 546.875 96.875C547.083 96.875 547.208 96.8958 547.25 96.9375C547.292 96.9792 547.375 97.0833 547.5 97.25C547.667 97.4167 547.833 97.6042 548 97.8125C548.208 97.9792 548.375 98.1458 548.5 98.3125C548.667 98.4792 548.792 98.5625 548.875 98.5625C549.25 98.5625 549.646 98.4375 550.062 98.1875C550.479 97.9375 550.896 97.6667 551.312 97.375C551.771 97.0417 552.229 96.75 552.688 96.5C553.146 96.25 553.625 96.125 554.125 96.125C554.667 96.125 555.167 96.25 555.625 96.5C556.083 96.75 556.479 97.0625 556.812 97.4375C557.146 97.8125 557.396 98.2292 557.562 98.6875C557.771 99.1458 557.875 99.6042 557.875 100.062C557.875 101.021 557.729 101.938 557.438 102.812C557.188 103.688 556.896 104.562 556.562 105.438C556.229 106.271 555.917 107.125 555.625 108C555.375 108.833 555.25 109.708 555.25 110.625C555.25 111.542 555.354 112.208 555.562 112.625C555.771 113 556.354 113.188 557.312 113.188C558.438 113.188 559.5 113.021 560.5 112.688C561.542 112.354 562.604 112.188 563.688 112.188C563.688 113.188 563.375 114.021 562.75 114.688C562.167 115.354 561.417 115.896 560.5 116.312C559.625 116.688 558.667 116.958 557.625 117.125C556.625 117.25 555.708 117.312 554.875 117.312C553.292 117.312 552.125 116.875 551.375 116C550.667 115.083 550.312 113.875 550.312 112.375C550.312 111.375 550.479 110.438 550.812 109.562C551.188 108.688 551.583 107.833 552 107C552.458 106.167 552.875 105.333 553.25 104.5C553.625 103.667 553.812 102.771 553.812 101.812C553.812 101.562 553.771 101.229 553.688 100.812C553.604 100.396 553.333 100.188 552.875 100.188C551.5 100.188 550.25 100.625 549.125 101.5C548.042 102.375 547.042 103.479 546.125 104.812C545.25 106.146 544.438 107.583 543.688 109.125C542.979 110.667 542.292 112.104 541.625 113.438C541 114.771 540.396 115.875 539.812 116.75C539.229 117.625 538.625 118.062 538 118.062C537.125 118.062 536.417 117.792 535.875 117.25C535.333 116.708 535.062 116.021 535.062 115.188ZM561.688 111.938C561.688 110.729 561.917 109.521 562.375 108.312C562.833 107.104 563.375 105.917 564 104.75C564.625 103.542 565.25 102.354 565.875 101.188C566.542 100.021 567.042 98.875 567.375 97.75C566.583 98.2083 565.896 98.4792 565.312 98.5625C564.771 98.6042 564.104 98.625 563.312 98.625C563.229 98.625 562.958 98.625 562.5 98.625C562.083 98.5833 561.812 98.5625 561.688 98.5625C561.938 97.6458 562.396 96.8333 563.062 96.125C563.729 95.375 564.479 94.75 565.312 94.25C566.188 93.7083 567.083 93.2708 568 92.9375C568.958 92.5625 569.812 92.2708 570.562 92.0625C571.812 90.1042 572.833 88.1458 573.625 86.1875C574.417 84.1875 575.208 82.25 576 80.375C576.833 78.4583 577.792 76.6458 578.875 74.9375C580 73.1875 581.5 71.5833 583.375 70.125L583.688 72.5L575.875 90.8125C576.333 90.6875 576.896 90.5625 577.562 90.4375C578.229 90.3125 578.896 90.1875 579.562 90.0625C580.271 89.9375 580.938 89.8333 581.562 89.75C582.229 89.625 582.792 89.5 583.25 89.375C583.292 89.375 583.417 89.375 583.625 89.375C583.833 89.3333 584 89.3125 584.125 89.3125C584.708 89.3125 585.188 89.4167 585.562 89.625C585.938 89.8333 586.25 90.2917 586.5 91C583.667 91.8333 581.104 92.7083 578.812 93.625C576.521 94.5417 574.521 95.75 572.812 97.25C571.146 98.7083 569.771 100.583 568.688 102.875C567.646 105.125 566.917 108.021 566.5 111.562C566.5 112.312 566.542 113 566.625 113.625C566.708 114.25 567.229 114.625 568.188 114.75C569.146 114.75 570.042 114.562 570.875 114.188C571.708 113.812 572.521 113.417 573.312 113C574.104 112.542 574.896 112.125 575.688 111.75C576.521 111.375 577.417 111.188 578.375 111.188C578.375 112.188 577.938 113.104 577.062 113.938C576.188 114.771 575.125 115.5 573.875 116.125C572.667 116.75 571.417 117.229 570.125 117.562C568.833 117.896 567.771 118.062 566.938 118.062C566.104 118.062 565.354 117.896 564.688 117.562C564.021 117.229 563.458 116.792 563 116.25C562.583 115.667 562.25 115 562 114.25C561.792 113.5 561.688 112.729 561.688 111.938Z" fill="#172B30"/>
</svg>
