<svg width="582" height="159" viewBox="0 0 582 159" fill="none" xmlns="http://www.w3.org/2000/svg">
<path d="M151.562 126H128.375L112.375 72.5625L96.3125 126H73.125L42.625 32.25H68.625L84.6875 86.125L100.75 32.25H123.938L139.938 86L155.938 32.25H181.938L151.562 126ZM188.875 126V32.25H251.375V53.8125H213.625V68.3125H248.875V89.875H213.625V104.438H252V126H188.875ZM311.688 126H285.75L322.375 32.25H348.312L384.875 126H358.938L352.875 109.312H317.75L311.688 126ZM325.625 87.75H345.062L335.312 61L325.625 87.75ZM472.875 126H445.5L427.625 95H416.5V126H391.75V32.25H429.5C437.625 32.25 444.542 33.4792 450.25 35.9375C455.958 38.3958 460.312 41.9792 463.312 46.6875C466.354 51.3542 467.875 57 467.875 63.625C467.875 69.8333 466.542 75.1875 463.875 79.6875C461.208 84.1875 457.354 87.7292 452.312 90.3125L472.875 126ZM416.5 75.9375H427.562C432.521 75.9375 436.25 75.0208 438.75 73.1875C441.292 71.3125 442.562 68.5417 442.562 64.875C442.562 61.2083 441.292 58.4583 438.75 56.625C436.25 54.75 432.521 53.8125 427.562 53.8125H416.5V75.9375ZM480.375 126V32.25H542.875V53.8125H505.125V68.3125H540.375V89.875H505.125V104.438H543.5V126H480.375Z" fill="#FBF9ED"/>
<path d="M27.904 93.36C28.16 93.36 28.288 93.7867 28.288 94.64C28.288 95.4507 27.9467 96.432 27.264 97.584C26.5813 98.736 25.8987 99.824 25.216 100.848C24.576 101.872 23.7013 103.067 22.592 104.432C21.4827 105.797 20.3947 106.885 19.328 107.696C16.64 109.659 13.9307 110.64 11.2 110.64C8.512 110.64 6.336 109.957 4.672 108.592C3.008 107.184 2.176 105.051 2.176 102.192C2.176 97.84 3.776 93.808 6.976 90.096C10.176 86.384 13.9093 84.528 18.176 84.528C20.096 84.528 21.632 85.04 22.784 86.064C23.936 87.0453 24.512 88.24 24.512 89.648C24.512 92.0373 23.3813 93.9573 21.12 95.408C18.8587 96.8587 16.192 97.584 13.12 97.584C11.328 97.584 10.0053 97.3493 9.152 96.88C8.34133 99.056 7.936 100.976 7.936 102.64C7.936 106.224 9.45067 108.016 12.48 108.016C14.272 108.016 16.1067 107.333 17.984 105.968C19.904 104.56 21.5253 103.003 22.848 101.296C24.2133 99.5467 25.7493 97.0507 27.456 93.808C27.6267 93.5093 27.776 93.36 27.904 93.36ZM21.12 88.304C21.12 87.0667 20.5227 86.448 19.328 86.448C17.664 86.448 15.808 87.472 13.76 89.52C11.712 91.568 10.688 93.232 10.688 94.512C10.688 95.3653 11.4987 95.792 13.12 95.792C14.7413 95.792 16.4267 95.0027 18.176 93.424C19.968 91.8453 20.9493 90.1387 21.12 88.304ZM70.1055 97.136C68.5268 99.7813 67.0762 102 65.7535 103.792C64.4735 105.541 63.0015 107.077 61.3375 108.4C59.6735 109.723 58.1588 110.384 56.7935 110.384C54.2762 110.384 53.0175 108.933 53.0175 106.032C53.0175 102.661 54.3615 97.8613 57.0495 91.632C57.6468 90.0533 57.9455 88.9653 57.9455 88.368C57.9455 87.5147 57.5615 87.088 56.7935 87.088C56.3242 87.088 55.5135 87.3653 54.3615 87.92C53.2095 88.4747 52.1002 89.3067 51.0335 90.416C50.0095 91.5253 49.1775 92.5493 48.5375 93.488C47.8975 94.4267 47.1935 95.8347 46.4255 97.712C45.6575 99.5893 45.1455 100.912 44.8895 101.68C43.6522 105.52 42.8202 108.293 42.3935 110H36.1215C38.3402 103.856 39.8548 99.7173 40.6655 97.584C41.5188 95.4507 42.0308 94.128 42.2015 93.616L42.7775 91.824C43.2468 90.4587 43.4815 89.328 43.4815 88.432C43.4815 87.536 43.0762 87.088 42.2655 87.088C41.5828 87.088 40.6442 87.3867 39.4495 87.984C38.2975 88.5813 37.1668 89.456 36.0575 90.608C34.9482 91.76 34.0095 93.104 33.2415 94.64C32.5162 96.1333 31.9188 97.4347 31.4495 98.544C31.0228 99.6533 30.5748 101.019 30.1055 102.64C29.6362 104.219 29.2095 105.52 28.8255 106.544C28.4842 107.525 28.1215 108.677 27.7375 110H21.5295C21.9988 108.208 22.5108 106.608 23.0655 105.2L27.2255 94.576C28.9322 90.3093 29.7855 87.1947 29.7855 85.232C29.7855 84.8053 29.7428 84.528 29.6575 84.4H32.3455C33.7962 84.4 34.7348 84.5493 35.1615 84.848C35.5882 85.104 35.8015 85.4667 35.8015 85.936C35.8015 86.4053 35.5455 87.4933 35.0335 89.2C38.7882 85.7867 42.5428 84.08 46.2975 84.08C48.5588 84.08 49.6895 85.0187 49.6895 86.896C49.6895 87.7067 49.4548 88.7093 48.9855 89.904C52.8682 86.0213 56.8575 84.08 60.9535 84.08C63.1722 84.08 64.2815 85.0187 64.2815 86.896C64.2815 87.7493 64.1322 88.56 63.8335 89.328C63.5348 90.096 63.1508 91.0987 62.6815 92.336C62.2122 93.5307 61.8282 94.5333 61.5295 95.344C61.2308 96.112 60.8895 97.072 60.5055 98.224C59.6948 100.571 59.2895 102.32 59.2895 103.472C59.2895 104.581 59.6308 105.136 60.3135 105.136C61.0388 105.136 61.9348 104.667 63.0015 103.728C64.0682 102.789 64.8575 101.979 65.3695 101.296C65.9242 100.613 66.5855 99.6533 67.3535 98.416C68.1642 97.136 68.8468 96.0267 69.4015 95.088C69.9562 94.1493 70.2762 93.68 70.3615 93.68C70.6175 93.68 70.7455 94.0853 70.7455 94.896C70.7455 95.664 70.5322 96.4107 70.1055 97.136ZM112.668 97.136C111.089 99.7813 109.639 102 108.316 103.792C107.036 105.541 105.564 107.077 103.9 108.4C102.236 109.723 100.721 110.384 99.356 110.384C96.8387 110.384 95.58 108.933 95.58 106.032C95.58 102.661 96.924 97.8613 99.612 91.632C100.209 90.0533 100.508 88.9653 100.508 88.368C100.508 87.5147 100.124 87.088 99.356 87.088C98.8867 87.088 98.076 87.3653 96.924 87.92C95.772 88.4747 94.6627 89.3067 93.596 90.416C92.572 91.5253 91.74 92.5493 91.1 93.488C90.46 94.4267 89.756 95.8347 88.988 97.712C88.22 99.5893 87.708 100.912 87.452 101.68C86.2147 105.52 85.3827 108.293 84.956 110H78.684C80.9027 103.856 82.4173 99.7173 83.228 97.584C84.0813 95.4507 84.5933 94.128 84.764 93.616L85.34 91.824C85.8093 90.4587 86.044 89.328 86.044 88.432C86.044 87.536 85.6387 87.088 84.828 87.088C84.1453 87.088 83.2067 87.3867 82.012 87.984C80.86 88.5813 79.7293 89.456 78.62 90.608C77.5107 91.76 76.572 93.104 75.804 94.64C75.0787 96.1333 74.4813 97.4347 74.012 98.544C73.5853 99.6533 73.1373 101.019 72.668 102.64C72.1987 104.219 71.772 105.52 71.388 106.544C71.0467 107.525 70.684 108.677 70.3 110H64.092C64.5613 108.208 65.0733 106.608 65.628 105.2L69.788 94.576C71.4947 90.3093 72.348 87.1947 72.348 85.232C72.348 84.8053 72.3053 84.528 72.22 84.4H74.908C76.3587 84.4 77.2973 84.5493 77.724 84.848C78.1507 85.104 78.364 85.4667 78.364 85.936C78.364 86.4053 78.108 87.4933 77.596 89.2C81.3507 85.7867 85.1053 84.08 88.86 84.08C91.1213 84.08 92.252 85.0187 92.252 86.896C92.252 87.7067 92.0173 88.7093 91.548 89.904C95.4307 86.0213 99.42 84.08 103.516 84.08C105.735 84.08 106.844 85.0187 106.844 86.896C106.844 87.7493 106.695 88.56 106.396 89.328C106.097 90.096 105.713 91.0987 105.244 92.336C104.775 93.5307 104.391 94.5333 104.092 95.344C103.793 96.112 103.452 97.072 103.068 98.224C102.257 100.571 101.852 102.32 101.852 103.472C101.852 104.581 102.193 105.136 102.876 105.136C103.601 105.136 104.497 104.667 105.564 103.728C106.631 102.789 107.42 101.979 107.932 101.296C108.487 100.613 109.148 99.6533 109.916 98.416C110.727 97.136 111.409 96.0267 111.964 95.088C112.519 94.1493 112.839 93.68 112.924 93.68C113.18 93.68 113.308 94.0853 113.308 94.896C113.308 95.664 113.095 96.4107 112.668 97.136ZM141.151 94.256C141.279 94 141.407 93.872 141.535 93.872C141.791 93.872 141.919 94.192 141.919 94.832C141.919 96.88 141.087 98.5867 139.423 99.952C137.801 101.275 136.265 101.936 134.815 101.936C133.407 101.936 132.191 101.531 131.167 100.72C129.631 103.749 127.796 106.139 125.663 107.888C123.572 109.637 120.863 110.512 117.535 110.512C115.401 110.512 113.652 109.872 112.286 108.592C110.964 107.269 110.303 105.285 110.303 102.64C110.303 99.952 110.9 97.2 112.095 94.384C113.332 91.5253 115.167 89.072 117.599 87.024C120.073 84.976 122.825 83.952 125.855 83.952C130.932 83.952 133.471 86.64 133.471 92.016C133.471 94.064 133.023 96.2187 132.127 98.48C132.767 99.376 133.684 99.824 134.879 99.824C137.097 99.824 139.188 97.968 141.151 94.256ZM130.463 90.288C130.292 88.0267 129.268 86.896 127.391 86.896C124.447 86.896 121.567 89.7547 118.751 95.472C117.215 98.6293 116.447 101.488 116.447 104.048C116.447 106.608 117.556 107.952 119.775 108.08C121.609 108.08 123.295 107.12 124.831 105.2C126.409 103.237 127.732 101.083 128.799 98.736C127.348 97.4987 126.623 95.9413 126.623 94.064C126.623 92.912 126.921 91.9947 127.519 91.312C128.159 90.6293 129.012 90.288 130.079 90.288H130.463ZM158.957 73.328C156.866 74.7787 154.519 78.4907 151.917 84.464H158.381L158.445 84.528C158.445 84.7413 158.21 85.1253 157.741 85.68C157.271 86.192 156.866 86.448 156.525 86.448H151.021C147.65 94.8107 145.965 100.187 145.965 102.576C145.965 104.197 146.477 105.008 147.501 105.008C148.994 105.008 150.743 103.728 152.749 101.168C153.218 100.613 153.837 99.6747 154.605 98.352C156.567 95.1947 157.591 93.616 157.677 93.616C157.933 93.616 158.061 93.9573 158.061 94.64C158.018 96.2613 156.247 99.4187 152.749 104.112C151.597 105.648 150.21 107.077 148.589 108.4C146.967 109.723 145.495 110.384 144.173 110.384C141.741 110.384 140.525 108.677 140.525 105.264C140.525 102.405 141.207 99.12 142.573 95.408V95.344C141.762 96.8373 141.058 97.9467 140.461 98.672C139.906 99.3973 139.586 99.76 139.501 99.76C139.33 99.76 139.245 99.504 139.245 98.992C139.245 98.4373 139.522 97.5627 140.077 96.368C140.674 95.1733 141.463 93.616 142.445 91.696C143.469 89.776 144.301 88.0267 144.941 86.448H140.653C140.525 86.448 140.461 86.3627 140.461 86.192C140.461 85.9787 140.61 85.6373 140.909 85.168C141.25 84.6987 141.506 84.464 141.677 84.464H146.541C149.613 77.0827 152.727 73.392 155.885 73.392C157.719 73.392 158.743 73.3707 158.957 73.328ZM173.358 75.952H173.102C172.249 75.952 171.417 76.3147 170.606 77.04C169.838 77.7653 169.283 78.512 168.942 79.28C167.833 78.8533 167.278 78.0853 167.278 76.976C167.278 75.8667 167.79 74.7573 168.814 73.648C169.838 72.496 170.819 71.92 171.758 71.92C172.697 71.92 173.401 72.1333 173.87 72.56C174.339 72.9867 174.574 73.5413 174.574 74.224C174.574 74.864 174.169 75.44 173.358 75.952ZM164.654 84.4L167.854 84.464H168.494C167.811 84.976 166.894 86.3627 165.742 88.624C164.633 90.8853 163.801 92.592 163.246 93.744C162.691 94.896 162.051 96.4533 161.326 98.416C160.643 100.379 160.302 101.979 160.302 103.216C160.302 104.453 160.707 105.072 161.518 105.072C162.073 105.072 162.841 104.709 163.822 103.984C164.846 103.216 165.678 102.427 166.318 101.616C166.958 100.763 167.662 99.696 168.43 98.416C169.241 97.136 169.923 96.0267 170.478 95.088C171.075 94.1493 171.417 93.68 171.502 93.68C171.758 93.68 171.886 94.0853 171.886 94.896C171.886 95.664 171.673 96.4107 171.246 97.136C169.667 99.7813 168.217 102 166.894 103.792C165.614 105.541 164.142 107.077 162.478 108.4C160.814 109.723 159.299 110.384 157.934 110.384C155.545 110.384 154.35 108.72 154.35 105.392C154.35 100.229 156.121 94.512 159.662 88.24C161.155 85.68 162.819 84.4 164.654 84.4ZM199.713 94.256C199.841 94 199.969 93.872 200.097 93.872C200.353 93.872 200.481 94.192 200.481 94.832C200.481 96.88 199.649 98.5867 197.985 99.952C196.364 101.275 194.828 101.936 193.377 101.936C191.969 101.936 190.753 101.531 189.729 100.72C188.193 103.749 186.358 106.139 184.225 107.888C182.134 109.637 179.425 110.512 176.097 110.512C173.964 110.512 172.214 109.872 170.849 108.592C169.526 107.269 168.865 105.285 168.865 102.64C168.865 99.952 169.462 97.2 170.657 94.384C171.894 91.5253 173.729 89.072 176.161 87.024C178.636 84.976 181.388 83.952 184.417 83.952C189.494 83.952 192.033 86.64 192.033 92.016C192.033 94.064 191.585 96.2187 190.689 98.48C191.329 99.376 192.246 99.824 193.441 99.824C195.66 99.824 197.75 97.968 199.713 94.256ZM189.025 90.288C188.854 88.0267 187.83 86.896 185.953 86.896C183.009 86.896 180.129 89.7547 177.313 95.472C175.777 98.6293 175.009 101.488 175.009 104.048C175.009 106.608 176.118 107.952 178.337 108.08C180.172 108.08 181.857 107.12 183.393 105.2C184.972 103.237 186.294 101.083 187.361 98.736C185.91 97.4987 185.185 95.9413 185.185 94.064C185.185 92.912 185.484 91.9947 186.081 91.312C186.721 90.6293 187.574 90.288 188.641 90.288H189.025ZM227.887 97.136C226.308 99.7813 224.858 102 223.535 103.792C222.255 105.541 220.783 107.077 219.119 108.4C217.455 109.723 215.94 110.384 214.575 110.384C212.058 110.384 210.799 108.997 210.799 106.224C210.799 103.451 212.399 97.8827 215.599 89.52C215.77 89.136 215.855 88.7307 215.855 88.304C215.855 87.408 215.279 86.96 214.127 86.96C213.018 86.96 211.908 87.3227 210.799 88.048C209.732 88.7307 208.751 89.7333 207.855 91.056C206.959 92.336 206.148 93.6587 205.423 95.024C204.698 96.3467 204.015 97.8827 203.375 99.632C202.778 101.381 202.287 102.853 201.903 104.048C201.562 105.2 201.199 106.459 200.815 107.824C200.474 109.147 200.282 109.872 200.239 110H194.031C194.031 109.104 195.908 103.963 199.663 94.576C201.199 90.1813 201.967 87.1093 201.967 85.36C201.967 84.9333 201.903 84.6133 201.775 84.4H204.463C205.956 84.4 206.916 84.5493 207.343 84.848C207.77 85.1467 207.983 85.552 207.983 86.064C207.983 86.576 207.748 87.6213 207.279 89.2C210.863 85.7867 214.468 84.08 218.095 84.08C220.527 84.08 221.743 85.1893 221.743 87.408C221.743 88.1333 221.636 88.8587 221.423 89.584C221.21 90.3093 220.676 91.76 219.823 93.936C217.946 98.7147 217.007 101.915 217.007 103.536C217.007 104.56 217.391 105.072 218.159 105.072C218.714 105.072 219.482 104.688 220.463 103.92C221.487 103.152 222.319 102.363 222.959 101.552C223.642 100.699 224.367 99.6533 225.135 98.416C225.946 97.136 226.628 96.0267 227.183 95.088C227.738 94.1493 228.058 93.68 228.143 93.68C228.399 93.68 228.527 94.0853 228.527 94.896C228.527 95.664 228.314 96.4107 227.887 97.136ZM252.114 97.008C248.914 102.341 246.013 106.053 243.41 108.144C240.807 110.235 237.437 111.28 233.298 111.28C230.909 111.28 228.903 110.832 227.282 109.936C225.661 108.997 224.85 107.632 224.85 105.84C224.85 104.816 225.149 103.877 225.746 103.024C226.343 102.171 227.154 101.744 228.178 101.744C229.245 101.744 229.927 102.128 230.226 102.896C229.415 103.707 229.01 104.645 229.01 105.712C229.01 107.845 230.205 108.912 232.594 108.912C234.002 108.912 235.218 108.421 236.242 107.44C237.309 106.459 237.842 105.392 237.842 104.24C237.842 103.045 237.586 102 237.074 101.104C236.562 100.208 235.943 99.4187 235.218 98.736C234.493 98.0533 233.767 97.3707 233.042 96.688C231.293 95.024 230.418 93.1253 230.418 90.992C230.418 88.816 231.229 87.0027 232.85 85.552C234.514 84.0587 236.775 83.312 239.634 83.312C241.426 83.312 242.941 83.632 244.178 84.272C245.415 84.912 246.034 85.9147 246.034 87.28C246.034 88.6027 245.629 89.7547 244.818 90.736C244.007 91.7173 242.898 92.208 241.49 92.208C240.125 92.208 239.442 91.568 239.442 90.288C239.442 89.9893 239.933 89.5413 240.914 88.944C241.895 88.3467 242.386 87.728 242.386 87.088C242.386 86.448 242.109 85.9787 241.554 85.68C241.042 85.3387 240.295 85.168 239.314 85.168C238.333 85.168 237.373 85.5093 236.434 86.192C235.538 86.8747 235.09 87.7707 235.09 88.88C235.09 89.9893 235.559 91.0347 236.498 92.016C237.437 92.9973 238.461 93.8293 239.57 94.512C240.679 95.1947 241.703 96.1547 242.642 97.392C243.581 98.5867 244.05 99.8667 244.05 101.232C244.05 102.555 243.73 103.749 243.09 104.816C242.493 105.883 241.767 106.736 240.914 107.376C243.303 106.352 245.842 103.792 248.53 99.696C248.786 99.3547 249.234 98.6507 249.874 97.584C251.367 94.896 252.199 93.552 252.37 93.552C252.626 93.552 252.754 93.9573 252.754 94.768C252.754 95.536 252.541 96.2827 252.114 97.008ZM294.529 93.36C294.785 93.36 294.913 93.7867 294.913 94.64C294.913 95.4507 294.572 96.432 293.889 97.584C293.206 98.736 292.524 99.824 291.841 100.848C291.201 101.872 290.326 103.067 289.217 104.432C288.108 105.797 287.02 106.885 285.953 107.696C283.265 109.659 280.556 110.64 277.825 110.64C275.137 110.64 272.961 109.957 271.297 108.592C269.633 107.184 268.801 105.051 268.801 102.192C268.801 97.84 270.401 93.808 273.601 90.096C276.801 86.384 280.534 84.528 284.801 84.528C286.721 84.528 288.257 85.04 289.409 86.064C290.561 87.0453 291.137 88.24 291.137 89.648C291.137 92.0373 290.006 93.9573 287.745 95.408C285.484 96.8587 282.817 97.584 279.745 97.584C277.953 97.584 276.63 97.3493 275.777 96.88C274.966 99.056 274.561 100.976 274.561 102.64C274.561 106.224 276.076 108.016 279.105 108.016C280.897 108.016 282.732 107.333 284.609 105.968C286.529 104.56 288.15 103.003 289.473 101.296C290.838 99.5467 292.374 97.0507 294.081 93.808C294.252 93.5093 294.401 93.36 294.529 93.36ZM287.745 88.304C287.745 87.0667 287.148 86.448 285.953 86.448C284.289 86.448 282.433 87.472 280.385 89.52C278.337 91.568 277.313 93.232 277.313 94.512C277.313 95.3653 278.124 95.792 279.745 95.792C281.366 95.792 283.052 95.0027 284.801 93.424C286.593 91.8453 287.574 90.1387 287.745 88.304ZM322.075 97.136C320.496 99.7813 319.045 102 317.723 103.792C316.443 105.541 314.971 107.077 313.307 108.4C311.643 109.723 310.128 110.384 308.763 110.384C306.245 110.384 304.987 108.997 304.987 106.224C304.987 103.451 306.587 97.8827 309.787 89.52C309.957 89.136 310.043 88.7307 310.043 88.304C310.043 87.408 309.467 86.96 308.315 86.96C307.205 86.96 306.096 87.3227 304.987 88.048C303.92 88.7307 302.939 89.7333 302.043 91.056C301.147 92.336 300.336 93.6587 299.611 95.024C298.885 96.3467 298.203 97.8827 297.562 99.632C296.965 101.381 296.475 102.853 296.091 104.048C295.749 105.2 295.387 106.459 295.003 107.824C294.661 109.147 294.469 109.872 294.427 110H288.218C288.218 109.104 290.096 103.963 293.851 94.576C295.387 90.1813 296.155 87.1093 296.155 85.36C296.155 84.9333 296.091 84.6133 295.963 84.4H298.651C300.144 84.4 301.104 84.5493 301.531 84.848C301.957 85.1467 302.171 85.552 302.171 86.064C302.171 86.576 301.936 87.6213 301.467 89.2C305.051 85.7867 308.656 84.08 312.283 84.08C314.715 84.08 315.931 85.1893 315.931 87.408C315.931 88.1333 315.824 88.8587 315.611 89.584C315.397 90.3093 314.864 91.76 314.011 93.936C312.133 98.7147 311.195 101.915 311.195 103.536C311.195 104.56 311.579 105.072 312.347 105.072C312.901 105.072 313.669 104.688 314.651 103.92C315.675 103.152 316.507 102.363 317.147 101.552C317.829 100.699 318.555 99.6533 319.323 98.416C320.133 97.136 320.816 96.0267 321.371 95.088C321.925 94.1493 322.245 93.68 322.331 93.68C322.587 93.68 322.715 94.0853 322.715 94.896C322.715 95.664 322.501 96.4107 322.075 97.136ZM339.582 73.328C337.491 74.7787 335.144 78.4907 332.542 84.464H339.006L339.07 84.528C339.07 84.7413 338.835 85.1253 338.366 85.68C337.896 86.192 337.491 86.448 337.15 86.448H331.646C328.275 94.8107 326.59 100.187 326.59 102.576C326.59 104.197 327.102 105.008 328.126 105.008C329.619 105.008 331.368 103.728 333.374 101.168C333.843 100.613 334.462 99.6747 335.23 98.352C337.192 95.1947 338.216 93.616 338.302 93.616C338.558 93.616 338.686 93.9573 338.686 94.64C338.643 96.2613 336.872 99.4187 333.374 104.112C332.222 105.648 330.835 107.077 329.214 108.4C327.592 109.723 326.12 110.384 324.798 110.384C322.366 110.384 321.15 108.677 321.15 105.264C321.15 102.405 321.832 99.12 323.198 95.408V95.344C322.387 96.8373 321.683 97.9467 321.086 98.672C320.531 99.3973 320.211 99.76 320.126 99.76C319.955 99.76 319.87 99.504 319.87 98.992C319.87 98.4373 320.147 97.5627 320.702 96.368C321.299 95.1733 322.088 93.616 323.07 91.696C324.094 89.776 324.926 88.0267 325.566 86.448H321.278C321.15 86.448 321.086 86.3627 321.086 86.192C321.086 85.9787 321.235 85.6373 321.534 85.168C321.875 84.6987 322.131 84.464 322.302 84.464H327.166C330.238 77.0827 333.352 73.392 336.51 73.392C338.344 73.392 339.368 73.3707 339.582 73.328ZM361.279 93.36C361.535 93.36 361.663 93.7867 361.663 94.64C361.663 95.4507 361.322 96.432 360.639 97.584C359.956 98.736 359.274 99.824 358.591 100.848C357.951 101.872 357.076 103.067 355.967 104.432C354.858 105.797 353.77 106.885 352.703 107.696C350.015 109.659 347.306 110.64 344.575 110.64C341.887 110.64 339.711 109.957 338.047 108.592C336.383 107.184 335.551 105.051 335.551 102.192C335.551 97.84 337.151 93.808 340.351 90.096C343.551 86.384 347.284 84.528 351.551 84.528C353.471 84.528 355.007 85.04 356.159 86.064C357.311 87.0453 357.887 88.24 357.887 89.648C357.887 92.0373 356.756 93.9573 354.495 95.408C352.234 96.8587 349.567 97.584 346.495 97.584C344.703 97.584 343.38 97.3493 342.527 96.88C341.716 99.056 341.311 100.976 341.311 102.64C341.311 106.224 342.826 108.016 345.855 108.016C347.647 108.016 349.482 107.333 351.359 105.968C353.279 104.56 354.9 103.003 356.223 101.296C357.588 99.5467 359.124 97.0507 360.831 93.808C361.002 93.5093 361.151 93.36 361.279 93.36ZM354.495 88.304C354.495 87.0667 353.898 86.448 352.703 86.448C351.039 86.448 349.183 87.472 347.135 89.52C345.087 91.568 344.063 93.232 344.063 94.512C344.063 95.3653 344.874 95.792 346.495 95.792C348.116 95.792 349.802 95.0027 351.551 93.424C353.343 91.8453 354.324 90.1387 354.495 88.304ZM375.769 84.272L379.033 84.336H379.673C379.033 84.8053 378.115 86.192 376.921 88.496C375.769 90.8 374.894 92.5493 374.297 93.744C373.742 94.896 373.102 96.4747 372.377 98.48C371.694 100.443 371.353 102.043 371.353 103.28C371.353 104.517 371.779 105.136 372.633 105.136C373.187 105.093 373.955 104.709 374.937 103.984C375.961 103.216 376.793 102.427 377.433 101.616C378.115 100.763 378.841 99.696 379.609 98.416C380.419 97.0933 381.102 95.9627 381.657 95.024C382.254 94.0427 382.595 93.552 382.681 93.552C382.979 93.552 383.129 93.9573 383.129 94.768C383.129 95.536 382.915 96.2827 382.489 97.008C380.654 100.037 379.139 102.363 377.945 103.984C376.75 105.605 375.299 107.099 373.593 108.464C371.929 109.787 370.414 110.448 369.049 110.448C366.617 110.448 365.401 108.656 365.401 105.072C365.401 102.64 365.87 99.888 366.809 96.816C367.747 93.744 369.134 90.7787 370.969 87.92C369.475 89.1147 367.982 89.712 366.489 89.712C366.019 89.712 365.529 89.6053 365.017 89.392C361.987 95.3653 360.345 98.352 360.089 98.352C359.875 98.352 359.769 98.0107 359.769 97.328C359.769 96.6027 360.025 95.6213 360.536 94.384C361.091 93.104 361.667 91.888 362.265 90.736C362.905 89.584 363.246 88.944 363.289 88.816C361.753 88.048 360.985 86.8107 360.985 85.104C360.985 84.2507 361.241 83.4827 361.753 82.8C362.307 82.1173 363.054 81.776 363.993 81.776C364.931 81.776 365.699 82.0747 366.297 82.672C366.211 82.928 366.169 83.312 366.169 83.824C366.169 84.976 366.574 85.8933 367.385 86.576C368.238 87.216 369.262 87.536 370.457 87.536C370.798 87.536 371.054 87.5147 371.225 87.472C372.718 85.3387 374.233 84.272 375.769 84.272ZM399.957 73.328C397.866 74.7787 395.519 78.4907 392.917 84.464H399.381L399.445 84.528C399.445 84.7413 399.21 85.1253 398.741 85.68C398.271 86.192 397.866 86.448 397.525 86.448H392.021C388.65 94.8107 386.965 100.187 386.965 102.576C386.965 104.197 387.477 105.008 388.501 105.008C389.994 105.008 391.743 103.728 393.749 101.168C394.218 100.613 394.837 99.6747 395.605 98.352C397.567 95.1947 398.591 93.616 398.677 93.616C398.933 93.616 399.061 93.9573 399.061 94.64C399.018 96.2613 397.247 99.4187 393.749 104.112C392.597 105.648 391.21 107.077 389.589 108.4C387.967 109.723 386.495 110.384 385.173 110.384C382.741 110.384 381.525 108.677 381.525 105.264C381.525 102.405 382.207 99.12 383.573 95.408V95.344C382.762 96.8373 382.058 97.9467 381.461 98.672C380.906 99.3973 380.586 99.76 380.501 99.76C380.33 99.76 380.245 99.504 380.245 98.992C380.245 98.4373 380.522 97.5627 381.077 96.368C381.674 95.1733 382.463 93.616 383.445 91.696C384.469 89.776 385.301 88.0267 385.941 86.448H381.653C381.525 86.448 381.461 86.3627 381.461 86.192C381.461 85.9787 381.61 85.6373 381.909 85.168C382.25 84.6987 382.506 84.464 382.677 84.464H387.541C390.613 77.0827 393.727 73.392 396.885 73.392C398.719 73.392 399.743 73.3707 399.957 73.328ZM422.23 84.4L425.43 84.464H426.07C424.662 85.616 422.934 88.5387 420.886 93.232C418.838 97.8827 417.814 101.275 417.814 103.408C417.814 104.517 418.198 105.072 418.966 105.072C421.441 105.072 424.598 101.424 428.438 94.128C428.609 93.8293 428.758 93.68 428.886 93.68C429.142 93.68 429.27 94.0853 429.27 94.896C429.27 95.664 429.057 96.4107 428.63 97.136C423.382 105.968 418.987 110.384 415.446 110.384C413.142 110.384 411.99 108.613 411.99 105.072C411.99 102.427 412.438 99.824 413.334 97.264C408.47 105.883 403.969 110.192 399.83 110.192C396.971 110.192 395.542 108.229 395.542 104.304C395.542 101.317 396.182 98.288 397.462 95.216C398.785 92.144 400.662 89.5413 403.094 87.408C405.526 85.232 408.193 84.144 411.094 84.144C412.459 84.144 413.739 84.464 414.934 85.104C416.129 85.7013 416.918 86.6827 417.302 88.048C417.771 87.0667 418.497 86.2133 419.478 85.488C420.459 84.7627 421.377 84.4 422.23 84.4ZM416.918 88.624C416.491 87.2587 415.489 86.576 413.91 86.576C411.094 86.576 408.363 88.5387 405.718 92.464C403.073 96.3467 401.75 99.824 401.75 102.896C401.75 104.219 402.262 104.88 403.286 104.88C404.395 104.88 405.697 104.197 407.19 102.832C408.683 101.424 410.027 99.7813 411.222 97.904C413.867 93.7227 415.766 90.6293 416.918 88.624ZM444.608 75.952H444.352C443.499 75.952 442.667 76.3147 441.856 77.04C441.088 77.7653 440.533 78.512 440.192 79.28C439.083 78.8533 438.528 78.0853 438.528 76.976C438.528 75.8667 439.04 74.7573 440.064 73.648C441.088 72.496 442.069 71.92 443.008 71.92C443.947 71.92 444.651 72.1333 445.12 72.56C445.589 72.9867 445.824 73.5413 445.824 74.224C445.824 74.864 445.419 75.44 444.608 75.952ZM435.904 84.4L439.104 84.464H439.744C439.061 84.976 438.144 86.3627 436.992 88.624C435.883 90.8853 435.051 92.592 434.496 93.744C433.941 94.896 433.301 96.4533 432.576 98.416C431.893 100.379 431.552 101.979 431.552 103.216C431.552 104.453 431.957 105.072 432.768 105.072C433.323 105.072 434.091 104.709 435.072 103.984C436.096 103.216 436.928 102.427 437.568 101.616C438.208 100.763 438.912 99.696 439.68 98.416C440.491 97.136 441.173 96.0267 441.728 95.088C442.325 94.1493 442.667 93.68 442.752 93.68C443.008 93.68 443.136 94.0853 443.136 94.896C443.136 95.664 442.923 96.4107 442.496 97.136C440.917 99.7813 439.467 102 438.144 103.792C436.864 105.541 435.392 107.077 433.728 108.4C432.064 109.723 430.549 110.384 429.184 110.384C426.795 110.384 425.6 108.72 425.6 105.392C425.6 100.229 427.371 94.512 430.912 88.24C432.405 85.68 434.069 84.4 435.904 84.4ZM470.387 97.136C468.808 99.7813 467.358 102 466.035 103.792C464.755 105.541 463.283 107.077 461.619 108.4C459.955 109.723 458.44 110.384 457.075 110.384C454.558 110.384 453.299 108.997 453.299 106.224C453.299 103.451 454.899 97.8827 458.099 89.52C458.27 89.136 458.355 88.7307 458.355 88.304C458.355 87.408 457.779 86.96 456.627 86.96C455.518 86.96 454.408 87.3227 453.299 88.048C452.232 88.7307 451.251 89.7333 450.355 91.056C449.459 92.336 448.648 93.6587 447.923 95.024C447.198 96.3467 446.515 97.8827 445.875 99.632C445.278 101.381 444.787 102.853 444.403 104.048C444.062 105.2 443.699 106.459 443.315 107.824C442.974 109.147 442.782 109.872 442.739 110H436.531C436.531 109.104 438.408 103.963 442.163 94.576C443.699 90.1813 444.467 87.1093 444.467 85.36C444.467 84.9333 444.403 84.6133 444.275 84.4H446.963C448.456 84.4 449.416 84.5493 449.843 84.848C450.27 85.1467 450.483 85.552 450.483 86.064C450.483 86.576 450.248 87.6213 449.779 89.2C453.363 85.7867 456.968 84.08 460.595 84.08C463.027 84.08 464.243 85.1893 464.243 87.408C464.243 88.1333 464.136 88.8587 463.923 89.584C463.71 90.3093 463.176 91.76 462.323 93.936C460.446 98.7147 459.507 101.915 459.507 103.536C459.507 104.56 459.891 105.072 460.659 105.072C461.214 105.072 461.982 104.688 462.963 103.92C463.987 103.152 464.819 102.363 465.459 101.552C466.142 100.699 466.867 99.6533 467.635 98.416C468.446 97.136 469.128 96.0267 469.683 95.088C470.238 94.1493 470.558 93.68 470.643 93.68C470.899 93.68 471.027 94.0853 471.027 94.896C471.027 95.664 470.814 96.4107 470.387 97.136ZM512.918 97.136C511.339 99.7813 509.889 102 508.566 103.792C507.286 105.541 505.814 107.077 504.15 108.4C502.486 109.723 500.971 110.384 499.606 110.384C497.089 110.384 495.83 108.933 495.83 106.032C495.83 102.661 497.174 97.8613 499.862 91.632C500.459 90.0533 500.758 88.9653 500.758 88.368C500.758 87.5147 500.374 87.088 499.606 87.088C499.137 87.088 498.326 87.3653 497.174 87.92C496.022 88.4747 494.913 89.3067 493.846 90.416C492.822 91.5253 491.99 92.5493 491.35 93.488C490.71 94.4267 490.006 95.8347 489.238 97.712C488.47 99.5893 487.958 100.912 487.702 101.68C486.465 105.52 485.633 108.293 485.206 110H478.934C481.153 103.856 482.667 99.7173 483.478 97.584C484.331 95.4507 484.843 94.128 485.014 93.616L485.59 91.824C486.059 90.4587 486.294 89.328 486.294 88.432C486.294 87.536 485.889 87.088 485.078 87.088C484.395 87.088 483.457 87.3867 482.262 87.984C481.11 88.5813 479.979 89.456 478.87 90.608C477.761 91.76 476.822 93.104 476.054 94.64C475.329 96.1333 474.731 97.4347 474.262 98.544C473.835 99.6533 473.387 101.019 472.918 102.64C472.449 104.219 472.022 105.52 471.638 106.544C471.297 107.525 470.934 108.677 470.55 110H464.342C464.811 108.208 465.323 106.608 465.878 105.2L470.038 94.576C471.745 90.3093 472.598 87.1947 472.598 85.232C472.598 84.8053 472.555 84.528 472.47 84.4H475.158C476.609 84.4 477.547 84.5493 477.974 84.848C478.401 85.104 478.614 85.4667 478.614 85.936C478.614 86.4053 478.358 87.4933 477.846 89.2C481.601 85.7867 485.355 84.08 489.11 84.08C491.371 84.08 492.502 85.0187 492.502 86.896C492.502 87.7067 492.267 88.7093 491.798 89.904C495.681 86.0213 499.67 84.08 503.766 84.08C505.985 84.08 507.094 85.0187 507.094 86.896C507.094 87.7493 506.945 88.56 506.646 89.328C506.347 90.096 505.963 91.0987 505.494 92.336C505.025 93.5307 504.641 94.5333 504.342 95.344C504.043 96.112 503.702 97.072 503.318 98.224C502.507 100.571 502.102 102.32 502.102 103.472C502.102 104.581 502.443 105.136 503.126 105.136C503.851 105.136 504.747 104.667 505.814 103.728C506.881 102.789 507.67 101.979 508.182 101.296C508.737 100.613 509.398 99.6533 510.166 98.416C510.977 97.136 511.659 96.0267 512.214 95.088C512.769 94.1493 513.089 93.68 513.174 93.68C513.43 93.68 513.558 94.0853 513.558 94.896C513.558 95.664 513.345 96.4107 512.918 97.136ZM536.217 93.36C536.473 93.36 536.601 93.7867 536.601 94.64C536.601 95.4507 536.259 96.432 535.577 97.584C534.894 98.736 534.211 99.824 533.529 100.848C532.889 101.872 532.014 103.067 530.905 104.432C529.795 105.797 528.707 106.885 527.641 107.696C524.953 109.659 522.243 110.64 519.513 110.64C516.825 110.64 514.649 109.957 512.985 108.592C511.321 107.184 510.489 105.051 510.489 102.192C510.489 97.84 512.089 93.808 515.289 90.096C518.489 86.384 522.222 84.528 526.489 84.528C528.409 84.528 529.945 85.04 531.097 86.064C532.249 87.0453 532.825 88.24 532.825 89.648C532.825 92.0373 531.694 93.9573 529.433 95.408C527.171 96.8587 524.505 97.584 521.433 97.584C519.641 97.584 518.318 97.3493 517.465 96.88C516.654 99.056 516.249 100.976 516.249 102.64C516.249 106.224 517.763 108.016 520.793 108.016C522.585 108.016 524.419 107.333 526.297 105.968C528.217 104.56 529.838 103.003 531.161 101.296C532.526 99.5467 534.062 97.0507 535.769 93.808C535.939 93.5093 536.089 93.36 536.217 93.36ZM529.433 88.304C529.433 87.0667 528.835 86.448 527.641 86.448C525.977 86.448 524.121 87.472 522.073 89.52C520.025 91.568 519.001 93.232 519.001 94.512C519.001 95.3653 519.811 95.792 521.433 95.792C523.054 95.792 524.739 95.0027 526.489 93.424C528.281 91.8453 529.262 90.1387 529.433 88.304ZM563.762 97.136C562.183 99.7813 560.733 102 559.41 103.792C558.13 105.541 556.658 107.077 554.994 108.4C553.33 109.723 551.815 110.384 550.45 110.384C547.933 110.384 546.674 108.997 546.674 106.224C546.674 103.451 548.274 97.8827 551.474 89.52C551.645 89.136 551.73 88.7307 551.73 88.304C551.73 87.408 551.154 86.96 550.002 86.96C548.893 86.96 547.783 87.3227 546.674 88.048C545.607 88.7307 544.626 89.7333 543.73 91.056C542.834 92.336 542.023 93.6587 541.298 95.024C540.573 96.3467 539.89 97.8827 539.25 99.632C538.653 101.381 538.162 102.853 537.778 104.048C537.437 105.2 537.074 106.459 536.69 107.824C536.349 109.147 536.157 109.872 536.114 110H529.906C529.906 109.104 531.783 103.963 535.538 94.576C537.074 90.1813 537.842 87.1093 537.842 85.36C537.842 84.9333 537.778 84.6133 537.65 84.4H540.338C541.831 84.4 542.791 84.5493 543.218 84.848C543.645 85.1467 543.858 85.552 543.858 86.064C543.858 86.576 543.623 87.6213 543.154 89.2C546.738 85.7867 550.343 84.08 553.97 84.08C556.402 84.08 557.618 85.1893 557.618 87.408C557.618 88.1333 557.511 88.8587 557.298 89.584C557.085 90.3093 556.551 91.76 555.698 93.936C553.821 98.7147 552.882 101.915 552.882 103.536C552.882 104.56 553.266 105.072 554.034 105.072C554.589 105.072 555.357 104.688 556.338 103.92C557.362 103.152 558.194 102.363 558.834 101.552C559.517 100.699 560.242 99.6533 561.01 98.416C561.821 97.136 562.503 96.0267 563.058 95.088C563.613 94.1493 563.933 93.68 564.018 93.68C564.274 93.68 564.402 94.0853 564.402 94.896C564.402 95.664 564.189 96.4107 563.762 97.136ZM581.269 73.328C579.178 74.7787 576.832 78.4907 574.229 84.464H580.693L580.757 84.528C580.757 84.7413 580.522 85.1253 580.053 85.68C579.584 86.192 579.178 86.448 578.837 86.448H573.333C569.962 94.8107 568.277 100.187 568.277 102.576C568.277 104.197 568.789 105.008 569.813 105.008C571.306 105.008 573.056 103.728 575.061 101.168C575.53 100.613 576.149 99.6747 576.917 98.352C578.88 95.1947 579.904 93.616 579.989 93.616C580.245 93.616 580.373 93.9573 580.373 94.64C580.33 96.2613 578.56 99.4187 575.061 104.112C573.909 105.648 572.522 107.077 570.901 108.4C569.28 109.723 567.808 110.384 566.485 110.384C564.053 110.384 562.837 108.677 562.837 105.264C562.837 102.405 563.52 99.12 564.885 95.408V95.344C564.074 96.8373 563.37 97.9467 562.773 98.672C562.218 99.3973 561.898 99.76 561.813 99.76C561.642 99.76 561.557 99.504 561.557 98.992C561.557 98.4373 561.834 97.5627 562.389 96.368C562.986 95.1733 563.776 93.616 564.757 91.696C565.781 89.776 566.613 88.0267 567.253 86.448H562.965C562.837 86.448 562.773 86.3627 562.773 86.192C562.773 85.9787 562.922 85.6373 563.221 85.168C563.562 84.6987 563.818 84.464 563.989 84.464H568.853C571.925 77.0827 575.04 73.392 578.197 73.392C580.032 73.392 581.056 73.3707 581.269 73.328Z" fill="#172B30"/>
</svg>
