<svg width="312" height="80" viewBox="0 0 312 80" fill="none" xmlns="http://www.w3.org/2000/svg">
<path d="M49.792 41.608C46.976 48.008 42.944 53.192 37.696 57.16C32.4907 61.0853 26.56 63.048 19.904 63.048C9.32267 63.048 4.032 58.376 4.032 49.032C4.032 44.808 4.90667 40.6693 6.656 36.616C8.448 32.52 10.7947 28.9573 13.696 25.928C16.5973 22.856 20.032 20.3813 24 18.504C27.968 16.6267 32.0213 15.688 36.16 15.688C41.5787 15.688 45.632 17.032 48.32 19.72C51.0507 22.3653 52.416 25.6933 52.416 29.704C52.416 33.672 51.5413 37.64 49.792 41.608ZM47.104 29.064C47.104 22.1093 43.9893 18.632 37.76 18.632C33.2373 18.632 28.9067 20.1893 24.768 23.304C20.672 26.4187 17.4293 30.3227 15.04 35.016C12.6933 39.7093 11.52 44.4027 11.52 49.096C11.52 52.4667 12.2667 55.1973 13.76 57.288C15.2533 59.3787 17.6213 60.424 20.864 60.424C24.1493 60.424 27.4347 59.4427 30.72 57.48C34.0053 55.5173 36.8213 53.0213 39.168 49.992C41.5147 46.92 43.4133 43.528 44.864 39.816C46.3573 36.0613 47.104 32.4773 47.104 29.064ZM75.4365 35.208L78.5085 35.272C79.1485 35.272 79.5538 35.2507 79.7245 35.208C78.5298 36.0187 76.8018 38.856 74.5405 43.72C72.3218 48.5413 71.2125 52.0187 71.2125 54.152C71.2125 55.432 71.6392 56.072 72.4925 56.072C73.0472 56.072 73.7938 55.7093 74.7325 54.984C75.7138 54.2587 76.5458 53.4693 77.2285 52.616C77.9112 51.72 78.6365 50.632 79.4045 49.352C80.2152 48.072 80.8978 46.9627 81.4525 46.024C82.0498 45.0853 82.3912 44.616 82.4765 44.616C82.7325 44.616 82.8605 45.0213 82.8605 45.832C82.8605 46.6427 82.6258 47.4107 82.1565 48.136C76.8658 56.968 72.4498 61.384 68.9085 61.384C66.5192 61.384 65.3245 59.6133 65.3245 56.072C65.3245 54.9627 65.4098 53.896 65.5805 52.872C61.5698 58.5467 57.7512 61.384 54.1245 61.384C53.0578 61.384 52.1832 60.936 51.5005 60.04C50.8605 59.144 50.5405 57.8213 50.5405 56.072C50.5405 54.3227 51.1592 51.4427 52.3965 47.432C53.6338 43.3787 55.1485 40.0507 56.9405 37.448C57.3672 36.808 57.8152 36.424 58.2845 36.296C58.7965 36.1253 59.7352 36.04 61.1005 36.04H64.1725C63.1058 37.4907 61.9538 39.4533 60.7165 41.928C57.9005 47.7733 56.4925 52.0613 56.4925 54.792C56.4925 56.4133 57.0685 57.224 58.2205 57.224C59.4152 57.224 60.8232 56.0933 62.4445 53.832C64.0658 51.5707 65.7938 48.648 67.6285 45.064C69.5058 41.4373 70.5938 39.3893 70.8925 38.92C72.4712 36.4453 73.9858 35.208 75.4365 35.208ZM97.0185 35.272L100.283 35.336H100.923C100.283 35.8053 99.3652 37.192 98.1705 39.496C97.0185 41.8 96.1438 43.5493 95.5465 44.744C94.9918 45.896 94.3518 47.4747 93.6265 49.48C92.9438 51.4427 92.6025 53.0427 92.6025 54.28C92.6025 55.5173 93.0292 56.136 93.8825 56.136C94.4372 56.0933 95.2052 55.7093 96.1865 54.984C97.2105 54.216 98.0425 53.4267 98.6825 52.616C99.3652 51.7627 100.091 50.696 100.859 49.416C101.669 48.0933 102.352 46.9627 102.907 46.024C103.504 45.0427 103.845 44.552 103.931 44.552C104.229 44.552 104.379 44.9573 104.379 45.768C104.379 46.536 104.165 47.2827 103.739 48.008C101.904 51.0373 100.389 53.3627 99.1945 54.984C97.9998 56.6053 96.5492 58.0987 94.8425 59.464C93.1785 60.7867 91.6638 61.448 90.2985 61.448C87.8665 61.448 86.6505 59.656 86.6505 56.072C86.6505 53.64 87.1198 50.888 88.0585 47.816C88.9972 44.744 90.3838 41.7787 92.2185 38.92C90.7252 40.1147 89.2318 40.712 87.7385 40.712C87.2692 40.712 86.7785 40.6053 86.2665 40.392C83.2372 46.3653 81.5945 49.352 81.3385 49.352C81.1252 49.352 81.0185 49.0107 81.0185 48.328C81.0185 47.6027 81.2745 46.6213 81.7865 45.384C82.3412 44.104 82.9172 42.888 83.5145 41.736C84.1545 40.584 84.4958 39.944 84.5385 39.816C83.0025 39.048 82.2345 37.8107 82.2345 36.104C82.2345 35.2507 82.4905 34.4827 83.0025 33.8C83.5572 33.1173 84.3038 32.776 85.2425 32.776C86.1812 32.776 86.9492 33.0747 87.5465 33.672C87.4612 33.928 87.4185 34.312 87.4185 34.824C87.4185 35.976 87.8238 36.8933 88.6345 37.576C89.4878 38.216 90.5118 38.536 91.7065 38.536C92.0478 38.536 92.3038 38.5147 92.4745 38.472C93.9678 36.3387 95.4825 35.272 97.0185 35.272ZM146.282 15.176C150.25 15.176 153.087 15.816 154.794 17.096C156.501 18.376 157.354 19.9333 157.354 21.768C157.354 23.56 156.735 25.2453 155.498 26.824C154.303 28.36 152.618 29.128 150.442 29.128C148.266 29.128 147.178 28.2107 147.178 26.376C147.178 26.2053 147.221 25.864 147.306 25.352C148.458 25.352 149.461 24.904 150.314 24.008C151.167 23.112 151.594 22.1307 151.594 21.064C151.594 19.9973 151.082 19.1227 150.058 18.44C149.034 17.7573 147.797 17.416 146.346 17.416C143.871 17.416 141.823 18.1627 140.202 19.656C138.581 21.1493 137.77 22.8987 137.77 24.904C137.77 25.9707 138.154 27.144 138.922 28.424C139.69 29.704 140.415 30.728 141.098 31.496C141.823 32.2213 142.975 33.3307 144.554 34.824C146.175 36.2747 147.135 37.1493 147.434 37.448C150.677 40.6907 152.298 44.232 152.298 48.072C152.298 51.8693 150.57 55.1973 147.114 58.056C143.658 60.872 139.519 62.28 134.698 62.28C130.773 62.28 127.594 61.64 125.162 60.36C122.773 59.08 121.578 57.0747 121.578 54.344C121.578 52.8507 122.069 51.4853 123.05 50.248C124.031 49.0107 125.418 48.392 127.21 48.392C129.045 48.392 130.282 49.032 130.922 50.312C129.429 51.5067 128.682 52.9573 128.682 54.664C128.682 56.328 129.237 57.6293 130.346 58.568C131.498 59.464 132.991 59.912 134.826 59.912C137.386 59.912 139.626 58.9947 141.546 57.16C143.509 55.3253 144.49 53.0213 144.49 50.248C144.49 47.432 142.655 44.0827 138.986 40.2C138.943 40.1147 138.197 39.3253 136.746 37.832C135.295 36.296 134.079 34.7387 133.098 33.16C132.159 31.5813 131.69 29.704 131.69 27.528C131.69 23.816 133.141 20.8293 136.042 18.568C138.943 16.3067 142.357 15.176 146.282 15.176ZM179.654 44.36C179.91 44.36 180.038 44.7867 180.038 45.64C180.038 46.4507 179.697 47.432 179.014 48.584C178.331 49.736 177.649 50.824 176.966 51.848C176.326 52.872 175.451 54.0667 174.342 55.432C173.233 56.7973 172.145 57.8853 171.078 58.696C168.39 60.6587 165.681 61.64 162.95 61.64C160.262 61.64 158.086 60.9573 156.422 59.592C154.758 58.184 153.926 56.0507 153.926 53.192C153.926 48.84 155.526 44.808 158.726 41.096C161.926 37.384 165.659 35.528 169.926 35.528C171.846 35.528 173.382 36.04 174.534 37.064C175.686 38.0453 176.262 39.24 176.262 40.648C176.262 43.0373 175.131 44.9573 172.87 46.408C170.609 47.8587 167.942 48.584 164.87 48.584C163.078 48.584 161.755 48.3493 160.902 47.88C160.091 50.056 159.686 51.976 159.686 53.64C159.686 57.224 161.201 59.016 164.23 59.016C166.022 59.016 167.857 58.3333 169.734 56.968C171.654 55.56 173.275 54.0027 174.598 52.296C175.963 50.5467 177.499 48.0507 179.206 44.808C179.377 44.5093 179.526 44.36 179.654 44.36ZM172.87 39.304C172.87 38.0667 172.273 37.448 171.078 37.448C169.414 37.448 167.558 38.472 165.51 40.52C163.462 42.568 162.438 44.232 162.438 45.512C162.438 46.3653 163.249 46.792 164.87 46.792C166.491 46.792 168.177 46.0027 169.926 44.424C171.718 42.8453 172.699 41.1387 172.87 39.304ZM194.144 35.272L197.408 35.336H198.048C197.408 35.8053 196.49 37.192 195.296 39.496C194.144 41.8 193.269 43.5493 192.672 44.744C192.117 45.896 191.477 47.4747 190.752 49.48C190.069 51.4427 189.728 53.0427 189.728 54.28C189.728 55.5173 190.154 56.136 191.008 56.136C191.562 56.0933 192.33 55.7093 193.312 54.984C194.336 54.216 195.168 53.4267 195.808 52.616C196.49 51.7627 197.216 50.696 197.984 49.416C198.794 48.0933 199.477 46.9627 200.032 46.024C200.629 45.0427 200.97 44.552 201.056 44.552C201.354 44.552 201.504 44.9573 201.504 45.768C201.504 46.536 201.29 47.2827 200.864 48.008C199.029 51.0373 197.514 53.3627 196.32 54.984C195.125 56.6053 193.674 58.0987 191.968 59.464C190.304 60.7867 188.789 61.448 187.424 61.448C184.992 61.448 183.776 59.656 183.776 56.072C183.776 53.64 184.245 50.888 185.184 47.816C186.122 44.744 187.509 41.7787 189.344 38.92C187.85 40.1147 186.357 40.712 184.864 40.712C184.394 40.712 183.904 40.6053 183.392 40.392C180.362 46.3653 178.72 49.352 178.464 49.352C178.25 49.352 178.144 49.0107 178.144 48.328C178.144 47.6027 178.4 46.6213 178.911 45.384C179.466 44.104 180.042 42.888 180.64 41.736C181.28 40.584 181.621 39.944 181.664 39.816C180.128 39.048 179.36 37.8107 179.36 36.104C179.36 35.2507 179.616 34.4827 180.128 33.8C180.682 33.1173 181.429 32.776 182.368 32.776C183.306 32.776 184.074 33.0747 184.672 33.672C184.586 33.928 184.544 34.312 184.544 34.824C184.544 35.976 184.949 36.8933 185.76 37.576C186.613 38.216 187.637 38.536 188.832 38.536C189.173 38.536 189.429 38.5147 189.6 38.472C191.093 36.3387 192.608 35.272 194.144 35.272ZM226.524 48.328C224.774 51.4427 222.577 53 219.932 53C217.713 53 216.156 51.8053 215.26 49.416C211.548 55.0053 208.945 58.312 207.452 59.336C205.361 60.744 203.313 61.448 201.308 61.448C200.284 61.448 199.43 60.9573 198.748 59.976C198.108 58.952 197.788 57.5867 197.788 55.88C197.788 54.1307 198.321 51.528 199.388 48.072C201.478 41.288 203.889 37.32 206.62 36.168C207.942 35.6133 209.734 35.336 211.996 35.336C212.166 35.336 212.252 35.4213 212.252 35.592C212.252 35.7627 212.124 35.976 211.868 36.232C210.246 37.5973 208.476 40.52 206.556 45C204.678 49.4373 203.74 52.5947 203.74 54.472C203.74 56.3067 204.444 57.224 205.852 57.224C207.046 57.224 208.433 56.0507 210.012 53.704C211.59 51.3147 212.913 48.6907 213.98 45.832C213.766 44.8507 213.66 43.6133 213.66 42.12C213.66 40.584 214.022 39.0693 214.748 37.576C215.516 36.04 216.561 35.272 217.884 35.272C219.206 35.272 219.868 36.2533 219.868 38.216C219.868 40.52 219.164 42.8667 217.756 45.256C217.372 45.9387 217.116 46.408 216.988 46.664C217.03 47.9867 217.35 49.0107 217.948 49.736C218.588 50.4613 219.398 50.824 220.38 50.824C221.916 50.824 223.345 49.864 224.668 47.944C225.18 47.176 225.628 46.4933 226.012 45.896C226.438 45.256 226.673 44.936 226.716 44.936C226.886 44.936 226.972 45.384 226.972 46.28C226.972 47.176 226.822 47.8587 226.524 48.328ZM242.671 26.952H242.415C241.561 26.952 240.729 27.3147 239.919 28.04C239.151 28.7653 238.596 29.512 238.255 30.28C237.145 29.8533 236.591 29.0853 236.591 27.976C236.591 26.8667 237.103 25.7573 238.127 24.648C239.151 23.496 240.132 22.92 241.071 22.92C242.009 22.92 242.713 23.1333 243.183 23.56C243.652 23.9867 243.887 24.5413 243.887 25.224C243.887 25.864 243.481 26.44 242.671 26.952ZM233.967 35.4L237.167 35.464H237.807C237.124 35.976 236.207 37.3627 235.055 39.624C233.945 41.8853 233.113 43.592 232.559 44.744C232.004 45.896 231.364 47.4533 230.639 49.416C229.956 51.3787 229.615 52.9787 229.615 54.216C229.615 55.4533 230.02 56.072 230.831 56.072C231.385 56.072 232.153 55.7093 233.135 54.984C234.159 54.216 234.991 53.4267 235.631 52.616C236.271 51.7627 236.975 50.696 237.743 49.416C238.553 48.136 239.236 47.0267 239.791 46.088C240.388 45.1493 240.729 44.68 240.815 44.68C241.071 44.68 241.199 45.0853 241.199 45.896C241.199 46.664 240.985 47.4107 240.559 48.136C238.98 50.7813 237.529 53 236.207 54.792C234.927 56.5413 233.455 58.0773 231.791 59.4C230.127 60.7227 228.612 61.384 227.247 61.384C224.857 61.384 223.663 59.72 223.663 56.392C223.663 51.2293 225.433 45.512 228.975 39.24C230.468 36.68 232.132 35.4 233.967 35.4ZM263.714 44.616C263.97 44.616 264.098 45.0213 264.098 45.832C264.098 46.6427 263.735 47.6453 263.01 48.84C262.327 50.0347 261.772 50.952 261.346 51.592C260.962 52.1893 260.279 53.1707 259.298 54.536C258.316 55.9013 257.463 56.8827 256.738 57.48C256.012 58.0773 255.095 58.7813 253.986 59.592C252.108 60.9573 249.655 61.64 246.626 61.64C243.639 61.64 241.463 60.8933 240.098 59.4C238.775 57.864 238.114 55.88 238.114 53.448C238.114 48.968 239.692 44.872 242.85 41.16C246.05 37.4053 249.804 35.528 254.114 35.528C256.034 35.528 257.57 36.04 258.722 37.064C259.874 38.0453 260.45 39.24 260.45 40.648C260.45 42.0133 260.066 43.208 259.298 44.232C258.53 45.256 257.655 45.768 256.674 45.768C254.754 45.768 253.794 44.9787 253.794 43.4C253.794 42.888 254.327 42.3973 255.394 41.928C255.82 41.7573 256.204 41.4373 256.546 40.968C256.887 40.4987 257.058 39.88 257.058 39.112C257.058 38.0027 256.46 37.448 255.266 37.448C252.706 37.448 250.167 39.304 247.65 43.016C245.132 46.728 243.874 50.3333 243.874 53.832C243.874 57.288 245.388 59.016 248.418 59.016C252.642 59.016 256.759 55.752 260.77 49.224C261.58 47.944 262.242 46.856 262.754 45.96C263.308 45.064 263.628 44.616 263.714 44.616ZM286.779 44.36C287.035 44.36 287.163 44.7867 287.163 45.64C287.163 46.4507 286.822 47.432 286.139 48.584C285.456 49.736 284.774 50.824 284.091 51.848C283.451 52.872 282.576 54.0667 281.467 55.432C280.358 56.7973 279.27 57.8853 278.203 58.696C275.515 60.6587 272.806 61.64 270.075 61.64C267.387 61.64 265.211 60.9573 263.547 59.592C261.883 58.184 261.051 56.0507 261.051 53.192C261.051 48.84 262.651 44.808 265.851 41.096C269.051 37.384 272.784 35.528 277.051 35.528C278.971 35.528 280.507 36.04 281.659 37.064C282.811 38.0453 283.387 39.24 283.387 40.648C283.387 43.0373 282.256 44.9573 279.995 46.408C277.734 47.8587 275.067 48.584 271.995 48.584C270.203 48.584 268.88 48.3493 268.027 47.88C267.216 50.056 266.811 51.976 266.811 53.64C266.811 57.224 268.326 59.016 271.355 59.016C273.147 59.016 274.982 58.3333 276.859 56.968C278.779 55.56 280.4 54.0027 281.723 52.296C283.088 50.5467 284.624 48.0507 286.331 44.808C286.502 44.5093 286.651 44.36 286.779 44.36ZM279.995 39.304C279.995 38.0667 279.398 37.448 278.203 37.448C276.539 37.448 274.683 38.472 272.635 40.52C270.587 42.568 269.563 44.232 269.563 45.512C269.563 46.3653 270.374 46.792 271.995 46.792C273.616 46.792 275.302 46.0027 277.051 44.424C278.843 42.8453 279.824 41.1387 279.995 39.304ZM310.677 48.008C307.477 53.3413 304.575 57.0533 301.973 59.144C299.37 61.2347 295.999 62.28 291.861 62.28C289.471 62.28 287.466 61.832 285.845 60.936C284.223 59.9973 283.413 58.632 283.413 56.84C283.413 55.816 283.711 54.8773 284.309 54.024C284.906 53.1707 285.717 52.744 286.741 52.744C287.807 52.744 288.49 53.128 288.789 53.896C287.978 54.7067 287.573 55.6453 287.573 56.712C287.573 58.8453 288.767 59.912 291.157 59.912C292.565 59.912 293.781 59.4213 294.805 58.44C295.871 57.4587 296.405 56.392 296.405 55.24C296.405 54.0453 296.149 53 295.637 52.104C295.125 51.208 294.506 50.4187 293.781 49.736C293.055 49.0533 292.33 48.3707 291.605 47.688C289.855 46.024 288.981 44.1253 288.981 41.992C288.981 39.816 289.791 38.0027 291.413 36.552C293.077 35.0587 295.338 34.312 298.197 34.312C299.989 34.312 301.503 34.632 302.741 35.272C303.978 35.912 304.597 36.9147 304.597 38.28C304.597 39.6027 304.191 40.7547 303.381 41.736C302.57 42.7173 301.461 43.208 300.053 43.208C298.687 43.208 298.005 42.568 298.005 41.288C298.005 40.9893 298.495 40.5413 299.477 39.944C300.458 39.3467 300.949 38.728 300.949 38.088C300.949 37.448 300.671 36.9787 300.117 36.68C299.605 36.3387 298.858 36.168 297.877 36.168C296.895 36.168 295.935 36.5093 294.997 37.192C294.101 37.8747 293.653 38.7707 293.653 39.88C293.653 40.9893 294.122 42.0347 295.061 43.016C295.999 43.9973 297.023 44.8293 298.133 45.512C299.242 46.1947 300.266 47.1547 301.205 48.392C302.143 49.5867 302.613 50.8667 302.613 52.232C302.613 53.5547 302.293 54.7493 301.653 55.816C301.055 56.8827 300.33 57.736 299.477 58.376C301.866 57.352 304.405 54.792 307.093 50.696C307.349 50.3547 307.797 49.6507 308.437 48.584C309.93 45.896 310.762 44.552 310.933 44.552C311.189 44.552 311.317 44.9573 311.317 45.768C311.317 46.536 311.103 47.2827 310.677 48.008Z" fill="#172B30"/>
</svg>
