<svg width="314" height="119" viewBox="0 0 314 119" fill="none" xmlns="http://www.w3.org/2000/svg">
<path d="M5.25 69.0625C4.125 69.0208 3.22917 68.75 2.5625 68.25C1.9375 67.7083 1.5 67.0625 1.25 66.3125C1 65.5208 0.875 64.6458 0.875 63.6875C0.916667 62.7292 1.02083 61.7917 1.1875 60.875C3.35417 54.2917 5.4375 48.7292 7.4375 44.1875C9.4375 39.6042 11.3333 35.875 13.125 33C14.9167 30.0833 16.6042 27.8958 18.1875 26.4375C19.7708 24.9375 21.2292 23.9583 22.5625 23.5C23.9375 23.0417 25.1667 23 26.25 23.375C27.375 23.7083 28.375 24.25 29.25 25C30.125 25.75 30.8542 26.6042 31.4375 27.5625C32.0625 28.4792 32.5417 29.2917 32.875 30C32.7083 34.1667 31.9167 38.2917 30.5 42.375C29.0833 46.4583 27.1458 50.25 24.6875 53.75C22.2708 57.25 19.3958 60.3333 16.0625 63C12.7708 65.6667 9.16667 67.6875 5.25 69.0625ZM21.4375 29.3125C20.5208 29.5208 19.4792 30.375 18.3125 31.875C17.1875 33.375 16.0208 35.25 14.8125 37.5C13.6458 39.75 12.4792 42.25 11.3125 45C10.1458 47.7083 9.08333 50.3542 8.125 52.9375C7.16667 55.5208 6.33333 57.9167 5.625 60.125C4.91667 62.3333 4.4375 64.0417 4.1875 65.25C5.72917 65.25 7.41667 64.7917 9.25 63.875C11.125 62.9583 12.8958 61.8333 14.5625 60.5C16.2292 59.125 17.6875 57.6667 18.9375 56.125C20.1875 54.5833 21.0208 53.2083 21.4375 52V51.8125C21.4375 51.7292 21.4375 51.6875 21.4375 51.6875C21.4792 51.6458 21.5 51.6042 21.5 51.5625C21.5 51.5208 21.4792 51.4792 21.4375 51.4375C21.4375 51.3958 21.4375 51.3542 21.4375 51.3125V51.1875C20.5208 49.5625 19.8125 47.8125 19.3125 45.9375C18.8542 44.0625 18.625 42.1667 18.625 40.25C18.625 38.3333 18.8542 36.4375 19.3125 34.5625C19.7708 32.6875 20.4792 30.9375 21.4375 29.3125ZM28.75 27.5625C26.5 28.2292 24.8125 29.3958 23.6875 31.0625C22.6042 32.6875 21.9167 34.5417 21.625 36.625C21.3333 38.6667 21.375 40.7917 21.75 43C22.125 45.1667 22.6875 47.1042 23.4375 48.8125C27.8958 43.9375 30.2292 38.1042 30.4375 31.3125C30.4375 30.9375 30.4375 30.5417 30.4375 30.125C30.4792 29.7083 30.4583 29.3333 30.375 29C30.3333 28.625 30.1875 28.3125 29.9375 28.0625C29.6875 27.7708 29.2917 27.6042 28.75 27.5625ZM32.6875 65.875C32.6875 65.25 32.875 64.375 33.25 63.25C33.625 62.0833 34.1042 60.8333 34.6875 59.5C35.3125 58.1667 36 56.8125 36.75 55.4375C37.5417 54.0625 38.3333 52.8125 39.125 51.6875C39.9167 50.5625 40.6667 49.6458 41.375 48.9375C42.0833 48.2292 42.7083 47.875 43.25 47.875C44.4167 47.875 45 48.4375 45 49.5625C45 50.0625 44.8958 50.4792 44.6875 50.8125C44.5208 51.1458 44.3125 51.4583 44.0625 51.75C43.8125 52.0417 43.5417 52.3333 43.25 52.625C42.9583 52.875 42.7083 53.1875 42.5 53.5625C42.125 54.1875 41.6667 55.0417 41.125 56.125C40.5833 57.2083 40.0417 58.2708 39.5 59.3125C39 60.3125 38.5625 61.2083 38.1875 62C37.8125 62.7917 37.625 63.2292 37.625 63.3125V64.125C39.25 63.8333 40.8125 63.1458 42.3125 62.0625C43.8125 60.9375 45.2292 59.625 46.5625 58.125C47.9375 56.625 49.2292 55.0625 50.4375 53.4375C51.6875 51.7708 52.8542 50.25 53.9375 48.875C55.0208 47.4583 56.0417 46.2917 57 45.375C57.9583 44.4583 58.8542 44 59.6875 44C59.6875 45.5417 59.375 46.9375 58.75 48.1875C58.125 49.4375 57.4375 50.6667 56.6875 51.875C55.9792 53.0833 55.3125 54.3333 54.6875 55.625C54.0625 56.875 53.75 58.2917 53.75 59.875C53.75 60.5417 54.1458 61.1458 54.9375 61.6875C55.7708 62.1875 56.7083 62.625 57.75 63C58.8333 63.3333 59.875 63.6042 60.875 63.8125C61.875 64.0208 62.5625 64.1458 62.9375 64.1875V65.8125C61.9792 65.8542 60.7917 65.875 59.375 65.875C57.9583 65.8333 56.5417 65.6667 55.125 65.375C53.7083 65.0833 52.4167 64.6042 51.25 63.9375C50.125 63.2292 49.375 62.2083 49 60.875C47.9167 61.5833 46.875 62.4167 45.875 63.375C44.875 64.3333 43.8333 65.2292 42.75 66.0625C41.7083 66.8958 40.6042 67.6042 39.4375 68.1875C38.2708 68.7708 37 69.0625 35.625 69.0625C34.7917 69.0625 34.0833 68.7083 33.5 68C32.9583 67.2917 32.6875 66.5833 32.6875 65.875ZM76.4375 64.1875C76.4375 62.9375 76.6875 61.7917 77.1875 60.75C77.7292 59.6667 78.3125 58.6458 78.9375 57.6875C79.5625 56.7292 80.125 55.7708 80.625 54.8125C81.1667 53.8542 81.4375 52.8333 81.4375 51.75C81.4375 51.5 81.4167 51.2083 81.375 50.875C81.375 50.5 81.3333 50.1458 81.25 49.8125C81.2083 49.4792 81.0833 49.2083 80.875 49C80.7083 48.75 80.4792 48.625 80.1875 48.625C80.1458 48.625 80.0625 48.6458 79.9375 48.6875C79.8542 48.6875 79.8125 48.7083 79.8125 48.75C79.2292 49.5417 78.5208 50.4375 77.6875 51.4375C76.8958 52.3958 76.0417 53.3542 75.125 54.3125C74.2083 55.2708 73.3125 56.1875 72.4375 57.0625C71.5625 57.9375 70.7708 58.6667 70.0625 59.25C69.5625 59.7083 68.875 60.3333 68 61.125C67.1667 61.9167 66.3125 62.7083 65.4375 63.5C64.6042 64.25 63.8542 64.9167 63.1875 65.5C62.5625 66.0833 62.2083 66.375 62.125 66.375L59.25 63.9375C59.625 63.9375 60 63.8542 60.375 63.6875C60.7083 63.5208 61.0417 63.3333 61.375 63.125C63.875 61.4583 66.125 59.5417 68.125 57.375C70.1667 55.2083 72.1667 52.875 74.125 50.375C74.2083 50.25 74.4167 49.8958 74.75 49.3125C75.125 48.6875 75.5208 48 75.9375 47.25C76.3542 46.4583 76.7708 45.6875 77.1875 44.9375C77.6042 44.1458 77.9167 43.5208 78.125 43.0625C78.375 42.5208 78.5208 42.0833 78.5625 41.75C78.6458 41.4167 78.7083 41.1667 78.75 41C78.8333 40.7917 78.9583 40.6458 79.125 40.5625C79.2917 40.4792 79.6458 40.4375 80.1875 40.4375C80.2708 40.4375 80.4583 40.4583 80.75 40.5C81.0833 40.5417 81.2917 40.5833 81.375 40.625C81.9167 41.75 82.3958 42.75 82.8125 43.625C83.2292 44.5 83.5833 45.3333 83.875 46.125C84.1667 46.875 84.375 47.6458 84.5 48.4375C84.6667 49.2292 84.75 50.1042 84.75 51.0625C84.2083 52.4375 83.6042 53.8542 82.9375 55.3125C82.2708 56.7292 81.7083 58.0833 81.25 59.375C80.7917 60.6667 80.5 61.8333 80.375 62.875C80.2917 63.9167 80.5208 64.75 81.0625 65.375C81.6458 65.9583 82.6042 66.2708 83.9375 66.3125C85.3125 66.3542 87.25 66 89.75 65.25C90.4167 65.5833 90.4792 66 89.9375 66.5C89.3958 66.9583 88.5625 67.3958 87.4375 67.8125C86.3542 68.2292 85.1458 68.5833 83.8125 68.875C82.5208 69.125 81.4375 69.1875 80.5625 69.0625C79.7708 69.0625 79.1042 68.9375 78.5625 68.6875C78.0625 68.3958 77.6458 68.0208 77.3125 67.5625C77.0208 67.1042 76.7917 66.5833 76.625 66C76.5 65.4167 76.4375 64.8125 76.4375 64.1875ZM118.562 55.1875C118.562 54.5208 118.604 53.7917 118.688 53C118.771 52.1667 118.958 51.4167 119.25 50.75C119.542 50.0833 119.958 49.5208 120.5 49.0625C121.083 48.6042 121.854 48.375 122.812 48.375C122.812 48.9167 122.75 49.4167 122.625 49.875C122.542 50.3333 122.417 50.7917 122.25 51.25C122.125 51.7083 122 52.2083 121.875 52.75C121.792 53.25 121.75 53.8125 121.75 54.4375C121.75 56.0208 121.958 57.5 122.375 58.875C122.792 60.25 123.417 61.4583 124.25 62.5C125.125 63.5 126.188 64.2917 127.438 64.875C128.729 65.4583 130.25 65.75 132 65.75C132.75 65.75 133.667 65.5833 134.75 65.25C135.833 64.9167 136.917 64.5208 138 64.0625C139.083 63.6042 140.083 63.1458 141 62.6875C141.917 62.2292 142.562 61.8958 142.938 61.6875C143.854 61.1875 144.583 60.5 145.125 59.625C145.667 58.7083 146.083 57.7292 146.375 56.6875C146.667 55.6042 146.854 54.5208 146.938 53.4375C147.021 52.3125 147.062 51.3125 147.062 50.4375C147.062 49.0208 146.917 47.6458 146.625 46.3125C146.375 44.9375 146.083 43.5833 145.75 42.25C145.458 40.9167 145.167 39.5833 144.875 38.25C144.625 36.9167 144.5 35.5625 144.5 34.1875C144.958 32.8958 145.667 31.7292 146.625 30.6875C147.625 29.6042 148.75 28.6875 150 27.9375C151.292 27.1458 152.667 26.5208 154.125 26.0625C155.583 25.6042 157 25.3333 158.375 25.25C159.5 25.5417 160.354 25.9167 160.938 26.375C161.521 26.7917 161.917 27.25 162.125 27.75C162.375 28.25 162.438 28.7292 162.312 29.1875C162.188 29.6458 161.979 30.0625 161.688 30.4375C161.229 29.4375 160.625 28.7708 159.875 28.4375C159.167 28.1042 158.354 28 157.438 28.125C156.562 28.25 155.667 28.5625 154.75 29.0625C153.833 29.5625 152.958 30.125 152.125 30.75C151.292 31.375 150.562 32.0417 149.938 32.75C149.312 33.4167 148.854 34 148.562 34.5C148.562 35.75 148.688 36.9792 148.938 38.1875C149.229 39.3542 149.521 40.5417 149.812 41.75C150.146 42.9167 150.438 44.1042 150.688 45.3125C150.979 46.4792 151.125 47.6875 151.125 48.9375C151.125 51.9375 150.646 54.6875 149.688 57.1875C148.771 59.6458 147.417 61.7708 145.625 63.5625C143.875 65.3125 141.729 66.6667 139.188 67.625C136.688 68.5833 133.875 69.0625 130.75 69.0625C128.792 69.0625 127.042 68.6667 125.5 67.875C124 67.0833 122.729 66.0417 121.688 64.75C120.688 63.4167 119.917 61.9167 119.375 60.25C118.833 58.5833 118.562 56.8958 118.562 55.1875ZM156.062 65.75C155.354 64.1667 155.042 62.625 155.125 61.125C155.208 59.5833 155.542 58.1458 156.125 56.8125C156.75 55.4375 157.542 54.2083 158.5 53.125C159.5 52 160.562 51.0417 161.688 50.25C162.812 49.4167 163.938 48.7917 165.062 48.375C166.229 47.9583 167.25 47.7917 168.125 47.875C169 47.9167 169.688 48.2292 170.188 48.8125C170.688 49.3958 170.854 50.2917 170.688 51.5C170.688 53.125 170.167 54.5417 169.125 55.75C168.125 56.9583 167 58.0417 165.75 59C164.542 59.9583 163.417 60.8333 162.375 61.625C161.375 62.375 160.875 63.0833 160.875 63.75C160.875 64.125 161.083 64.4167 161.5 64.625C161.958 64.8333 162.479 65 163.062 65.125C163.646 65.2083 164.229 65.2708 164.812 65.3125C165.396 65.3542 165.812 65.3958 166.062 65.4375C169.979 64.6042 172.917 64.1042 174.875 63.9375C176.833 63.7292 178.062 63.75 178.562 64C179.062 64.2083 178.958 64.5625 178.25 65.0625C177.583 65.5208 176.542 66.0208 175.125 66.5625C173.708 67.0625 172.062 67.5208 170.188 67.9375C168.312 68.3542 166.458 68.6042 164.625 68.6875C162.792 68.7292 161.083 68.5417 159.5 68.125C157.958 67.7083 156.812 66.9167 156.062 65.75ZM167 51.5C166.167 51.5 165.375 51.7292 164.625 52.1875C163.875 52.6458 163.188 53.2292 162.562 53.9375C161.979 54.6042 161.479 55.3542 161.062 56.1875C160.646 56.9792 160.333 57.7292 160.125 58.4375C160.208 58.4792 160.271 58.5 160.312 58.5H160.5C161.083 58.5 161.75 58.25 162.5 57.75C163.25 57.25 163.958 56.6458 164.625 55.9375C165.292 55.1875 165.854 54.4167 166.312 53.625C166.771 52.8333 167 52.125 167 51.5ZM191 64.1875C191 62.9375 191.25 61.7917 191.75 60.75C192.292 59.6667 192.875 58.6458 193.5 57.6875C194.125 56.7292 194.688 55.7708 195.188 54.8125C195.729 53.8542 196 52.8333 196 51.75C196 51.5 195.979 51.2083 195.938 50.875C195.938 50.5 195.896 50.1458 195.812 49.8125C195.771 49.4792 195.646 49.2083 195.438 49C195.271 48.75 195.042 48.625 194.75 48.625C194.708 48.625 194.625 48.6458 194.5 48.6875C194.417 48.6875 194.375 48.7083 194.375 48.75C193.792 49.5417 193.083 50.4375 192.25 51.4375C191.458 52.3958 190.604 53.3542 189.688 54.3125C188.771 55.2708 187.875 56.1875 187 57.0625C186.125 57.9375 185.333 58.6667 184.625 59.25C184.125 59.7083 183.438 60.3333 182.562 61.125C181.729 61.9167 180.875 62.7083 180 63.5C179.167 64.25 178.417 64.9167 177.75 65.5C177.125 66.0833 176.771 66.375 176.688 66.375L173.812 63.9375C174.188 63.9375 174.562 63.8542 174.938 63.6875C175.271 63.5208 175.604 63.3333 175.938 63.125C178.438 61.4583 180.688 59.5417 182.688 57.375C184.729 55.2083 186.729 52.875 188.688 50.375C188.771 50.25 188.979 49.8958 189.312 49.3125C189.688 48.6875 190.083 48 190.5 47.25C190.917 46.4583 191.333 45.6875 191.75 44.9375C192.167 44.1458 192.479 43.5208 192.688 43.0625C192.938 42.5208 193.083 42.0833 193.125 41.75C193.208 41.4167 193.271 41.1667 193.312 41C193.396 40.7917 193.521 40.6458 193.688 40.5625C193.854 40.4792 194.208 40.4375 194.75 40.4375C194.833 40.4375 195.021 40.4583 195.312 40.5C195.646 40.5417 195.854 40.5833 195.938 40.625C196.479 41.75 196.958 42.75 197.375 43.625C197.792 44.5 198.146 45.3333 198.438 46.125C198.729 46.875 198.938 47.6458 199.062 48.4375C199.229 49.2292 199.312 50.1042 199.312 51.0625C198.771 52.4375 198.167 53.8542 197.5 55.3125C196.833 56.7292 196.271 58.0833 195.812 59.375C195.354 60.6667 195.062 61.8333 194.938 62.875C194.854 63.9167 195.083 64.75 195.625 65.375C196.208 65.9583 197.167 66.2708 198.5 66.3125C199.875 66.3542 201.812 66 204.312 65.25C204.979 65.5833 205.042 66 204.5 66.5C203.958 66.9583 203.125 67.3958 202 67.8125C200.917 68.2292 199.708 68.5833 198.375 68.875C197.083 69.125 196 69.1875 195.125 69.0625C194.333 69.0625 193.667 68.9375 193.125 68.6875C192.625 68.3958 192.208 68.0208 191.875 67.5625C191.583 67.1042 191.354 66.5833 191.188 66C191.062 65.4167 191 64.8125 191 64.1875ZM201.562 65.0625C201.562 64.9375 201.562 64.7708 201.562 64.5625C201.604 64.3125 201.625 64.1667 201.625 64.125C201.75 62.875 201.896 61.2917 202.062 59.375C202.229 57.4167 202.396 55.5417 202.562 53.75C202.771 51.9583 202.938 50.4167 203.062 49.125C203.188 47.7917 203.25 47.125 203.25 47.125L204.938 45.5C205.646 45.7083 206.167 46 206.5 46.375C206.833 46.7083 207.062 47.0833 207.188 47.5C207.312 47.9167 207.375 48.375 207.375 48.875C207.375 49.375 207.375 49.875 207.375 50.375C207.375 52.125 207.208 53.8333 206.875 55.5C206.583 57.125 206.438 58.7917 206.438 60.5C206.438 60.5833 206.438 60.7917 206.438 61.125C206.479 61.4167 206.5 61.6042 206.5 61.6875L221.875 45.5C221.917 45.4583 222.021 45.4375 222.188 45.4375C222.396 45.4375 222.542 45.4375 222.625 45.4375C223.042 45.4375 223.438 45.5208 223.812 45.6875C224.188 45.8542 224.375 46.2083 224.375 46.75C224.375 46.7917 224.354 46.8333 224.312 46.875C224.312 46.875 224.312 46.8958 224.312 46.9375V47.125C224.104 47.4583 223.729 48 223.188 48.75C222.688 49.5 222.125 50.3125 221.5 51.1875C220.917 52.0625 220.354 52.8958 219.812 53.6875C219.271 54.4375 218.896 54.9583 218.688 55.25C217.979 56.125 217.146 57.1667 216.188 58.375C215.271 59.5833 214.271 60.8125 213.188 62.0625C212.146 63.2708 211.042 64.4375 209.875 65.5625C208.75 66.6458 207.625 67.5208 206.5 68.1875C206.292 68.3125 205.979 68.4792 205.562 68.6875C205.188 68.8958 204.979 69 204.938 69C204.479 69 204.042 68.875 203.625 68.625C203.25 68.3333 202.896 67.9792 202.562 67.5625C202.271 67.1458 202.021 66.7292 201.812 66.3125C201.646 65.8542 201.562 65.4375 201.562 65.0625ZM226.188 64.9375C226.188 64.3542 226.25 63.8542 226.375 63.4375C226.5 62.9792 226.729 62.3958 227.062 61.6875C227.354 61.2708 227.875 60.4792 228.625 59.3125C229.417 58.1458 230.229 56.9167 231.062 55.625C231.938 54.3333 232.75 53.125 233.5 52C234.292 50.8333 234.833 50.0208 235.125 49.5625C235.5 49.0208 235.792 48.7292 236 48.6875C236.208 48.6458 236.604 48.625 237.188 48.625C237.562 48.625 237.958 48.6458 238.375 48.6875C238.833 48.7292 239.125 49.0208 239.25 49.5625C238.667 50.9792 237.875 52.3333 236.875 53.625C235.917 54.875 234.958 56.125 234 57.375C233.083 58.625 232.271 59.9167 231.562 61.25C230.854 62.5417 230.5 63.9375 230.5 65.4375C230.667 65.4375 230.917 65.4583 231.25 65.5C231.625 65.5417 232.021 65.5833 232.438 65.625C232.854 65.6667 233.229 65.7083 233.562 65.75C233.938 65.7917 234.208 65.7917 234.375 65.75C234.625 65.7083 235.042 65.625 235.625 65.5C236.25 65.3333 236.896 65.1667 237.562 65C238.271 64.8333 238.938 64.6667 239.562 64.5C240.188 64.3333 240.625 64.2083 240.875 64.125C240.875 64.2083 240.875 64.3542 240.875 64.5625C240.917 64.7292 240.938 64.8542 240.938 64.9375C240.938 65.7708 240.542 66.4583 239.75 67C239 67.5417 238.104 67.9792 237.062 68.3125C236.062 68.6042 235.021 68.8125 233.938 68.9375C232.896 69.0208 232.083 69.0625 231.5 69.0625C230.875 69.0625 230.229 69 229.562 68.875C228.938 68.7083 228.375 68.4583 227.875 68.125C227.375 67.7917 226.958 67.375 226.625 66.875C226.333 66.3333 226.188 65.6875 226.188 64.9375ZM244.375 28.3125C244.917 28.3125 245.417 28.3333 245.875 28.375C246.333 28.4167 246.729 28.5208 247.062 28.6875C247.396 28.8542 247.667 29.1042 247.875 29.4375C248.083 29.7708 248.188 30.2292 248.188 30.8125C248.188 31.0625 248.188 31.3333 248.188 31.625C248.188 31.9167 248.146 32.2083 248.062 32.5C248.021 32.75 247.917 32.9792 247.75 33.1875C247.583 33.3542 247.312 33.4375 246.938 33.4375C246.354 33.4375 245.875 33.2292 245.5 32.8125C245.167 32.3958 244.917 31.9167 244.75 31.375C244.583 30.7917 244.479 30.2083 244.438 29.625C244.396 29.0417 244.375 28.6042 244.375 28.3125ZM256.5 46.375C255.542 46.5 254.438 47.1042 253.188 48.1875C251.938 49.2292 250.729 50.5208 249.562 52.0625C248.438 53.5625 247.479 55.2083 246.688 57C245.896 58.75 245.5 60.375 245.5 61.875C245.5 63.0833 245.812 63.9375 246.438 64.4375C247.062 64.8958 247.958 65.125 249.125 65.125C250.375 65.125 251.583 64.9792 252.75 64.6875C253.958 64.3542 255.146 64.0208 256.312 63.6875C257.521 63.3125 258.708 62.9792 259.875 62.6875C261.083 62.3542 262.312 62.1875 263.562 62.1875C263.562 62.7708 263.479 63.2708 263.312 63.6875C263.146 64.0625 262.896 64.4792 262.562 64.9375C260.396 65.9792 258.167 66.9375 255.875 67.8125C253.583 68.6458 251.188 69.0625 248.688 69.0625C247.938 69.0625 247.146 68.9375 246.312 68.6875C245.479 68.3958 244.708 68 244 67.5C243.292 67 242.688 66.3958 242.188 65.6875C241.729 64.9792 241.5 64.1875 241.5 63.3125C241.5 61.4375 241.771 59.625 242.312 57.875C242.854 56.0833 243.604 54.3958 244.562 52.8125C245.521 51.2292 246.667 49.7708 248 48.4375C249.375 47.1042 250.854 45.9375 252.438 44.9375V44.875C253.062 44.5 253.771 44.1458 254.562 43.8125C255.396 43.4375 256.167 43.2292 256.875 43.1875C257.583 43.1042 258.167 43.2708 258.625 43.6875C259.125 44.0625 259.375 44.7917 259.375 45.875C259.375 46.375 259.333 47.0417 259.25 47.875C259.167 48.6667 258.938 49.2292 258.562 49.5625C258.229 49.7708 257.792 49.9583 257.25 50.125C257 50.2083 256.75 50.2708 256.5 50.3125V46.375ZM263.438 65.75C262.729 64.1667 262.417 62.625 262.5 61.125C262.583 59.5833 262.917 58.1458 263.5 56.8125C264.125 55.4375 264.917 54.2083 265.875 53.125C266.875 52 267.938 51.0417 269.062 50.25C270.188 49.4167 271.312 48.7917 272.438 48.375C273.604 47.9583 274.625 47.7917 275.5 47.875C276.375 47.9167 277.062 48.2292 277.562 48.8125C278.062 49.3958 278.229 50.2917 278.062 51.5C278.062 53.125 277.542 54.5417 276.5 55.75C275.5 56.9583 274.375 58.0417 273.125 59C271.917 59.9583 270.792 60.8333 269.75 61.625C268.75 62.375 268.25 63.0833 268.25 63.75C268.25 64.125 268.458 64.4167 268.875 64.625C269.333 64.8333 269.854 65 270.438 65.125C271.021 65.2083 271.604 65.2708 272.188 65.3125C272.771 65.3542 273.188 65.3958 273.438 65.4375C277.354 64.6042 280.292 64.1042 282.25 63.9375C284.208 63.7292 285.438 63.75 285.938 64C286.438 64.2083 286.333 64.5625 285.625 65.0625C284.958 65.5208 283.917 66.0208 282.5 66.5625C281.083 67.0625 279.438 67.5208 277.562 67.9375C275.688 68.3542 273.833 68.6042 272 68.6875C270.167 68.7292 268.458 68.5417 266.875 68.125C265.333 67.7083 264.188 66.9167 263.438 65.75ZM274.375 51.5C273.542 51.5 272.75 51.7292 272 52.1875C271.25 52.6458 270.562 53.2292 269.938 53.9375C269.354 54.6042 268.854 55.3542 268.438 56.1875C268.021 56.9792 267.708 57.7292 267.5 58.4375C267.583 58.4792 267.646 58.5 267.688 58.5H267.875C268.458 58.5 269.125 58.25 269.875 57.75C270.625 57.25 271.333 56.6458 272 55.9375C272.667 55.1875 273.229 54.4167 273.688 53.625C274.146 52.8333 274.375 52.125 274.375 51.5ZM284.625 62.0625C284.625 61.2708 284.729 60.5833 284.938 60C285.188 59.4167 285.792 59.125 286.75 59.125C286.833 59.125 287.021 59.1458 287.312 59.1875C287.646 59.1875 287.875 59.2083 288 59.25C287.958 61.2083 288.271 62.6875 288.938 63.6875C289.604 64.6458 290.854 65.125 292.688 65.125C294.188 65.125 295.667 64.8958 297.125 64.4375C298.583 63.9792 299.896 63.3125 301.062 62.4375C302.271 61.5208 303.229 60.4167 303.938 59.125C304.688 57.8333 305.062 56.375 305.062 54.75C305.062 53.75 304.708 53.0417 304 52.625C303.333 52.2083 302.583 51.875 301.75 51.625C300.917 51.375 300.146 51.1042 299.438 50.8125C298.771 50.4792 298.438 49.9167 298.438 49.125C298.438 48.1667 299.021 47.25 300.188 46.375C301.354 45.5 302.729 44.7292 304.312 44.0625C305.896 43.3542 307.458 42.8125 309 42.4375C310.583 42.0208 311.792 41.8125 312.625 41.8125C312.625 43.0208 312.354 43.875 311.812 44.375C311.312 44.875 310.688 45.2708 309.938 45.5625C309.188 45.8542 308.417 46.1458 307.625 46.4375C306.875 46.6875 306.25 47.1875 305.75 47.9375C306.417 48.4792 306.958 48.9792 307.375 49.4375C307.833 49.8542 308.188 50.3125 308.438 50.8125C308.688 51.3125 308.854 51.875 308.938 52.5C309.021 53.0833 309.062 53.7917 309.062 54.625C309.062 56.7917 308.583 58.7708 307.625 60.5625C306.708 62.3125 305.5 63.8333 304 65.125C302.5 66.375 300.792 67.3542 298.875 68.0625C296.958 68.7292 295 69.0625 293 69.0625C291.917 69.0625 290.854 68.9375 289.812 68.6875C288.812 68.3958 287.917 67.9583 287.125 67.375C286.375 66.7917 285.771 66.0625 285.312 65.1875C284.854 64.3125 284.625 63.2708 284.625 62.0625Z" fill="#172B30"/>
</svg>
