<svg width="227" height="119" viewBox="0 0 227 119" fill="none" xmlns="http://www.w3.org/2000/svg">
<path d="M2.3125 65.4375C2.3125 65.1875 2.33333 64.7917 2.375 64.25C2.41667 63.7083 2.4375 63.3958 2.4375 63.3125C3.27083 59.9375 3.95833 57.0417 4.5 54.625C5.08333 52.2083 5.5625 50.1667 5.9375 48.5C6.3125 46.8333 6.60417 45.5 6.8125 44.5C7.02083 43.5 7.16667 42.7292 7.25 42.1875C7.33333 41.6042 7.375 41.2083 7.375 41C7.41667 40.75 7.4375 40.5625 7.4375 40.4375C7.4375 40.1875 7.4375 39.75 7.4375 39.125C7.47917 38.5 7.45833 37.875 7.375 37.25C7.29167 36.5833 7.125 36.0208 6.875 35.5625C6.66667 35.0625 6.29167 34.8125 5.75 34.8125C5.20833 34.8125 4.75 35 4.375 35.375C4.04167 35.7083 3.70833 36.0625 3.375 36.4375C3.04167 36.7708 2.66667 37.0625 2.25 37.3125C1.875 37.5625 1.39583 37.5833 0.8125 37.375C1.39583 35.625 2.125 34.375 3 33.625C3.91667 32.875 5.25 32.5 7 32.5C8.04167 32.5 8.8125 32.7083 9.3125 33.125C9.85417 33.5 10.2083 34.0208 10.375 34.6875C10.5833 35.3125 10.6875 36.0417 10.6875 36.875C10.6875 37.7083 10.6875 38.5625 10.6875 39.4375C10.6875 41.0208 10.5417 42.5833 10.25 44.125C10 45.6667 9.70833 47.2083 9.375 48.75C9.04167 50.2917 8.72917 51.8333 8.4375 53.375C8.1875 54.9167 8.0625 56.4792 8.0625 58.0625C8.0625 58.1458 8.0625 58.3542 8.0625 58.6875C8.10417 58.9792 8.125 59.1667 8.125 59.25L8.9375 58.4375C12.3542 53.5625 15.0833 49.6042 17.125 46.5625C19.2083 43.5208 20.8542 41.1458 22.0625 39.4375C23.2708 37.6875 24.2083 36.5 24.875 35.875C25.5417 35.25 26.1667 34.9375 26.75 34.9375C27.2917 34.9375 27.7083 35.0833 28 35.375C28.3333 35.6667 28.5833 36.0208 28.75 36.4375C28.9167 36.8542 29.0208 37.3125 29.0625 37.8125C29.1458 38.2708 29.1875 38.6875 29.1875 39.0625V58.4375H30L51.8125 25.25C52.9375 23.5833 54.1042 22.5 55.3125 22C56.5208 21.4583 58.0625 21.4583 59.9375 22L53.5 28.5C50 33.875 47.0417 38.5417 44.625 42.5C42.25 46.4167 40.25 49.7708 38.625 52.5625C37.0417 55.3125 35.75 57.5625 34.75 59.3125C33.7917 61.0208 32.9792 62.375 32.3125 63.375C31.6458 64.3333 31.0625 65 30.5625 65.375C30.0625 65.7083 29.4792 65.875 28.8125 65.875C27.6875 65.875 26.8542 65.5208 26.3125 64.8125C25.8125 64.1042 25.4583 63.2708 25.25 62.3125C25.0833 61.3125 25 60.2917 25 59.25C25.0417 58.2083 25.0625 57.3542 25.0625 56.6875C25.0625 55.1875 25.0625 53.8333 25.0625 52.625C25.1042 51.375 25.1458 50.1458 25.1875 48.9375C25.2708 47.7292 25.3542 46.4792 25.4375 45.1875C25.5625 43.8542 25.7292 42.3333 25.9375 40.625C22.1875 46.3333 19.1042 50.9583 16.6875 54.5C14.3125 58.0417 12.375 60.7917 10.875 62.75C9.375 64.7083 8.1875 66.0417 7.3125 66.75C6.47917 67.4167 5.70833 67.75 5 67.75C3.875 67.75 3.14583 67.5833 2.8125 67.25C2.47917 66.875 2.3125 66.2708 2.3125 65.4375ZM65.1875 69.0625C64.1458 69.2292 63.1875 69.0625 62.3125 68.5625C61.4792 68.0208 60.8125 67.3333 60.3125 66.5C59.8125 65.625 59.5208 64.6875 59.4375 63.6875C59.3542 62.6458 59.5625 61.7083 60.0625 60.875C61.8958 58.5 63.1458 56.625 63.8125 55.25C64.4792 53.8333 64.7083 52.8542 64.5 52.3125C64.3333 51.7292 63.8125 51.5 62.9375 51.625C62.1042 51.7083 61.0833 52.0833 59.875 52.75C58.6667 53.375 57.3542 54.2083 55.9375 55.25C54.5625 56.2917 53.2708 57.4375 52.0625 58.6875C50.8542 59.9375 49.7917 61.25 48.875 62.625C48 63.9583 47.4375 65.2708 47.1875 66.5625C46.7708 66.8125 46.4167 67.0208 46.125 67.1875C45.8333 67.3125 45.5 67.375 45.125 67.375C44.5 67.375 44.125 67.1667 44 66.75C43.875 66.3333 43.8125 65.8958 43.8125 65.4375C43.8125 64.3958 44.125 63.3333 44.75 62.25C45.4167 61.125 46.1667 60.0833 47 59.125C47.875 58.125 48.7083 57.2292 49.5 56.4375C50.2917 55.6042 50.8542 54.9375 51.1875 54.4375C52.2292 52.7292 53.2708 50.8958 54.3125 48.9375C55.3542 46.9375 56.3958 44.9167 57.4375 42.875C58.4792 40.7917 59.5417 38.75 60.625 36.75C61.75 34.7083 62.9167 32.7708 64.125 30.9375C64.3333 30.6042 64.5 30.375 64.625 30.25C64.7917 30.125 65.0208 30.0625 65.3125 30.0625C65.6458 30.0625 65.8958 30.125 66.0625 30.25C66.2292 30.375 66.3958 30.6042 66.5625 30.9375C66.5625 31.1042 66.5208 31.375 66.4375 31.75C66.3958 32.125 66.3333 32.5417 66.25 33C66.2083 33.4167 66.125 33.8125 66 34.1875C65.9167 34.5625 65.8542 34.8125 65.8125 34.9375C65.5625 35.4375 65.1458 36.3125 64.5625 37.5625C63.9792 38.8125 63.3333 40.1458 62.625 41.5625C61.9583 42.9792 61.3125 44.375 60.6875 45.75C60.0625 47.0833 59.6042 48.0833 59.3125 48.75C59.9375 48.3333 60.5 48.0208 61 47.8125C61.5 47.5625 61.9792 47.3958 62.4375 47.3125C62.9375 47.1875 63.4375 47.125 63.9375 47.125C64.4792 47.0833 65.0625 47.0625 65.6875 47.0625C67.1875 47.4375 68.1667 48 68.625 48.75C69.125 49.5 69.2708 50.375 69.0625 51.375C68.8958 52.3333 68.5 53.3958 67.875 54.5625C67.25 55.7292 66.5833 56.9167 65.875 58.125C65.2083 59.2917 64.6042 60.4375 64.0625 61.5625C63.5208 62.6458 63.2708 63.6458 63.3125 64.5625C63.3125 64.9375 63.3958 65.2083 63.5625 65.375C63.7292 65.5417 63.9375 65.6667 64.1875 65.75C64.4375 65.8333 64.7083 65.875 65 65.875C65.2917 65.875 65.5625 65.875 65.8125 65.875C66.6875 65.875 67.5208 65.75 68.3125 65.5C69.1458 65.2083 69.9583 64.8958 70.75 64.5625C71.5417 64.2292 72.3333 63.9375 73.125 63.6875C73.9583 63.3958 74.8125 63.25 75.6875 63.25C75.6875 64.0417 75.2917 64.7917 74.5 65.5C73.7083 66.2083 72.75 66.8333 71.625 67.375C70.5417 67.875 69.3958 68.2917 68.1875 68.625C66.9792 68.9167 65.9792 69.0625 65.1875 69.0625ZM69.25 87.875C70.5833 85.7083 72.125 83.7708 73.875 82.0625C75.625 80.3958 77.4167 78.8125 79.25 77.3125C81.125 75.8125 82.9792 74.3542 84.8125 72.9375C86.6458 71.5208 88.3333 70 89.875 68.375C91.4583 66.75 92.8125 64.9583 93.9375 63C95.0625 61 95.8333 58.6875 96.25 56.0625C96.25 55.9792 96.2292 55.8542 96.1875 55.6875C96.1875 55.4792 96.1875 55.3333 96.1875 55.25C95.2292 56.375 94.0625 57.6458 92.6875 59.0625C91.3542 60.4792 89.8958 61.8125 88.3125 63.0625C86.7708 64.3125 85.1458 65.3542 83.4375 66.1875C81.7292 67.0208 80.0625 67.4375 78.4375 67.4375C78.0208 67.4375 77.4792 67.4167 76.8125 67.375C76.1875 67.2917 75.5625 67.1458 74.9375 66.9375C74.3125 66.7292 73.7708 66.4375 73.3125 66.0625C72.8542 65.6875 72.625 65.1875 72.625 64.5625C72.625 64.0208 72.7708 63.1875 73.0625 62.0625C73.3542 60.9375 73.75 59.6875 74.25 58.3125C74.75 56.9375 75.3125 55.5417 75.9375 54.125C76.5625 52.7083 77.2292 51.4167 77.9375 50.25C78.6458 49.0833 79.3333 48.125 80 47.375C80.7083 46.625 81.3542 46.25 81.9375 46.25C82.5208 46.25 83.0208 46.375 83.4375 46.625C83.8542 46.875 84.0625 47.2917 84.0625 47.875C84.0625 48.9167 83.6875 49.9583 82.9375 51C82.1875 52.0417 81.375 53.1667 80.5 54.375C79.625 55.5417 78.8125 56.8125 78.0625 58.1875C77.3125 59.5625 76.9375 61.125 76.9375 62.875C79.6875 62.875 82.1667 62.3125 84.375 61.1875C86.5833 60.0208 88.5833 58.5833 90.375 56.875C92.1667 55.1667 93.75 53.3125 95.125 51.3125C96.5 49.3125 97.7083 47.4583 98.75 45.75C99.8333 44.0417 100.75 42.625 101.5 41.5C102.292 40.3333 102.958 39.75 103.5 39.75C104.292 39.75 104.75 40 104.875 40.5C105.042 40.9583 105.125 41.5417 105.125 42.25C104.75 43.5417 104.229 45.0625 103.562 46.8125C102.896 48.5208 102.208 50.3333 101.5 52.25C100.833 54.125 100.208 56 99.625 57.875C99.0833 59.75 98.7292 61.4583 98.5625 63C98.5625 63.0417 98.5625 63.1042 98.5625 63.1875C98.6042 63.2708 98.625 63.3333 98.625 63.375C99.375 63.125 100.083 62.6875 100.75 62.0625C101.417 61.4375 102.062 60.8125 102.688 60.1875C103.354 59.5208 104.021 58.9375 104.688 58.4375C105.354 57.8958 106.042 57.625 106.75 57.625C106.792 57.625 106.938 57.9167 107.188 58.5C107.479 59.0833 107.479 59.7917 107.188 60.625C106.812 60.9167 106.125 61.4167 105.125 62.125C104.167 62.8333 103.146 63.5833 102.062 64.375C100.979 65.125 99.9583 65.875 99 66.625C98.0417 67.3333 97.375 67.875 97 68.25C96.4167 68.8333 95.8125 69.6667 95.1875 70.75C94.5625 71.8333 93.9375 73.0417 93.3125 74.375C92.6875 75.75 92.0625 77.1875 91.4375 78.6875C90.8542 80.1875 90.2708 81.6458 89.6875 83.0625C89.1042 84.5208 88.5208 85.8542 87.9375 87.0625C87.3958 88.3125 86.8958 89.3333 86.4375 90.125C86.2292 90.4583 85.7917 91.1042 85.125 92.0625C84.5 93.0625 83.7917 94.125 83 95.25C82.25 96.375 81.5 97.4375 80.75 98.4375C80.0417 99.4792 79.5 100.208 79.125 100.625C78.9583 100.833 78.5 101.312 77.75 102.062C77 102.854 76.1458 103.708 75.1875 104.625C74.2708 105.583 73.3542 106.521 72.4375 107.438C71.4792 108.354 70.75 109.042 70.25 109.5C69.75 109.792 69.0833 110.146 68.25 110.562C67.4167 111.021 66.5625 111.396 65.6875 111.688C64.7708 111.979 63.8958 112.167 63.0625 112.25C62.1875 112.333 61.4792 112.146 60.9375 111.688C60.3958 111.271 60.0833 110.542 60 109.5C59.875 108.5 60.1042 107.062 60.6875 105.188C61.2292 103.354 62.1875 101.021 63.5625 98.1875C64.9375 95.3542 66.8333 91.9167 69.25 87.875ZM88.875 74.4375C88.7917 74.4375 88.6458 74.4583 88.4375 74.5C88.2708 74.5833 88.1458 74.6458 88.0625 74.6875C87.9792 74.7708 87.7917 74.9167 87.5 75.125C87.2083 75.3333 86.875 75.5625 86.5 75.8125C86.1667 76.0625 85.8333 76.3125 85.5 76.5625C85.2083 76.8125 85 77 84.875 77.125C83.7083 77.9583 82.375 79.125 80.875 80.625C79.375 82.1667 77.8125 83.8542 76.1875 85.6875C74.6042 87.5625 73.0417 89.5208 71.5 91.5625C69.9583 93.6458 68.5833 95.625 67.375 97.5C66.125 99.4167 65.125 101.167 64.375 102.75C63.625 104.333 63.2292 105.604 63.1875 106.562C63.1458 107.521 63.5417 108.083 64.375 108.25C65.2083 108.417 66.625 108.021 68.625 107.062C69.0417 106.688 69.6458 106.125 70.4375 105.375C71.1875 104.667 71.9375 103.917 72.6875 103.125C73.4792 102.375 74.1875 101.667 74.8125 101C75.4375 100.375 75.8125 99.9792 75.9375 99.8125C76.1458 99.5208 76.4792 99.0625 76.9375 98.4375C77.3958 97.8125 77.8958 97.1042 78.4375 96.3125C78.9792 95.5208 79.5417 94.6875 80.125 93.8125C80.7083 92.9375 81.25 92.0833 81.75 91.25C82.2917 90.4583 82.75 89.75 83.125 89.125C83.5417 88.5 83.8333 88.0208 84 87.6875C84.375 87.0208 84.8333 86.0625 85.375 84.8125C85.9583 83.6042 86.5 82.3333 87 81C87.5 79.7083 87.9375 78.4583 88.3125 77.25C88.6875 76.0417 88.875 75.1042 88.875 74.4375ZM139.125 65.875C139.125 65.25 139.312 64.375 139.688 63.25C140.062 62.0833 140.542 60.8333 141.125 59.5C141.75 58.1667 142.438 56.8125 143.188 55.4375C143.979 54.0625 144.771 52.8125 145.562 51.6875C146.354 50.5625 147.104 49.6458 147.812 48.9375C148.521 48.2292 149.146 47.875 149.688 47.875C150.854 47.875 151.438 48.4375 151.438 49.5625C151.438 50.0625 151.333 50.4792 151.125 50.8125C150.958 51.1458 150.75 51.4583 150.5 51.75C150.25 52.0417 149.979 52.3333 149.688 52.625C149.396 52.875 149.146 53.1875 148.938 53.5625C148.562 54.1875 148.104 55.0417 147.562 56.125C147.021 57.2083 146.479 58.2708 145.938 59.3125C145.438 60.3125 145 61.2083 144.625 62C144.25 62.7917 144.062 63.2292 144.062 63.3125V64.125C145.688 63.8333 147.25 63.1458 148.75 62.0625C150.25 60.9375 151.667 59.625 153 58.125C154.375 56.625 155.667 55.0625 156.875 53.4375C158.125 51.7708 159.292 50.25 160.375 48.875C161.458 47.4583 162.479 46.2917 163.438 45.375C164.396 44.4583 165.292 44 166.125 44C166.125 45.5417 165.812 46.9375 165.188 48.1875C164.562 49.4375 163.875 50.6667 163.125 51.875C162.417 53.0833 161.75 54.3333 161.125 55.625C160.5 56.875 160.188 58.2917 160.188 59.875C160.188 60.5417 160.583 61.1458 161.375 61.6875C162.208 62.1875 163.146 62.625 164.188 63C165.271 63.3333 166.312 63.6042 167.312 63.8125C168.312 64.0208 169 64.1458 169.375 64.1875V65.8125C168.417 65.8542 167.229 65.875 165.812 65.875C164.396 65.8333 162.979 65.6667 161.562 65.375C160.146 65.0833 158.854 64.6042 157.688 63.9375C156.562 63.2292 155.812 62.2083 155.438 60.875C154.354 61.5833 153.312 62.4167 152.312 63.375C151.312 64.3333 150.271 65.2292 149.188 66.0625C148.146 66.8958 147.042 67.6042 145.875 68.1875C144.708 68.7708 143.438 69.0625 142.062 69.0625C141.229 69.0625 140.521 68.7083 139.938 68C139.396 67.2917 139.125 66.5833 139.125 65.875ZM169.125 62.0625C169.125 61.2708 169.229 60.5833 169.438 60C169.688 59.4167 170.292 59.125 171.25 59.125C171.333 59.125 171.521 59.1458 171.812 59.1875C172.146 59.1875 172.375 59.2083 172.5 59.25C172.458 61.2083 172.771 62.6875 173.438 63.6875C174.104 64.6458 175.354 65.125 177.188 65.125C178.688 65.125 180.167 64.8958 181.625 64.4375C183.083 63.9792 184.396 63.3125 185.562 62.4375C186.771 61.5208 187.729 60.4167 188.438 59.125C189.188 57.8333 189.562 56.375 189.562 54.75C189.562 53.75 189.208 53.0417 188.5 52.625C187.833 52.2083 187.083 51.875 186.25 51.625C185.417 51.375 184.646 51.1042 183.938 50.8125C183.271 50.4792 182.938 49.9167 182.938 49.125C182.938 48.1667 183.521 47.25 184.688 46.375C185.854 45.5 187.229 44.7292 188.812 44.0625C190.396 43.3542 191.958 42.8125 193.5 42.4375C195.083 42.0208 196.292 41.8125 197.125 41.8125C197.125 43.0208 196.854 43.875 196.312 44.375C195.812 44.875 195.188 45.2708 194.438 45.5625C193.688 45.8542 192.917 46.1458 192.125 46.4375C191.375 46.6875 190.75 47.1875 190.25 47.9375C190.917 48.4792 191.458 48.9792 191.875 49.4375C192.333 49.8542 192.688 50.3125 192.938 50.8125C193.188 51.3125 193.354 51.875 193.438 52.5C193.521 53.0833 193.562 53.7917 193.562 54.625C193.562 56.7917 193.083 58.7708 192.125 60.5625C191.208 62.3125 190 63.8333 188.5 65.125C187 66.375 185.292 67.3542 183.375 68.0625C181.458 68.7292 179.5 69.0625 177.5 69.0625C176.417 69.0625 175.354 68.9375 174.312 68.6875C173.312 68.3958 172.417 67.9583 171.625 67.375C170.875 66.7917 170.271 66.0625 169.812 65.1875C169.354 64.3125 169.125 63.2708 169.125 62.0625ZM205.375 66.1875C205.375 65.5625 205.583 65.1875 206 65.0625C206.458 64.8958 206.917 64.8125 207.375 64.8125C207.667 64.8125 208.042 64.8542 208.5 64.9375C209 65.0208 209.458 65.1667 209.875 65.375C210.292 65.5833 210.625 65.8542 210.875 66.1875C211.167 66.5208 211.25 66.9167 211.125 67.375C210.958 68.0417 210.625 68.5 210.125 68.75C209.625 68.9583 209.146 69.0625 208.688 69.0625C207.896 69.0625 207.146 68.7917 206.438 68.25C205.729 67.6667 205.375 66.9792 205.375 66.1875ZM210.188 47.625C210.188 45.375 210.604 43.1042 211.438 40.8125C212.271 38.5208 213.292 36.2708 214.5 34.0625C215.75 31.8542 217.083 29.7292 218.5 27.6875C219.917 25.6458 221.229 23.75 222.438 22C222.438 21.9583 222.438 21.8958 222.438 21.8125C222.479 21.7292 222.5 21.6458 222.5 21.5625C222.5 20.8125 222.167 20.2917 221.5 20C220.875 19.6667 220.271 19.5 219.688 19.5C218.688 19.5 217.771 19.6875 216.938 20.0625C216.146 20.3958 215.354 20.7083 214.562 21C213.812 21.2917 213.021 21.4583 212.188 21.5C211.354 21.5 210.438 21.1458 209.438 20.4375C209.438 20.3542 209.646 20.1458 210.062 19.8125C210.521 19.4792 211.042 19.1042 211.625 18.6875C212.25 18.2292 212.875 17.7917 213.5 17.375C214.167 16.9167 214.708 16.5625 215.125 16.3125C215.833 15.9375 216.625 15.7083 217.5 15.625C218.375 15.5417 219.208 15.5 220 15.5C221.75 15.5 223.146 15.8542 224.188 16.5625C225.229 17.2708 225.75 18.5625 225.75 20.4375C225.625 21.6042 225.188 22.9583 224.438 24.5C223.688 26.0417 222.792 27.6875 221.75 29.4375C220.75 31.1458 219.667 32.9375 218.5 34.8125C217.375 36.6458 216.375 38.4583 215.5 40.25C214.667 42 214.021 43.6875 213.562 45.3125C213.146 46.8958 213.146 48.3125 213.562 49.5625C213.146 49.8125 212.792 50.0208 212.5 50.1875C212.208 50.3125 211.875 50.375 211.5 50.375C211.125 50.375 210.833 50.2708 210.625 50.0625C210.458 49.8542 210.333 49.6042 210.25 49.3125C210.208 49.0208 210.188 48.7292 210.188 48.4375C210.188 48.1042 210.188 47.8333 210.188 47.625Z" fill="#172B30"/>
</svg>
