<svg width="227" height="80" viewBox="0 0 227 80" fill="none" xmlns="http://www.w3.org/2000/svg">
<path d="M70.592 22.152V23.176C70.592 27.4853 69.2907 32.392 66.688 37.896C64.0853 43.4 60.8853 48.2427 57.088 52.424C55.04 54.6427 52.6293 56.5627 49.856 58.184C47.1253 59.8053 44.352 60.616 41.536 60.616C36.2453 60.616 33.6 56.648 33.6 48.712C33.6 45.8107 33.984 42.44 34.752 38.6C31.296 45.4267 27.9893 50.6747 24.832 54.344C20.8213 58.952 16.6187 61.256 12.224 61.256C10.2187 61.256 8.55467 60.5093 7.232 59.016C5.952 57.5227 5.312 55.1333 5.312 51.848C5.312 47.5387 6.82667 42.2267 9.856 35.912C12.928 29.5547 16.576 24.4987 20.8 20.744C21.568 20.0187 22.528 19.4427 23.68 19.016C22.0587 19.3573 19.5627 19.72 16.192 20.104C12.8213 20.4453 10.5813 20.744 9.472 21C4.90667 22.024 2.624 24.7547 2.624 29.192C1.30133 27.8267 0.64 26.3547 0.64 24.776C0.64 19.144 6.05867 16.328 16.896 16.328H30.016C30.1013 16.328 30.144 16.4133 30.144 16.584C30.144 16.712 29.8667 17.0747 29.312 17.672C28.8 18.2693 28.3093 18.7173 27.84 19.016C26.0053 20.1253 23.8933 22.4293 21.504 25.928C19.1147 29.4267 16.9387 33.5867 14.976 38.408C13.0133 43.1867 12.032 47.4747 12.032 51.272C12.032 55.0693 13.376 56.968 16.064 56.968C19.0933 56.968 23.8293 52.1893 30.272 42.632C31.5947 40.6267 33.1093 37.64 34.816 33.672C36.5227 29.6613 37.7173 27.016 38.4 25.736C39.0827 24.4133 40.2987 23.0907 42.048 21.768C43.84 20.4027 45.4613 19.72 46.912 19.72C48.4053 19.72 49.152 19.9333 49.152 20.36C46.8907 23.432 44.7573 27.592 42.752 32.84C40.7467 38.088 39.744 43.1013 39.744 47.88C39.744 53.7253 41.472 56.7547 44.928 56.968C47.1467 56.968 49.3227 55.9013 51.456 53.768C53.632 51.6347 55.4453 49.1813 56.896 46.408C58.3893 43.592 59.776 40.4347 61.056 36.936C63.232 31.0907 64.32 26.44 64.32 22.984C64.32 19.528 63.1893 17.8 60.928 17.8C60.2453 17.8 59.4773 17.9493 58.624 18.248C58.7093 17.48 59.2213 16.8613 60.16 16.392C61.1413 15.88 62.4 15.624 63.936 15.624C65.5147 15.624 66.9867 16.1787 68.352 17.288C69.7173 18.3547 70.464 19.976 70.592 22.152ZM96.64 48.136C91.392 56.968 86.9547 61.384 83.328 61.384C80.8107 61.384 79.552 59.9333 79.552 57.032C79.552 53.6613 80.896 48.8613 83.584 42.632C84.1813 41.0533 84.48 39.9653 84.48 39.368C84.48 38.5147 84.096 38.088 83.328 38.088C82.816 38.088 81.9413 38.3867 80.704 38.984C79.5093 39.5813 78.3573 40.456 77.248 41.608C76.1387 42.76 75.2 44.104 74.432 45.64C73.7067 47.1333 73.1093 48.4347 72.64 49.544C72.2133 50.6533 71.7653 52.0187 71.296 53.64C70.8267 55.2187 70.4 56.52 70.016 57.544C69.6747 58.5253 69.312 59.6773 68.928 61H62.72C63.872 58.056 65.5147 53.3627 67.648 46.92C69.824 40.4347 71.68 35.3573 73.216 31.688C74.752 27.976 76.2453 24.8613 77.696 22.344C79.1893 19.784 80.8747 17.6507 82.752 15.944C84.672 14.2373 86.6773 13.384 88.768 13.384C90.9013 13.384 91.968 14.3867 91.968 16.392C91.968 17.8 91.392 19.656 90.24 21.96C87.7653 26.824 83.6267 32.456 77.824 38.856C80.128 37.192 81.9413 36.104 83.264 35.592C84.6293 35.08 85.9307 34.824 87.168 34.824C89.6 34.824 90.816 35.8907 90.816 38.024C90.816 38.8773 90.6667 39.6667 90.368 40.392C90.0693 41.1173 89.728 41.9493 89.344 42.888C89.0027 43.8267 88.704 44.5947 88.448 45.192C88.2347 45.7893 87.936 46.6 87.552 47.624C87.168 48.648 86.8693 49.5227 86.656 50.248C86.1013 52.04 85.824 53.4693 85.824 54.536C85.824 55.6027 86.1867 56.136 86.912 56.136C89.472 56.136 92.672 52.424 96.512 45C96.64 44.7013 96.7893 44.552 96.96 44.552C97.1733 44.552 97.28 44.9573 97.28 45.768C97.28 46.536 97.0667 47.3253 96.64 48.136ZM88.896 14.984C87.4027 14.984 85.44 17.352 83.008 22.088C80.6187 26.824 78.272 32.264 75.968 38.408C81.8133 31.5387 85.8027 25.9067 87.936 21.512C89.1307 18.824 89.728 17.0747 89.728 16.264C89.728 15.4107 89.4507 14.984 88.896 14.984ZM120.223 36.04H122.847C121.524 36.8507 120.18 38.856 118.815 42.056C117.705 44.744 116.767 47.1973 115.999 49.416C115.231 51.592 114.761 52.9147 114.591 53.384C114.42 53.8533 114.015 55.0053 113.375 56.84C112.777 58.632 112.287 60.0187 111.903 61C110.836 63.9867 109.599 66.3547 108.191 68.104C106.783 69.8533 105.033 71.24 102.943 72.264C100.852 73.3307 98.7398 73.864 96.6065 73.864C94.4732 73.864 92.6598 73.4373 91.1665 72.584C89.6305 71.7733 88.8625 70.472 88.8625 68.68C88.8625 67.7413 89.1612 66.888 89.7585 66.12C90.3132 65.3947 90.9745 65.032 91.7425 65.032C92.4678 65.032 93.0865 65.2027 93.5985 65.544C94.1105 65.8853 94.4732 66.2693 94.6865 66.696C93.9185 66.952 93.5345 67.848 93.5345 69.384C93.5345 70.1947 93.8118 70.8347 94.3665 71.304C94.9638 71.816 95.7105 72.072 96.6065 72.072C100.063 72.072 102.964 68.9787 105.311 62.792L108.958 53.064C106.953 55.5813 105.204 57.48 103.711 58.76C102.26 59.9973 101.108 60.744 100.255 61C99.4438 61.256 98.4625 61.384 97.3105 61.384C96.2012 61.384 95.3052 60.936 94.6225 60.04C93.9398 59.1013 93.5985 57.7573 93.5985 56.008C93.6412 54.216 94.1532 51.6773 95.1345 48.392C96.1585 45.1067 97.2678 42.504 98.4625 40.584C99.6998 38.664 100.959 37.4267 102.239 36.872C103.561 36.3173 105.353 36.04 107.615 36.04C107.785 36.04 107.871 36.1253 107.871 36.296C107.871 36.4667 107.743 36.68 107.487 36.936C105.737 38.472 103.945 41.224 102.111 45.192C100.319 49.16 99.4225 52.5093 99.4225 55.24C99.4225 56.6907 99.8278 57.416 100.639 57.416C102.175 57.416 104.137 55.88 106.527 52.808C108.916 49.736 110.751 46.664 112.031 43.592C112.201 43.1653 112.436 42.5467 112.735 41.736C113.076 40.9253 113.311 40.3707 113.439 40.072C113.567 39.7733 113.759 39.368 114.015 38.856C114.313 38.3013 114.569 37.9387 114.783 37.768C114.996 37.5547 115.273 37.2987 115.615 37C115.999 36.7013 116.383 36.5093 116.767 36.424C118.004 36.168 119.156 36.04 120.223 36.04ZM165.062 35.208L168.134 35.272C168.774 35.272 169.179 35.2507 169.35 35.208C168.155 36.0187 166.427 38.856 164.166 43.72C161.947 48.5413 160.838 52.0187 160.838 54.152C160.838 55.432 161.264 56.072 162.118 56.072C162.672 56.072 163.419 55.7093 164.358 54.984C165.339 54.2587 166.171 53.4693 166.854 52.616C167.536 51.72 168.262 50.632 169.03 49.352C169.84 48.072 170.523 46.9627 171.078 46.024C171.675 45.0853 172.016 44.616 172.102 44.616C172.358 44.616 172.486 45.0213 172.486 45.832C172.486 46.6427 172.251 47.4107 171.782 48.136C166.491 56.968 162.075 61.384 158.534 61.384C156.144 61.384 154.95 59.6133 154.95 56.072C154.95 54.9627 155.035 53.896 155.206 52.872C151.195 58.5467 147.376 61.384 143.75 61.384C142.683 61.384 141.808 60.936 141.126 60.04C140.486 59.144 140.166 57.8213 140.166 56.072C140.166 54.3227 140.784 51.4427 142.022 47.432C143.259 43.3787 144.774 40.0507 146.566 37.448C146.992 36.808 147.44 36.424 147.91 36.296C148.422 36.1253 149.36 36.04 150.726 36.04H153.798C152.731 37.4907 151.579 39.4533 150.342 41.928C147.526 47.7733 146.118 52.0613 146.118 54.792C146.118 56.4133 146.694 57.224 147.845 57.224C149.04 57.224 150.448 56.0933 152.07 53.832C153.691 51.5707 155.419 48.648 157.253 45.064C159.131 41.4373 160.219 39.3893 160.518 38.92C162.096 36.4453 163.611 35.208 165.062 35.208ZM196.052 48.008C192.852 53.3413 189.95 57.0533 187.348 59.144C184.745 61.2347 181.374 62.28 177.236 62.28C174.846 62.28 172.841 61.832 171.22 60.936C169.598 59.9973 168.788 58.632 168.788 56.84C168.788 55.816 169.086 54.8773 169.684 54.024C170.281 53.1707 171.092 52.744 172.116 52.744C173.182 52.744 173.865 53.128 174.164 53.896C173.353 54.7067 172.948 55.6453 172.948 56.712C172.948 58.8453 174.142 59.912 176.532 59.912C177.94 59.912 179.156 59.4213 180.18 58.44C181.246 57.4587 181.78 56.392 181.78 55.24C181.78 54.0453 181.524 53 181.012 52.104C180.5 51.208 179.881 50.4187 179.156 49.736C178.43 49.0533 177.705 48.3707 176.98 47.688C175.23 46.024 174.356 44.1253 174.356 41.992C174.356 39.816 175.166 38.0027 176.788 36.552C178.452 35.0587 180.713 34.312 183.572 34.312C185.364 34.312 186.878 34.632 188.116 35.272C189.353 35.912 189.972 36.9147 189.972 38.28C189.972 39.6027 189.566 40.7547 188.756 41.736C187.945 42.7173 186.836 43.208 185.428 43.208C184.062 43.208 183.38 42.568 183.38 41.288C183.38 40.9893 183.87 40.5413 184.852 39.944C185.833 39.3467 186.324 38.728 186.324 38.088C186.324 37.448 186.046 36.9787 185.492 36.68C184.98 36.3387 184.233 36.168 183.252 36.168C182.27 36.168 181.31 36.5093 180.372 37.192C179.476 37.8747 179.028 38.7707 179.028 39.88C179.028 40.9893 179.497 42.0347 180.436 43.016C181.374 43.9973 182.398 44.8293 183.508 45.512C184.617 46.1947 185.641 47.1547 186.58 48.392C187.518 49.5867 187.988 50.8667 187.988 52.232C187.988 53.5547 187.668 54.7493 187.028 55.816C186.43 56.8827 185.705 57.736 184.852 58.376C187.241 57.352 189.78 54.792 192.468 50.696C192.724 50.3547 193.172 49.6507 193.812 48.584C195.305 45.896 196.137 44.552 196.308 44.552C196.564 44.552 196.692 44.9573 196.692 45.768C196.692 46.536 196.478 47.2827 196.052 48.008ZM204.879 45.96L204.943 46.856C204.943 47.368 204.666 47.816 204.111 48.2C203.599 48.5413 203.066 48.712 202.511 48.712C201.53 48.712 201.039 48.136 201.039 46.984C201.039 44.68 202.426 42.4827 205.199 40.392L206.735 39.368C212.282 35.8267 216.079 32.6053 218.127 29.704C219.066 28.3387 219.535 26.9093 219.535 25.416C219.535 23.9227 219.023 22.6427 217.999 21.576C217.018 20.5093 215.695 19.976 214.031 19.976C212.836 19.976 211.258 20.5093 209.295 21.576C208.314 22.1307 207.46 22.9627 206.735 24.072C206.01 25.1813 205.647 26.2907 205.647 27.4C205.647 28.4667 205.796 29.2987 206.095 29.896C205.498 30.2373 204.794 30.408 203.983 30.408C203.215 30.408 202.468 30.024 201.743 29.256C201.06 28.488 200.719 27.464 200.719 26.184C200.719 24.264 201.572 22.6427 203.279 21.32C206.266 18.9733 210.106 17.8 214.799 17.8C222.82 17.8 226.831 20.3387 226.831 25.416C226.831 28.36 225.892 30.5787 224.015 32.072C222.18 33.5653 219.706 34.952 216.591 36.232C213.391 37.64 210.98 38.8347 209.359 39.816C206.372 41.736 204.879 43.784 204.879 45.96ZM203.855 57.864C203.386 57.9493 202.682 58.44 201.743 59.336C200.847 60.232 200.25 60.9573 199.951 61.512C197.86 60.8293 196.815 59.9547 196.815 58.888C196.815 58.12 197.263 57.3733 198.159 56.648C199.098 55.9227 200.164 55.56 201.359 55.56C203.108 55.56 203.983 56.0933 203.983 57.16C203.983 57.288 203.94 57.5227 203.855 57.864Z" fill="#172B30"/>
</svg>
